{"glyphs":{"0":{"ha":1474,"x_min":34,"x_max":1428,"o":"m 729 1146 q 1312 836 1084 1146 q 1428 496 1428 642 l 1428 397 q 1267 -4 1428 218 q 758 -248 1035 -248 l 704 -248 q 187 8 418 -248 q 34 451 34 209 q 377 1051 34 819 q 729 1146 555 1146 m 534 646 l 534 522 q 526 513 534 513 l 522 513 q 477 526 479 526 q 435 492 438 526 l 435 480 q 518 435 436 463 l 530 418 l 530 401 q 406 273 475 293 q 353 240 353 256 q 460 186 353 211 q 485 136 472 136 q 551 145 490 136 l 559 145 q 688 83 593 145 q 741 71 708 71 l 766 71 q 911 136 819 71 q 944 145 915 136 l 952 145 l 1027 136 l 1056 191 q 1155 232 1155 208 l 1155 248 q 1076 281 1153 257 q 977 414 984 358 q 1060 463 982 433 q 1076 484 1076 481 l 1076 488 q 1031 526 1076 526 l 985 513 l 981 513 q 973 522 973 513 l 973 637 q 804 823 973 771 q 758 827 786 823 q 543 683 599 827 q 534 646 534 656 z "},"1":{"ha":1476,"x_min":34,"x_max":1422,"o":"m 730 1142 q 1319 817 1089 1142 q 1422 450 1422 646 l 1422 437 q 1072 -159 1422 67 q 726 -250 898 -250 q 174 26 408 -250 q 34 454 34 220 q 326 1015 34 783 q 730 1142 515 1142 m 330 433 q 557 75 330 203 q 705 38 644 38 l 751 38 q 1055 207 920 38 q 1126 425 1126 312 l 1126 433 q 886 800 1126 681 q 726 833 805 833 q 368 606 499 833 q 330 433 330 510 m 722 775 q 948 689 859 775 l 948 681 q 779 570 830 570 q 672 734 775 570 q 656 767 662 734 q 722 775 710 775 m 586 739 q 705 545 705 570 q 405 504 553 504 l 401 512 l 401 516 q 503 689 401 581 q 586 739 563 739 m 989 644 l 994 644 q 1068 441 1068 557 q 1063 437 1063 441 q 911 454 999 450 q 899 450 903 450 l 890 454 q 846 450 863 450 l 837 450 q 808 516 822 450 q 989 644 899 553 m 734 491 q 763 437 748 484 q 545 298 649 398 q 475 215 483 218 l 471 215 q 388 437 388 309 q 405 446 398 446 q 734 491 568 446 m 916 401 q 1063 372 1063 395 q 952 174 1043 266 q 928 157 944 174 l 924 157 q 874 339 916 159 q 854 393 869 339 q 916 401 878 401 m 788 376 q 862 125 837 262 q 755 96 810 96 l 701 96 q 528 161 618 96 q 524 178 524 169 q 783 376 616 318 l 788 376 z "},"2":{"ha":1461,"x_min":27,"x_max":1421,"o":"m 728 1144 q 1289 855 1062 1144 q 1421 476 1421 660 l 1421 406 q 1293 43 1421 248 q 720 -250 1063 -250 q 217 -28 441 -250 q 47 286 75 142 q 27 447 35 344 q 184 884 27 677 q 728 1144 406 1144 m 340 542 l 340 340 q 386 269 340 286 l 716 51 l 736 51 q 1108 302 1095 285 q 1112 319 1112 310 l 1112 562 q 831 756 1086 594 q 724 823 742 823 q 345 566 376 602 l 340 542 m 695 724 l 695 591 q 555 480 695 562 q 551 476 555 476 l 547 476 q 435 554 435 548 q 695 724 675 724 m 758 724 l 770 724 q 1017 554 1015 560 q 906 476 1003 537 l 902 476 q 758 587 758 566 l 758 724 m 728 513 q 840 435 823 456 q 732 360 833 424 l 720 360 q 613 435 614 428 q 728 513 637 463 m 415 488 q 485 435 475 449 q 411 381 485 431 l 407 389 l 407 480 q 415 488 408 488 m 1038 488 q 1046 480 1046 487 l 1046 389 q 1038 381 1046 381 l 968 435 q 1038 488 969 442 m 543 393 l 555 393 q 695 286 695 306 l 695 154 q 687 146 695 146 q 435 319 442 308 q 543 393 435 323 m 897 393 l 910 393 q 1017 319 1017 323 q 831 191 1008 305 q 762 150 777 150 l 758 158 l 758 274 q 827 344 758 313 q 897 393 827 347 z "},"3":{"ha":1480,"x_min":34,"x_max":1437,"o":"m 738 1147 q 1217 956 1005 1147 q 1420 598 1362 826 q 1437 477 1437 522 l 1437 402 q 1312 40 1437 245 q 1129 -139 1215 -79 q 767 -256 941 -256 l 704 -256 q 205 -18 437 -256 q 34 452 34 186 l 34 490 q 38 494 34 494 q 34 498 38 498 q 138 819 34 620 q 738 1147 372 1147 m 363 648 l 363 644 l 505 523 l 363 390 q 583 244 566 250 l 738 373 l 742 373 l 883 248 q 1108 398 971 302 l 1108 402 q 966 515 1100 402 l 966 519 l 1108 644 q 883 793 904 793 q 733 665 883 787 l 729 665 q 575 793 584 793 l 363 648 m 733 661 q 958 515 937 535 l 742 377 l 738 377 q 513 523 514 516 q 733 661 535 541 m 738 344 q 579 215 617 240 l 521 256 l 521 206 q 738 69 521 202 l 742 69 q 950 219 941 204 l 950 252 l 946 252 l 888 215 l 883 215 q 738 344 772 317 z "},"4":{"ha":1467,"x_min":27,"x_max":1423,"o":"m 726 1145 q 1143 1004 938 1145 q 1423 438 1423 772 q 1208 -58 1423 170 q 1019 -186 1093 -159 q 754 -252 874 -252 l 675 -252 q 416 -181 584 -252 q 205 -20 325 -139 q 27 422 27 197 l 27 479 q 126 806 27 617 q 465 1091 242 996 q 726 1145 604 1145 m 300 442 l 300 418 q 539 33 300 177 q 746 -12 644 -12 q 977 62 849 -12 q 1159 327 1105 145 q 1167 397 1167 382 l 1167 447 q 1023 748 1167 604 q 734 860 888 860 q 407 711 554 860 q 300 442 300 573 m 738 814 q 1101 562 984 814 q 1126 422 1126 496 q 903 71 1126 193 q 734 29 812 29 q 432 170 570 29 q 341 406 341 302 l 341 434 q 511 748 341 608 q 738 814 614 814 m 709 674 l 709 669 q 882 335 744 586 l 899 335 q 924 347 915 347 l 924 368 q 721 682 741 665 l 717 682 q 709 674 709 681 m 675 608 q 519 343 654 580 l 519 335 q 564 315 527 315 q 713 578 694 534 q 675 608 699 608 m 490 471 l 490 418 l 494 397 l 515 397 l 564 475 l 564 479 l 498 479 q 490 471 490 478 m 647 401 l 647 397 l 812 397 l 812 401 q 758 479 776 479 l 701 479 q 647 401 684 471 m 886 479 l 886 475 q 940 397 930 402 l 977 397 l 977 471 q 969 479 977 479 l 886 479 m 886 310 q 932 269 887 288 q 940 244 932 262 q 973 302 973 260 q 936 343 958 343 q 886 310 906 331 m 507 323 q 494 244 494 252 q 552 290 541 290 l 552 294 q 507 323 552 304 z "},"5":{"ha":1482,"x_min":41,"x_max":1433,"o":"m 734 1144 q 751 1140 742 1140 l 764 1140 q 1305 850 1073 1140 q 1433 496 1417 682 l 1433 417 q 1305 41 1433 239 q 739 -252 1073 -252 q 136 91 363 -252 q 41 441 41 254 l 41 446 q 429 1074 41 850 q 702 1140 583 1140 l 718 1140 q 734 1144 728 1140 m 545 743 l 545 739 q 846 437 717 562 l 937 524 l 937 532 q 549 743 587 728 l 545 743 m 491 706 l 491 161 q 507 132 491 138 l 524 132 q 813 421 660 262 l 813 425 q 511 727 642 602 q 491 706 500 724 m 884 413 q 975 330 968 330 q 1107 417 1107 395 l 1107 429 q 979 508 1091 448 l 975 508 q 884 413 884 423 m 557 103 l 566 103 q 933 309 914 294 l 850 392 l 846 392 q 557 103 710 261 z "},"6":{"ha":1476,"x_min":34,"x_max":1433,"o":"m 709 1146 l 746 1146 q 1321 827 1090 1146 q 1433 446 1433 633 q 1383 194 1433 352 q 1023 -182 1263 -79 q 729 -249 889 -249 q 162 45 390 -249 q 34 405 34 248 l 34 500 q 133 815 43 643 q 535 1121 274 1035 q 709 1146 625 1146 m 742 865 l 738 844 l 738 546 q 766 471 745 472 l 804 455 l 941 455 l 949 459 q 945 463 949 463 q 949 554 949 536 q 945 674 945 661 q 742 865 755 864 m 315 459 l 323 455 l 630 455 q 721 517 721 455 q 725 530 725 517 l 725 666 l 518 666 q 315 459 315 479 m 514 446 l 514 235 q 713 37 517 227 l 725 37 l 725 178 q 729 227 725 205 q 725 277 725 249 l 725 372 q 659 442 716 442 q 646 446 659 446 l 514 446 m 738 351 l 738 256 l 734 235 l 937 235 q 941 231 941 235 q 1143 430 951 231 l 1143 438 q 1135 446 1143 446 l 821 446 q 746 401 746 433 q 738 351 738 372 z "},"7":{"ha":1474,"x_min":41,"x_max":1433,"o":"m 708 1142 l 753 1142 q 1252 911 1025 1142 q 1433 441 1433 699 q 1231 -44 1433 184 q 918 -226 1066 -191 q 762 -250 880 -238 l 720 -250 q 243 -44 466 -250 q 49 330 102 92 q 41 421 41 404 l 41 471 q 259 953 41 725 q 613 1130 454 1114 q 708 1142 688 1142 m 515 644 l 515 494 l 667 491 l 688 495 l 692 487 l 692 483 q 515 170 515 183 l 515 100 l 642 100 q 700 195 654 107 l 708 199 l 972 199 l 976 207 l 976 351 l 803 351 q 795 359 795 351 q 976 681 976 663 l 976 739 q 968 747 976 747 l 848 747 q 782 644 834 734 l 515 644 z "},"8":{"ha":1465,"x_min":34,"x_max":1430,"o":"m 697 1148 l 776 1148 q 1140 1020 932 1148 q 1430 448 1430 786 q 1124 -128 1430 99 q 730 -248 946 -248 q 121 104 349 -248 q 34 390 43 258 l 34 510 q 125 800 34 621 q 299 999 161 877 q 639 1144 421 1105 q 697 1148 674 1148 m 755 394 l 747 394 q 523 481 523 458 q 440 547 492 547 l 407 547 q 315 460 347 547 l 315 435 q 427 332 315 347 q 494 349 435 332 q 718 270 718 285 q 821 182 762 182 l 854 182 q 962 282 927 182 l 962 319 q 1099 427 1046 403 q 1149 531 1149 480 q 1045 667 1149 625 q 1016 671 1032 667 l 1008 667 l 1000 671 q 879 585 925 671 q 833 427 867 505 q 755 394 784 420 m 991 638 l 1024 638 q 1116 535 1091 638 q 1037 427 1116 460 l 995 427 q 900 518 928 427 l 900 543 q 991 638 916 623 m 929 535 l 929 527 q 995 456 947 456 l 1028 456 q 1082 506 1065 473 l 1082 555 q 1016 610 1054 610 l 1000 610 q 929 535 948 610 m 427 518 q 486 485 456 518 l 477 481 q 440 494 450 494 q 382 435 382 484 l 382 423 q 432 378 382 385 l 432 365 l 419 365 q 349 435 369 365 l 349 444 q 427 518 349 500 m 817 378 l 821 378 q 904 294 904 355 q 829 212 884 212 l 809 212 q 747 257 775 212 l 751 266 q 825 245 806 245 q 879 298 879 259 l 879 311 q 817 365 879 353 l 817 378 z "},"9":{"ha":1461,"x_min":34,"x_max":1421,"o":"m 722 1144 q 1261 893 1042 1144 q 1409 584 1368 774 q 1421 498 1421 520 l 1421 399 q 1269 12 1421 220 q 899 -227 1141 -153 q 754 -248 780 -248 l 713 -248 q 252 -58 470 -248 q 34 448 34 160 q 372 1045 34 817 q 722 1144 551 1144 m 450 514 q 722 49 450 386 l 726 49 q 956 361 867 208 q 1006 494 988 429 l 1006 526 q 829 774 1006 689 q 722 790 772 790 q 462 601 539 790 q 450 514 450 570 m 709 683 l 742 683 q 895 559 837 683 l 899 510 q 771 345 899 394 q 738 341 755 341 l 726 341 q 557 486 597 341 l 557 539 q 627 650 557 586 q 709 683 664 678 z "},"\u0000":{"ha":0,"x_min":0,"x_max":0,"o":""}," ":{"ha":345,"x_min":0,"x_max":0,"o":""},"!":{"ha":977,"x_min":47,"x_max":947,"o":"m 604 1148 q 609 1132 609 1148 q 610 1088 610 1113 l 610 1029 q 601 1017 610 1017 q 586 1015 593 1015 l 580 1015 q 545 1019 549 1015 q 523 1061 536 1027 l 518 1071 q 513 1020 513 1044 l 513 1009 q 509 1005 512 1005 l 508 1005 q 481 1014 499 1005 q 472 1023 472 1020 q 475 1031 474 1031 q 475 1050 475 1043 l 475 1081 q 473 1133 475 1096 q 503 1142 477 1138 l 511 1143 q 519 1128 516 1143 q 549 1081 529 1102 q 559 1069 555 1073 l 559 1069 q 562 1139 561 1095 q 577 1146 562 1146 q 604 1148 580 1146 m 365 1118 q 401 1103 389 1118 q 420 1076 414 1096 q 423 1062 423 1069 l 423 1053 q 420 1018 421 1029 q 400 968 418 1008 q 382 949 397 962 q 358 939 377 943 q 349 937 352 937 l 347 937 q 319 945 333 937 q 302 960 309 949 l 294 981 q 289 1010 289 991 l 289 1028 q 313 1093 289 1076 q 348 1118 336 1118 l 365 1118 m 671 1116 q 696 1112 690 1114 q 753 1093 710 1105 q 769 1081 769 1086 l 769 1080 q 758 1028 760 1031 q 754 1025 758 1025 q 708 1029 750 1025 q 694 917 699 965 q 691 884 693 884 q 689 883 690 884 q 672 894 672 887 l 672 895 q 680 1029 675 983 q 675 1033 680 1033 q 646 1029 667 1033 q 642 1034 642 1031 q 646 1093 642 1058 q 645 1095 645 1095 q 658 1114 645 1112 q 671 1116 659 1114 m 224 1058 q 235 1038 229 1058 q 244 1018 239 1027 l 244 1015 q 208 992 244 1010 l 178 976 l 178 963 q 182 928 178 945 q 231 945 188 928 l 235 945 q 241 926 241 945 q 243 909 243 916 q 220 891 243 906 q 193 881 203 881 q 189 861 189 878 l 189 795 q 193 766 189 788 l 193 755 q 160 734 190 749 q 157 739 157 735 l 157 740 q 161 749 160 743 q 155 770 156 749 q 138 928 148 846 q 130 994 130 972 l 126 1003 q 140 1013 127 1006 q 204 1047 170 1038 q 222 1057 220 1053 q 224 1058 222 1058 m 838 1009 q 847 1005 841 1006 l 848 1003 l 848 1000 q 864 981 864 985 l 864 979 q 850 960 864 977 q 823 932 850 957 q 840 913 823 928 q 860 893 849 903 q 862 888 862 890 l 862 886 q 831 844 862 879 q 774 768 789 789 q 768 766 771 766 q 746 781 753 771 q 745 785 745 781 q 758 804 758 804 q 776 840 763 812 q 798 872 785 854 q 798 873 798 873 q 772 892 796 878 q 751 913 751 909 q 804 974 751 919 q 834 1008 819 990 q 838 1009 836 1009 m 511 980 l 516 980 q 577 966 552 980 q 606 947 593 960 q 623 918 621 929 q 623 916 623 918 l 623 911 l 623 908 q 640 895 627 904 q 660 873 645 886 q 685 836 667 861 q 703 786 703 801 q 706 738 706 773 l 704 706 q 700 701 700 703 l 701 697 l 701 697 q 717 705 709 705 q 739 690 729 705 q 743 675 743 682 q 732 640 743 654 q 728 606 730 634 q 720 592 724 596 l 718 592 q 715 594 715 592 q 711 590 715 594 q 712 584 711 584 l 712 581 l 712 566 l 714 551 q 712 536 714 544 q 731 462 731 477 l 731 458 q 723 363 731 404 q 713 254 713 299 q 712 239 713 254 l 713 239 q 738 241 715 240 q 747 242 738 241 q 754 226 751 242 q 760 200 760 212 l 760 194 q 755 181 759 181 l 736 177 q 690 167 716 172 l 690 166 q 690 144 690 151 l 685 102 q 672 46 672 48 q 665 -26 669 27 q 695 -29 682 -28 q 741 -22 705 -29 q 763 -21 747 -22 q 779 -14 763 -14 q 790 -12 779 -14 l 791 -12 q 803 -18 803 -13 q 817 -56 808 -21 q 821 -73 821 -66 q 811 -92 821 -88 q 805 -94 808 -94 l 802 -94 q 777 -56 788 -94 l 777 -56 q 745 -67 772 -61 q 671 -86 690 -79 q 635 -102 652 -93 q 608 -117 613 -117 q 586 -94 599 -117 q 541 -32 572 -73 q 483 43 494 31 q 475 50 476 50 q 398 -12 442 24 q 351 -43 375 -29 l 298 -87 q 267 -125 273 -111 q 256 -142 262 -130 l 243 -163 q 241 -163 241 -163 q 205 -151 220 -159 q 170 -111 170 -132 q 182 -96 170 -96 q 218 -105 203 -96 l 220 -105 q 229 -96 224 -105 q 248 -56 239 -87 q 265 -5 260 -21 q 296 73 273 15 q 317 140 306 92 q 320 153 318 149 q 316 166 317 153 q 306 229 313 178 q 288 296 301 255 q 284 300 284 296 l 284 302 q 286 302 285 302 q 274 366 281 321 q 271 372 274 366 l 241 372 q 180 380 189 372 q 172 429 178 385 q 166 474 166 462 l 166 481 q 175 560 166 505 q 176 561 176 560 q 163 597 165 578 q 159 621 159 610 q 164 629 159 629 l 166 629 q 177 623 170 629 q 186 611 180 620 q 193 625 188 625 l 195 625 q 200 612 198 625 l 201 612 q 207 617 203 617 q 216 602 212 617 q 227 610 222 610 q 235 598 235 609 l 235 595 q 225 563 235 583 q 216 554 218 555 q 223 477 223 508 l 223 454 q 222 436 223 448 l 222 436 q 254 435 239 435 q 293 435 264 435 q 290 446 290 441 q 279 469 285 446 l 279 471 q 283 489 279 477 q 278 506 278 500 l 278 509 q 282 521 278 515 q 289 545 286 542 l 289 551 l 289 551 q 295 566 289 563 q 300 569 300 567 q 289 624 289 590 l 289 645 q 300 692 289 663 q 303 762 302 703 q 311 810 307 793 q 334 862 326 846 q 351 883 348 882 q 363 899 353 885 q 387 918 385 918 q 384 928 385 921 q 395 947 384 939 q 414 961 401 957 q 462 976 448 972 q 511 980 505 980 m 582 935 l 582 935 l 597 926 l 608 920 q 587 935 599 935 l 582 935 m 419 907 q 391 913 402 907 q 364 890 387 913 q 351 874 362 886 q 337 855 342 862 q 326 829 331 842 q 309 734 309 794 l 309 726 l 309 726 q 327 766 310 734 q 346 774 334 774 q 373 766 363 774 q 377 766 375 766 q 387 766 381 766 q 404 760 404 763 q 408 752 407 760 l 408 749 q 391 735 408 735 q 359 741 361 736 q 345 743 351 743 q 330 734 334 743 q 313 718 315 720 q 305 686 311 701 q 296 651 299 674 q 295 645 296 651 q 305 574 295 586 q 315 547 313 553 q 319 546 316 546 l 320 544 l 320 543 q 319 539 319 539 q 333 523 333 530 q 349 500 338 515 l 359 488 l 376 477 q 382 473 377 477 l 382 473 q 392 496 386 490 q 395 505 394 496 q 404 515 398 512 q 412 527 407 515 q 419 538 412 530 q 422 555 422 544 l 422 560 q 422 581 422 568 q 425 587 422 587 q 429 584 427 587 q 429 581 429 584 q 429 559 429 576 q 425 538 429 545 q 444 553 435 549 q 450 555 446 555 l 450 557 q 449 556 450 556 q 433 565 444 560 q 429 572 429 570 l 429 574 q 439 584 429 581 l 443 584 q 450 579 450 581 l 450 578 q 448 576 450 577 q 442 578 445 576 l 441 578 q 435 573 435 578 q 437 571 436 571 q 442 574 439 574 q 450 569 445 574 q 463 565 456 565 l 464 565 q 486 576 468 565 q 492 578 488 577 q 497 572 495 578 q 504 581 504 575 q 497 595 503 587 q 492 611 496 596 q 486 627 486 621 l 486 628 q 489 632 486 631 q 488 640 488 635 l 489 642 q 487 680 488 665 q 483 702 483 697 q 491 740 483 726 q 511 768 494 748 q 541 788 533 788 q 578 790 541 789 q 633 785 633 789 q 648 768 648 781 q 639 758 645 758 l 639 754 q 619 737 639 747 l 618 736 l 625 724 q 650 696 647 708 q 656 676 656 688 l 656 671 q 659 654 658 667 q 650 630 659 646 q 623 606 631 608 q 564 587 595 587 q 516 605 547 587 q 494 623 501 610 l 494 622 q 502 598 502 603 q 510 581 510 590 q 491 563 510 568 l 490 563 l 481 566 q 477 564 477 564 l 477 564 l 483 564 q 496 554 488 564 q 510 546 505 550 q 518 538 515 546 l 519 538 q 526 537 522 538 q 513 570 521 553 l 513 570 q 516 576 513 574 l 517 576 q 520 573 520 576 l 519 570 q 533 537 528 555 q 538 534 534 535 q 543 528 538 533 q 555 514 547 514 q 559 510 559 513 l 574 515 l 574 515 l 574 516 q 584 532 574 528 l 586 532 q 590 530 587 532 q 603 533 600 533 l 604 533 q 610 531 605 533 q 637 553 629 553 q 645 558 645 553 q 656 570 648 563 q 666 576 656 571 q 677 598 677 589 q 686 623 680 610 l 686 625 q 681 643 685 643 q 673 649 673 648 q 673 651 673 650 q 677 667 673 653 l 677 669 l 675 680 q 676 694 676 692 l 676 699 q 680 707 676 707 q 680 707 680 707 q 684 706 683 706 q 697 711 697 711 q 699 743 699 720 q 688 815 699 791 q 663 857 680 833 q 648 876 652 872 q 635 890 642 880 l 619 902 q 612 910 613 907 q 582 928 594 922 q 568 934 572 934 l 530 918 q 486 910 520 914 q 419 907 444 907 m 589 890 q 615 883 591 890 q 622 878 622 883 l 622 878 q 620 876 622 878 q 591 883 616 876 l 588 883 q 569 881 572 881 l 567 881 q 555 882 560 881 q 550 882 553 882 l 549 883 l 549 886 q 554 888 549 887 q 568 887 566 887 q 589 890 587 890 m 591 865 q 623 852 604 865 q 627 849 627 852 q 623 846 627 847 q 610 853 621 846 q 593 858 599 858 l 589 858 q 548 852 587 858 q 464 848 515 852 q 461 851 461 848 l 461 852 q 478 854 461 854 q 553 859 517 858 q 591 865 585 865 m 652 865 q 657 861 655 865 l 657 859 q 653 857 655 857 q 648 861 648 857 q 652 865 649 865 m 424 854 q 427 851 427 853 q 414 846 427 848 q 374 836 388 836 l 368 836 q 363 839 363 836 q 366 842 364 840 l 371 842 q 410 852 387 842 q 424 854 410 852 m 653 844 q 656 839 656 842 q 653 835 656 836 l 652 835 q 648 838 648 836 q 653 844 650 844 m 576 842 q 623 827 594 842 q 633 823 633 825 l 633 823 q 629 819 633 819 q 596 832 625 819 q 575 836 588 835 q 532 833 538 833 l 531 833 q 528 836 528 833 q 532 839 529 839 q 576 842 570 842 m 671 838 q 675 836 675 837 l 675 834 q 671 829 675 829 q 667 833 667 830 q 671 838 667 838 m 416 829 q 419 826 419 828 q 389 819 419 821 q 348 810 360 814 q 341 805 343 805 l 341 805 q 338 808 339 806 q 382 824 338 819 q 414 829 392 826 q 416 829 414 829 m 661 827 q 664 823 663 827 l 664 822 q 659 818 664 818 q 655 822 655 819 q 661 827 657 827 m 576 823 q 603 818 603 822 q 623 807 612 810 q 635 795 634 800 l 635 795 q 633 793 635 793 l 631 793 q 612 804 621 804 q 597 814 606 807 q 584 816 592 816 l 571 816 q 490 812 504 814 q 487 816 488 812 q 503 820 487 820 q 576 823 504 820 m 678 818 l 679 818 q 684 814 684 817 q 679 810 682 810 l 678 810 q 675 814 675 811 q 678 818 675 816 m 431 811 q 435 808 435 811 l 435 807 q 414 802 435 804 q 401 802 404 802 q 363 792 399 802 q 332 781 349 791 q 328 779 330 779 q 324 783 324 779 q 333 789 325 785 q 378 802 341 795 q 401 808 393 808 l 415 808 l 431 811 m 661 807 q 666 802 666 806 q 661 799 666 800 q 657 801 658 800 l 657 803 q 661 807 658 807 m 674 801 l 675 800 l 677 801 q 680 798 680 800 q 675 793 679 793 l 675 793 q 670 798 670 793 q 674 801 670 800 m 690 791 q 694 786 694 791 q 690 781 693 781 l 688 781 q 684 787 684 781 q 690 791 686 791 m 665 786 q 669 783 668 786 q 665 778 668 778 l 663 778 q 661 781 662 778 l 661 783 q 665 786 663 786 m 676 779 l 679 779 q 681 774 680 779 q 676 768 680 768 q 673 772 673 768 q 676 779 675 779 m 688 767 l 690 767 q 694 764 692 767 l 694 762 q 690 758 694 759 l 688 758 q 686 763 686 760 q 688 767 686 766 m 669 764 l 671 764 q 675 759 675 762 q 670 755 673 755 q 666 761 666 756 q 669 764 666 764 m 481 755 q 484 753 483 755 q 479 743 484 751 q 460 719 471 719 l 458 719 q 443 726 443 721 l 443 726 q 447 729 444 729 q 459 725 455 725 q 475 749 466 725 q 481 755 479 755 m 682 749 l 683 749 q 686 745 686 749 q 682 741 685 741 l 682 741 q 679 745 679 743 q 682 749 679 747 m 693 743 q 696 739 696 742 q 692 734 696 736 q 690 737 690 735 l 690 739 q 693 743 690 743 m 673 740 q 680 734 680 739 q 677 730 679 730 q 670 737 670 730 q 673 740 670 739 m 370 734 l 378 734 q 414 720 397 734 q 437 683 437 705 l 437 677 q 436 663 437 674 q 437 660 437 661 l 437 659 q 435 657 436 657 l 435 654 q 439 644 439 652 l 439 638 q 431 619 439 630 q 420 605 430 612 q 404 595 420 605 q 378 589 387 589 l 371 589 q 326 604 346 589 q 311 614 317 609 q 302 632 307 614 q 300 647 300 642 q 311 689 300 667 l 328 708 q 364 717 336 714 q 401 702 385 717 q 430 673 430 682 l 431 673 l 431 678 l 431 681 q 409 715 431 703 q 374 728 397 728 q 343 721 352 728 q 334 718 336 718 q 332 722 332 720 q 345 729 332 724 q 370 734 352 734 m 690 727 l 691 727 q 698 722 698 726 q 693 719 696 719 q 688 724 688 719 l 688 725 q 690 727 688 726 m 514 646 l 515 643 q 543 657 524 652 q 582 663 558 663 q 614 656 610 661 q 642 646 629 652 l 643 646 q 648 669 648 660 l 648 671 q 650 672 650 672 l 650 675 q 640 702 650 687 q 616 721 629 715 q 593 726 605 726 l 589 726 q 538 702 566 726 q 514 653 515 675 l 514 646 m 680 723 q 684 718 684 721 q 679 713 682 713 q 674 719 674 715 q 680 723 674 723 m 441 715 l 441 715 q 448 704 446 715 q 451 685 451 697 l 451 675 q 450 643 450 646 l 450 641 l 451 638 q 448 635 450 635 l 446 635 q 444 638 444 636 q 445 686 444 657 q 439 713 445 693 q 441 715 439 713 m 306 647 q 312 625 309 625 q 340 644 315 629 q 389 659 351 654 q 404 659 399 659 q 408 659 406 659 l 408 659 q 427 657 411 659 q 428 657 427 657 q 418 681 428 668 q 371 710 385 710 l 361 710 q 331 701 334 707 q 313 677 313 682 q 306 647 306 661 m 475 707 q 477 705 475 707 l 477 699 l 477 698 q 478 677 477 686 q 476 673 477 674 l 475 673 q 471 682 471 673 q 470 699 470 696 q 475 707 470 707 m 587 700 l 587 700 q 612 692 597 700 q 613 690 612 691 l 613 688 q 610 686 612 686 q 589 693 599 693 l 583 693 q 575 692 581 693 q 572 695 572 692 l 572 696 q 587 700 572 699 m 696 683 q 696 669 696 682 q 696 657 696 667 q 707 646 705 657 q 720 610 707 623 l 721 606 q 724 637 722 606 q 725 640 725 637 l 724 640 q 718 652 720 640 q 718 657 718 654 q 726 671 718 665 l 728 675 l 728 676 q 723 682 728 681 q 710 671 715 682 q 707 667 710 667 q 703 671 705 667 q 713 686 703 677 q 723 688 718 688 l 723 688 q 734 675 732 688 q 727 664 731 664 q 725 659 725 661 l 725 654 q 726 644 725 652 l 727 644 q 736 671 736 659 l 736 675 q 732 690 736 683 q 718 698 723 698 l 715 698 q 700 688 711 698 q 696 683 700 687 l 696 683 m 368 692 q 394 682 383 692 l 394 681 q 391 678 394 678 q 371 685 378 685 l 368 685 q 353 680 359 685 q 349 683 349 680 q 368 692 349 690 m 142 659 l 144 659 q 147 656 147 659 q 140 619 140 635 q 147 593 140 604 q 144 591 146 591 q 134 618 136 591 l 134 623 q 142 659 134 640 l 142 659 m 713 659 l 715 659 q 717 656 715 659 l 717 656 q 713 651 717 654 l 713 650 q 721 635 721 638 q 717 630 721 630 l 715 630 q 713 632 715 630 l 713 634 q 715 635 715 635 q 707 648 709 646 l 707 651 q 713 659 709 659 m 231 657 q 249 638 237 656 q 258 606 258 623 l 258 605 q 252 591 258 591 l 252 591 q 250 593 251 591 l 250 595 q 252 606 252 598 q 231 649 252 630 q 229 648 230 648 q 226 652 227 648 q 231 657 227 657 m 601 654 l 601 654 q 605 651 602 654 l 606 651 l 606 654 l 603 654 l 601 654 m 416 652 l 416 651 q 423 627 420 647 l 423 625 q 420 614 423 623 l 422 614 l 431 632 q 433 642 433 636 q 429 649 433 649 l 429 649 q 426 645 429 645 q 422 651 424 645 q 420 652 421 652 l 416 652 m 264 652 q 269 640 267 652 q 273 629 273 635 l 273 627 q 269 623 272 623 l 267 623 q 265 627 265 624 l 267 629 q 262 643 267 631 q 260 649 260 648 q 264 652 260 652 m 612 650 q 610 644 612 646 q 612 632 612 640 l 612 630 q 608 614 612 623 l 609 614 q 629 629 620 618 q 637 642 637 637 q 624 646 629 645 l 624 641 l 625 638 q 622 635 624 636 l 620 635 q 617 643 618 635 l 618 649 q 612 650 614 650 m 537 645 q 537 643 537 645 q 535 640 536 641 l 533 640 q 530 646 530 641 q 529 645 530 645 l 530 644 l 529 641 q 530 635 530 636 q 527 632 530 632 l 526 632 q 523 642 523 633 q 518 637 520 640 l 518 635 q 542 614 538 614 q 547 612 545 612 l 547 612 q 541 631 541 624 q 543 650 541 643 q 537 646 537 649 l 537 645 m 475 648 q 477 644 477 647 l 477 644 q 478 632 477 638 l 477 624 q 481 606 477 622 l 481 603 q 475 589 481 595 l 473 589 q 471 591 473 589 l 471 591 q 474 600 471 593 q 475 605 475 603 q 471 622 471 620 q 472 633 471 623 q 471 643 472 635 q 475 648 471 648 m 112 646 l 115 646 q 117 643 117 645 q 112 625 112 637 q 120 605 113 616 l 120 604 q 117 602 119 602 q 106 625 106 610 l 106 627 q 112 646 106 642 m 348 642 q 350 632 348 640 l 351 632 q 351 643 351 640 q 351 643 351 643 l 351 643 q 348 642 348 642 m 336 633 q 339 626 336 629 l 339 624 q 336 622 338 622 q 330 630 332 622 q 327 627 327 628 q 328 616 328 618 q 325 614 328 614 l 324 614 q 321 624 322 614 q 316 619 316 621 q 356 596 336 601 q 374 595 359 595 l 375 595 l 375 595 q 355 612 365 598 q 351 628 351 623 q 347 627 349 627 q 342 638 344 627 q 336 633 339 636 m 564 632 q 563 628 563 629 q 568 623 567 623 l 569 625 l 569 627 l 564 632 m 82 632 q 84 630 84 631 q 83 621 83 622 q 89 615 83 621 l 89 614 q 85 611 89 611 q 77 621 77 614 l 77 623 q 81 632 77 632 l 82 632 m 373 629 l 373 627 q 379 618 373 618 q 381 621 381 619 l 381 622 q 373 629 381 627 l 373 629 m 439 625 q 441 624 441 625 l 441 622 q 429 602 433 604 q 397 581 414 586 q 364 572 376 572 q 351 576 351 573 l 351 576 q 354 580 351 580 q 362 578 360 578 l 364 578 q 415 597 385 578 q 431 614 431 610 q 437 625 437 625 l 439 625 m 165 623 l 165 620 q 177 571 165 600 q 182 564 182 566 l 181 563 q 202 565 194 565 q 216 561 212 565 q 220 568 216 562 q 229 597 229 585 q 227 604 229 604 l 227 604 q 217 589 220 599 q 214 587 215 587 q 210 600 210 587 l 207 610 q 202 595 205 610 q 201 594 201 594 l 199 594 q 195 605 196 594 q 193 614 195 606 q 191 605 192 614 l 191 593 q 189 591 191 593 l 189 591 q 182 603 184 591 q 165 623 174 620 m 653 611 l 654 611 q 656 608 656 610 q 645 591 656 600 q 618 568 634 578 q 582 560 597 560 l 576 560 q 546 564 547 561 q 545 567 545 566 l 545 568 q 548 570 547 570 q 578 566 557 566 q 620 576 600 566 q 650 608 650 599 q 653 611 650 611 m 445 509 q 443 509 444 509 q 429 493 438 497 q 428 492 428 493 q 439 485 433 485 l 439 485 q 453 492 444 492 q 465 498 460 497 q 473 496 469 496 q 480 503 475 496 q 485 505 483 505 l 485 506 q 476 511 481 506 l 473 510 q 461 515 467 510 q 445 509 452 509 m 491 505 l 491 505 q 496 501 492 505 l 499 502 q 502 500 500 502 l 502 496 q 500 472 502 485 q 502 469 501 469 q 517 483 502 470 q 518 486 518 485 q 517 493 517 492 q 504 500 509 493 q 494 505 496 505 l 491 505 m 425 484 q 424 479 425 484 q 424 477 424 478 q 421 470 422 474 q 435 458 425 470 q 443 454 436 458 q 446 461 446 457 q 439 475 441 461 q 435 477 439 477 q 427 484 435 479 q 426 484 427 484 l 425 484 m 681 417 q 627 417 642 417 q 615 412 621 417 q 608 408 610 409 l 608 407 q 602 382 608 388 q 591 379 597 379 l 591 379 l 591 378 q 579 359 591 365 q 576 353 577 359 q 567 345 574 347 q 552 330 559 345 q 555 325 553 325 q 629 330 591 329 q 660 334 648 333 q 669 336 660 335 q 673 337 670 337 q 673 356 673 352 q 671 385 673 368 q 673 387 671 385 l 674 387 q 679 383 677 387 l 678 380 q 680 356 680 366 l 680 356 q 679 336 680 347 q 682 303 682 315 l 682 286 q 692 286 688 286 l 701 286 q 709 287 704 286 q 718 377 709 309 q 724 420 724 403 l 723 420 q 720 420 720 420 q 681 417 716 420 m 182 402 q 186 384 184 384 q 253 378 195 378 l 262 378 q 273 381 270 378 q 279 377 277 381 l 279 377 q 278 373 278 374 q 289 317 282 362 q 294 302 292 302 l 295 302 q 406 310 323 302 l 406 311 q 408 319 406 313 q 392 329 399 319 q 388 336 389 336 l 387 336 q 384 336 386 336 q 367 347 379 336 q 359 355 364 349 q 338 363 345 357 q 328 380 328 372 l 328 382 q 331 389 328 385 l 331 389 l 320 398 q 315 408 315 404 l 315 409 q 183 403 216 407 q 182 402 183 402 m 841 382 q 855 382 850 382 q 859 368 859 382 q 859 354 859 359 l 860 354 q 867 360 864 360 l 868 360 q 876 347 870 359 q 884 335 884 335 q 899 364 894 345 q 901 366 901 366 l 903 366 q 919 351 908 366 q 920 347 920 349 l 920 345 q 901 288 911 321 q 895 282 899 282 l 895 282 q 868 312 889 282 q 863 319 864 319 q 854 286 856 289 l 851 285 q 836 341 845 285 q 831 370 831 360 q 834 377 831 376 l 835 377 l 837 376 q 841 382 837 381 m 753 361 l 753 361 q 755 359 754 361 q 762 361 755 359 l 762 361 q 768 348 766 361 q 770 332 768 347 q 779 344 777 344 l 779 344 q 788 331 781 343 l 790 329 q 801 359 795 359 l 803 359 q 823 351 823 358 q 823 350 823 351 q 816 319 823 348 q 812 279 814 293 q 801 265 808 265 q 777 298 791 265 l 776 298 q 766 267 766 276 q 762 264 764 264 q 753 300 757 264 q 747 347 747 342 q 749 353 747 351 q 747 357 747 356 l 747 358 q 753 361 749 361 m 177 321 l 178 321 q 191 293 184 315 l 191 290 q 182 283 191 286 q 179 272 179 281 l 179 265 q 191 248 179 251 l 196 248 q 200 244 200 248 l 200 227 q 187 221 195 221 q 158 246 166 221 q 155 266 155 254 q 166 312 155 292 q 177 321 173 321 m 98 319 q 135 301 109 319 q 144 283 144 293 q 126 256 144 264 q 121 254 121 256 q 142 231 142 244 q 121 203 142 212 l 114 203 q 94 211 103 203 l 93 214 l 95 278 l 95 285 q 94 317 95 296 q 98 319 95 319 m 212 316 l 214 316 q 234 308 228 316 q 243 277 238 288 l 246 271 l 246 281 q 244 313 246 291 q 256 316 244 316 q 262 304 261 316 q 275 237 266 271 q 277 231 276 237 q 264 224 277 228 q 260 222 264 223 q 251 234 257 222 q 243 243 244 242 l 243 242 q 245 218 243 239 q 241 216 243 216 l 228 216 l 222 215 l 222 215 q 218 218 219 215 q 214 229 214 218 q 208 310 211 310 l 208 312 q 212 316 208 316 m 682 279 l 682 256 l 681 252 q 682 251 682 251 l 682 250 q 681 248 681 250 q 680 234 680 239 q 685 226 680 228 l 701 222 q 705 226 702 224 q 708 275 708 261 l 708 280 l 698 280 q 682 279 688 280 m 323 216 l 321 216 q 315 216 317 216 l 315 216 q 323 161 319 180 q 348 144 323 154 q 433 130 361 138 l 524 125 q 631 132 589 125 q 682 137 661 137 q 684 145 684 139 q 684 165 684 160 q 655 156 663 162 q 624 148 637 148 q 602 142 610 146 q 588 145 599 144 q 543 164 543 154 q 573 191 546 175 q 589 207 585 203 l 592 207 q 594 203 594 206 q 652 222 604 203 q 667 224 656 222 q 668 224 667 224 q 674 235 671 235 l 674 243 l 675 249 l 674 249 q 511 232 615 241 q 406 223 484 229 q 323 216 383 220 m 675 226 q 671 184 671 206 q 672 179 671 179 q 679 190 676 181 q 679 193 679 191 l 679 197 q 683 201 679 201 q 686 191 686 201 q 690 183 686 186 l 691 183 q 694 191 694 186 l 694 193 q 694 199 694 195 q 697 203 694 203 q 702 194 702 202 q 707 187 705 188 l 708 187 q 711 193 709 187 l 711 197 l 711 201 q 713 204 711 203 l 714 204 q 718 200 718 204 l 718 195 q 723 191 719 191 l 725 193 l 725 197 q 711 218 718 218 q 707 208 711 208 l 706 208 q 703 213 705 208 q 682 220 699 217 q 675 226 677 224 m 725 213 q 731 194 731 202 q 730 189 731 193 q 753 195 753 192 q 750 216 753 210 q 730 215 743 215 q 725 213 730 214 m 589 197 l 588 197 q 561 176 575 184 q 561 174 561 175 l 561 172 q 562 159 561 170 l 562 159 q 595 151 571 154 q 602 150 598 150 q 608 162 607 156 l 608 163 l 606 163 q 602 161 604 161 q 598 164 598 161 q 604 170 598 166 q 606 175 606 174 l 606 176 q 601 178 606 177 q 595 176 597 176 q 593 180 593 178 q 599 184 593 182 q 600 189 600 187 l 600 191 q 595 197 600 195 q 589 197 591 197 m 606 183 q 612 176 612 181 l 612 174 q 610 169 612 172 q 613 165 612 169 q 650 173 650 170 q 665 178 656 176 q 665 183 665 180 l 665 197 l 663 197 q 647 193 661 197 q 612 189 631 190 q 606 184 606 186 q 606 183 606 184 m 682 182 q 682 181 682 182 l 684 181 l 684 181 q 682 182 684 182 m 550 164 q 551 163 550 163 l 551 163 q 550 164 551 164 l 550 164 m 770 -20 l 770 -21 q 777 -35 773 -22 q 779 -43 777 -43 q 783 -48 782 -43 l 782 -50 q 803 -87 792 -87 l 804 -87 q 815 -73 815 -87 q 801 -25 815 -66 q 795 -19 797 -19 l 790 -19 q 770 -20 772 -20 m 901 -28 q 917 -30 911 -29 q 922 -29 920 -29 q 926 -33 926 -30 q 918 -53 926 -35 q 918 -56 918 -53 l 942 -64 q 947 -68 947 -66 l 947 -71 q 930 -132 940 -122 l 928 -132 q 914 -127 919 -127 q 913 -125 913 -126 q 919 -79 916 -94 l 919 -78 q 886 -73 919 -75 q 883 -68 883 -70 l 883 -68 q 899 -29 890 -44 q 901 -28 899 -29 m 860 -75 q 874 -82 874 -77 l 874 -84 q 862 -97 874 -89 q 867 -106 867 -104 q 876 -100 871 -106 q 878 -99 878 -99 q 888 -111 884 -99 l 888 -112 q 876 -125 888 -117 q 880 -136 876 -126 q 889 -127 882 -136 l 891 -127 q 908 -144 908 -143 l 908 -146 q 888 -163 897 -153 q 876 -172 880 -172 q 862 -151 871 -172 q 839 -98 850 -127 q 835 -95 835 -96 l 835 -94 q 852 -79 835 -91 q 860 -75 857 -75 m 176 -109 l 176 -111 q 223 -152 176 -132 q 239 -156 228 -154 q 254 -131 253 -136 q 222 -116 243 -124 q 220 -111 221 -114 l 220 -112 q 203 -105 218 -112 q 187 -103 195 -103 l 179 -103 q 176 -109 176 -104 m 755 -106 q 785 -119 772 -106 q 789 -134 789 -127 q 767 -161 789 -147 l 767 -162 q 802 -184 777 -170 l 803 -186 l 803 -189 q 791 -201 792 -201 l 789 -201 q 760 -191 776 -196 l 762 -216 q 757 -218 760 -218 l 745 -217 q 741 -218 745 -218 q 739 -215 739 -218 l 739 -214 q 741 -172 741 -178 l 741 -163 q 739 -125 741 -160 l 739 -114 q 755 -106 739 -108 m 54 -111 q 71 -118 58 -111 l 71 -119 q 66 -155 71 -125 q 96 -128 90 -129 l 96 -128 q 101 -146 100 -128 l 106 -172 q 127 -144 123 -144 q 138 -157 132 -147 l 138 -159 q 126 -176 138 -161 q 104 -221 114 -197 q 99 -227 103 -227 q 85 -182 93 -227 q 83 -174 83 -177 l 83 -174 q 55 -211 71 -186 l 53 -212 l 53 -212 q 50 -206 50 -212 q 48 -145 50 -201 q 48 -140 48 -144 q 48 -139 48 -139 q 48 -136 48 -136 q 47 -113 48 -130 l 54 -111 m 656 -134 l 658 -134 l 660 -137 l 666 -137 q 680 -136 677 -136 l 682 -136 q 695 -148 690 -136 l 695 -149 q 688 -155 695 -155 q 671 -158 672 -156 q 672 -167 672 -163 l 672 -172 q 673 -172 673 -172 q 691 -170 687 -170 l 695 -170 q 704 -185 704 -170 l 704 -186 q 686 -191 704 -191 l 680 -191 l 681 -196 l 681 -210 q 709 -205 694 -210 l 711 -205 q 720 -224 718 -205 q 720 -227 720 -224 q 713 -231 720 -231 q 692 -231 711 -231 q 665 -234 680 -231 l 661 -234 q 655 -180 657 -234 q 650 -144 650 -149 l 650 -140 q 655 -136 650 -136 q 656 -134 655 -134 m 574 -156 q 576 -159 576 -156 l 582 -159 q 607 -161 585 -159 l 629 -159 q 634 -170 634 -159 q 635 -188 635 -185 q 633 -191 635 -190 l 619 -191 l 616 -191 l 616 -212 l 616 -214 q 616 -215 616 -215 q 616 -224 616 -221 l 616 -236 q 607 -241 616 -241 q 597 -243 600 -243 l 597 -243 q 594 -239 594 -242 l 594 -216 l 594 -214 q 594 -212 594 -212 q 594 -208 594 -210 q 594 -194 594 -199 l 594 -188 q 587 -186 591 -186 l 570 -186 q 567 -183 568 -186 q 570 -160 568 -160 q 572 -157 572 -160 l 574 -156 m 378 -157 q 380 -159 380 -158 l 380 -162 l 385 -185 l 385 -189 q 381 -193 385 -193 l 378 -193 q 360 -202 363 -193 l 359 -206 q 370 -218 359 -214 q 376 -219 373 -219 q 392 -215 386 -219 l 393 -215 q 395 -216 395 -216 l 395 -218 q 394 -224 395 -222 q 395 -230 395 -227 l 395 -240 q 382 -247 395 -245 q 376 -247 380 -247 q 339 -229 354 -247 q 334 -214 334 -221 l 334 -209 q 351 -170 334 -193 q 376 -158 365 -158 q 378 -157 376 -157 m 164 -159 l 165 -159 q 168 -165 167 -159 q 177 -182 177 -171 l 177 -189 q 161 -233 177 -212 q 157 -235 159 -235 l 155 -235 q 142 -207 144 -235 l 142 -205 q 158 -163 142 -178 q 164 -159 158 -160 m 507 -161 l 509 -161 q 511 -161 509 -161 q 513 -161 513 -161 q 519 -161 517 -161 q 545 -161 521 -161 q 552 -176 548 -161 l 552 -178 q 540 -183 552 -183 q 528 -188 529 -187 q 530 -241 528 -198 q 512 -247 530 -247 q 509 -236 509 -247 q 509 -212 509 -226 q 511 -191 509 -203 q 496 -195 499 -195 q 491 -186 491 -195 q 488 -170 491 -181 l 488 -169 q 504 -164 488 -166 l 507 -161 m 408 -162 q 435 -165 435 -164 l 435 -168 q 433 -191 433 -186 l 433 -196 q 441 -211 433 -207 l 441 -211 q 448 -172 447 -208 q 451 -169 450 -169 q 468 -176 468 -173 l 468 -177 q 458 -229 468 -202 q 437 -245 451 -245 q 410 -188 410 -245 q 406 -165 410 -185 l 406 -164 q 408 -162 408 -162 m 268 -163 q 304 -186 281 -164 q 312 -204 312 -197 l 312 -209 q 300 -241 312 -228 q 275 -248 288 -248 q 269 -250 275 -248 l 269 -250 q 264 -234 264 -246 l 264 -233 q 267 -169 264 -203 q 268 -169 268 -169 q 265 -167 265 -168 l 265 -165 q 268 -163 267 -163 m 825 -164 l 825 -164 q 841 -180 841 -168 l 841 -182 q 829 -194 841 -192 q 821 -185 821 -192 l 821 -182 q 823 -166 821 -176 q 825 -164 824 -164 m 214 -177 q 227 -185 218 -177 q 237 -207 237 -199 l 237 -210 q 222 -245 237 -226 q 213 -251 217 -251 l 211 -251 q 201 -237 203 -251 l 201 -232 q 209 -185 201 -205 q 207 -182 207 -185 q 214 -177 210 -177 z "},"\"":{"ha":1470,"x_min":27,"x_max":1423,"o":"m 728 1146 q 1337 790 1109 1146 q 1423 471 1423 627 l 1423 417 q 1204 -64 1423 160 q 748 -250 991 -250 l 703 -250 q 147 52 382 -250 q 27 441 27 244 q 400 1067 27 840 q 728 1146 564 1146 m 363 715 l 363 222 q 591 98 363 207 q 603 102 599 102 l 603 608 l 371 724 q 363 715 363 722 m 707 488 q 860 235 854 250 q 1092 608 863 235 q 860 724 1088 608 l 852 724 q 707 492 835 711 l 707 488 m 628 557 l 628 342 q 719 280 628 313 q 844 218 800 235 q 636 557 653 526 l 628 557 m 872 205 q 1080 98 877 197 q 1092 102 1088 102 l 1092 553 q 872 205 1083 549 z "},"#":{"ha":1461,"x_min":27,"x_max":1419,"o":"m 717 1146 q 1320 807 1088 1146 q 1419 448 1419 628 q 1101 -139 1419 96 q 721 -250 911 -250 q 155 43 380 -250 q 35 320 68 159 q 27 382 35 322 l 27 526 q 93 758 47 651 q 258 968 159 878 q 717 1146 467 1146 m 523 163 q 527 146 523 153 q 523 142 527 142 q 560 93 526 93 l 890 93 q 924 113 913 93 l 924 758 q 866 783 914 783 l 585 783 q 523 733 523 783 l 523 163 m 564 721 l 886 721 q 895 712 895 720 l 895 216 q 886 208 895 208 l 564 208 q 556 216 556 208 l 556 712 q 564 721 557 721 m 721 179 l 730 179 q 750 155 745 172 q 721 130 750 130 q 701 155 701 136 q 721 179 706 172 z "},"$":{"ha":1470,"x_min":34,"x_max":1435,"o":"m 726 1144 q 1307 846 1085 1144 q 1435 439 1435 655 q 1348 108 1435 287 q 942 -224 1206 -136 q 768 -253 834 -253 l 685 -253 q 370 -153 554 -253 q 63 245 155 -25 q 34 427 34 353 l 34 481 q 130 800 34 614 q 560 1123 286 1047 q 726 1144 651 1144 m 730 862 q 411 87 440 169 l 415 87 q 432 83 422 83 l 656 83 l 685 87 l 685 220 q 610 294 685 260 l 606 302 l 606 307 q 623 328 617 327 q 672 294 626 328 l 685 294 l 685 406 q 693 414 686 414 l 755 414 q 768 402 761 414 l 768 353 q 764 348 768 348 q 772 336 768 336 q 825 361 813 361 q 838 348 831 361 l 838 340 q 768 294 832 326 q 764 261 768 261 q 768 249 768 253 q 876 302 778 249 l 884 302 q 896 277 896 298 q 764 199 776 216 l 768 191 l 768 87 l 788 83 l 1050 83 q 1058 91 1058 83 l 734 862 l 730 862 z "},"%":{"ha":1480,"x_min":41,"x_max":1437,"o":"m 681 1144 l 789 1144 q 1107 1041 922 1144 q 1400 665 1317 907 q 1437 450 1437 547 q 1143 -120 1437 115 q 730 -248 956 -248 q 227 -25 447 -248 q 41 454 41 183 q 297 987 41 764 q 615 1136 420 1095 q 681 1144 675 1144 m 450 842 l 450 153 q 623 24 474 125 q 652 16 623 16 q 1115 293 757 83 l 1119 301 l 1119 475 q 1123 479 1119 479 q 1024 528 1123 512 q 718 623 971 549 l 706 623 q 809 433 779 433 q 900 388 899 398 q 491 173 616 231 l 491 178 l 640 318 l 640 781 q 450 842 621 804 z "},"&":{"ha":1423,"x_min":0,"x_max":1388,"o":"m 692 1144 q 1264 844 1034 1144 q 1388 444 1388 663 q 1194 -33 1388 177 q 968 -190 1078 -148 q 725 -248 825 -248 l 659 -248 q 334 -149 524 -248 q 33 234 119 -15 q 0 428 0 327 l 0 473 q 181 918 0 705 q 692 1144 406 1144 m 350 663 q 346 650 350 658 q 350 629 350 643 q 486 564 456 629 q 622 382 622 406 l 622 283 q 601 267 621 278 l 568 267 q 552 263 559 267 l 543 267 q 523 255 523 262 l 523 242 q 531 234 524 234 l 811 234 l 831 238 l 831 267 l 753 267 q 729 329 729 267 l 729 374 q 922 559 729 428 q 1008 601 1008 568 l 741 601 l 741 584 q 827 559 741 572 l 827 555 q 700 440 800 517 q 564 621 696 440 q 572 629 566 629 l 593 629 q 659 642 659 629 l 659 654 l 654 663 l 646 659 l 370 659 l 350 663 m 964 514 l 964 325 l 988 325 q 1038 502 1002 325 l 1034 502 l 964 514 m 956 300 l 951 292 l 951 259 l 992 255 q 1000 292 992 261 q 956 300 979 300 z "},"'":{"ha":1478,"x_min":41,"x_max":1431,"o":"m 746 1146 q 804 1138 804 1144 q 808 1142 808 1138 q 1101 1043 988 1115 q 1407 647 1310 913 q 1431 469 1431 544 l 1431 412 q 1204 -71 1431 163 q 853 -240 1044 -203 q 771 -248 774 -248 l 713 -248 q 276 -75 493 -248 q 41 457 41 144 q 367 1039 41 808 q 746 1146 549 1146 m 449 696 l 449 692 q 511 362 496 362 q 722 296 609 296 l 775 296 q 791 300 784 296 q 795 296 795 300 q 1006 420 1006 324 l 1047 684 l 1047 696 q 804 795 1047 764 q 800 791 800 795 l 758 795 l 738 795 l 696 791 l 696 795 q 449 696 449 765 m 688 746 l 817 746 q 940 709 940 731 l 940 705 q 746 663 926 669 q 560 701 581 669 l 560 709 q 688 746 560 734 m 734 552 l 763 552 q 845 453 827 552 l 845 449 q 750 362 815 362 q 651 465 667 362 q 734 552 680 552 m 701 461 q 750 412 712 412 q 795 449 772 412 l 795 465 q 754 507 786 507 l 742 507 q 701 461 711 507 m 524 296 q 577 144 544 144 q 718 102 647 102 l 779 102 q 952 201 952 118 l 973 292 q 961 309 967 309 q 783 247 867 247 l 722 247 q 540 309 635 247 l 536 309 q 524 296 530 309 z "},"(":{"ha":1458,"x_min":34,"x_max":1417,"o":"m 722 1139 l 726 1139 q 1291 848 1059 1139 q 1417 476 1417 658 l 1417 419 q 1156 -101 1417 130 q 722 -248 960 -248 q 124 100 355 -248 q 34 464 34 262 q 38 476 34 469 q 34 480 38 480 q 87 713 34 570 q 267 963 128 825 q 722 1139 480 1139 m 312 460 l 312 444 q 505 374 492 387 q 570 174 558 186 q 587 170 587 174 q 689 259 600 170 l 697 259 l 865 136 l 893 136 q 987 530 913 136 q 1025 701 1013 627 l 1025 705 q 1004 730 1010 730 q 750 640 972 730 q 320 472 414 513 l 312 460 z "},")":{"ha":1476,"x_min":27,"x_max":1439,"o":"m 733 1146 q 1310 845 1081 1146 q 1439 444 1439 652 q 1118 -149 1439 79 q 946 -224 996 -224 l 930 -203 l 930 -24 q 892 56 927 9 q 1105 139 1038 80 q 1193 373 1193 229 l 1193 423 q 1139 557 1186 483 q 1126 570 1133 557 q 1139 641 1139 610 l 1139 649 q 1109 749 1129 749 q 934 678 1041 749 q 808 699 845 699 l 717 699 q 595 678 695 699 q 416 749 494 749 q 391 645 398 723 l 391 636 q 403 570 403 574 q 336 382 336 481 q 487 102 336 178 q 625 60 535 73 l 637 60 l 637 52 q 595 -36 613 25 q 512 -49 559 -49 l 507 -49 q 382 56 446 -49 q 294 94 337 94 l 273 85 q 336 18 273 73 q 395 -86 351 2 q 537 -132 440 -132 q 595 -128 563 -128 l 600 -136 l 600 -216 q 578 -250 578 -241 q 174 14 305 -173 q 27 440 27 208 q 374 1050 27 815 q 733 1146 554 1146 z "},"*":{"ha":977,"x_min":47,"x_max":947,"o":"m 604 1148 q 609 1132 609 1148 q 610 1088 610 1113 l 610 1029 q 601 1017 610 1017 q 586 1015 593 1015 l 580 1015 q 545 1019 549 1015 q 523 1061 536 1027 l 518 1071 q 513 1020 513 1044 l 513 1009 q 509 1005 512 1005 l 508 1005 q 481 1014 499 1005 q 472 1023 472 1020 q 475 1031 474 1031 q 475 1050 475 1043 l 475 1081 q 473 1133 475 1096 q 503 1142 477 1138 l 511 1143 q 519 1128 516 1143 q 549 1081 529 1102 q 559 1069 555 1073 l 559 1069 q 562 1139 561 1095 q 577 1146 562 1146 q 604 1148 580 1146 m 365 1118 q 401 1103 389 1118 q 420 1076 414 1096 q 423 1062 423 1069 l 423 1053 q 420 1018 421 1029 q 400 968 418 1008 q 382 949 397 962 q 358 939 377 943 q 349 937 352 937 l 347 937 q 319 945 333 937 q 302 960 309 949 l 294 981 q 289 1010 289 991 l 289 1028 q 313 1093 289 1076 q 348 1118 336 1118 l 365 1118 m 671 1116 q 696 1112 690 1114 q 753 1093 710 1105 q 769 1081 769 1086 l 769 1080 q 758 1028 760 1031 q 754 1025 758 1025 q 708 1029 750 1025 q 694 917 699 965 q 691 884 693 884 q 689 883 690 884 q 672 894 672 887 l 672 895 q 680 1029 675 983 q 675 1033 680 1033 q 646 1029 667 1033 q 642 1034 642 1031 q 646 1093 642 1058 q 645 1095 645 1095 q 658 1114 645 1112 q 671 1116 659 1114 m 224 1058 q 235 1038 229 1058 q 244 1018 239 1027 l 244 1015 q 208 992 244 1010 l 178 976 l 178 963 q 182 928 178 945 q 231 945 188 928 l 235 945 q 241 926 241 945 q 243 909 243 916 q 220 891 243 906 q 193 881 203 881 q 189 861 189 878 l 189 795 q 193 766 189 788 l 193 755 q 160 734 190 749 q 157 739 157 735 l 157 740 q 161 749 160 743 q 155 770 156 749 q 138 928 148 846 q 130 994 130 972 l 126 1003 q 140 1013 127 1006 q 204 1047 170 1038 q 222 1057 220 1053 q 224 1058 222 1058 m 838 1009 q 847 1005 841 1006 l 848 1003 l 848 1000 q 864 981 864 985 l 864 979 q 850 960 864 977 q 823 932 850 957 q 840 913 823 928 q 860 893 849 903 q 862 888 862 890 l 862 886 q 831 844 862 879 q 774 768 789 789 q 768 766 771 766 q 746 781 753 771 q 745 785 745 781 q 758 804 758 804 q 776 840 763 812 q 798 872 785 854 q 798 873 798 873 q 772 892 796 878 q 751 913 751 909 q 804 974 751 919 q 834 1008 819 990 q 838 1009 836 1009 m 511 980 l 516 980 q 577 966 552 980 q 606 947 593 960 q 623 918 621 929 q 623 916 623 918 l 623 911 l 623 908 q 640 895 627 904 q 660 873 645 886 q 685 836 667 861 q 703 786 703 801 q 706 738 706 773 l 704 706 q 700 701 700 703 l 701 697 l 701 697 q 717 705 709 705 q 739 690 729 705 q 743 675 743 682 q 732 640 743 654 q 728 606 730 634 q 720 592 724 596 l 718 592 q 715 594 715 592 q 711 590 715 594 q 712 584 711 584 l 712 581 l 712 566 l 714 551 q 712 536 714 544 q 731 462 731 477 l 731 458 q 723 363 731 404 q 713 254 713 299 q 712 239 713 254 l 713 239 q 738 241 715 240 q 747 242 738 241 q 754 226 751 242 q 760 200 760 212 l 760 194 q 755 181 759 181 l 736 177 q 690 167 716 172 l 690 166 q 690 144 690 151 l 685 102 q 672 46 672 48 q 665 -26 669 27 q 695 -29 682 -28 q 741 -22 705 -29 q 763 -21 747 -22 q 779 -14 763 -14 q 790 -12 779 -14 l 791 -12 q 803 -18 803 -13 q 817 -56 808 -21 q 821 -73 821 -66 q 811 -92 821 -88 q 805 -94 808 -94 l 802 -94 q 777 -56 788 -94 l 777 -56 q 745 -67 772 -61 q 671 -86 690 -79 q 635 -102 652 -93 q 608 -117 613 -117 q 586 -94 599 -117 q 541 -32 572 -73 q 483 43 494 31 q 475 50 476 50 q 398 -12 442 24 q 351 -43 375 -29 l 298 -87 q 267 -125 273 -111 q 256 -142 262 -130 l 243 -163 q 241 -163 241 -163 q 205 -151 220 -159 q 170 -111 170 -132 q 182 -96 170 -96 q 218 -105 203 -96 l 220 -105 q 229 -96 224 -105 q 248 -56 239 -87 q 265 -5 260 -21 q 296 73 273 15 q 317 140 306 92 q 320 153 318 149 q 316 166 317 153 q 306 229 313 178 q 288 296 301 255 q 284 300 284 296 l 284 302 q 286 302 285 302 q 274 366 281 321 q 271 372 274 366 l 241 372 q 180 380 189 372 q 172 429 178 385 q 166 474 166 462 l 166 481 q 175 560 166 505 q 176 561 176 560 q 163 597 165 578 q 159 621 159 610 q 164 629 159 629 l 166 629 q 177 623 170 629 q 186 611 180 620 q 193 625 188 625 l 195 625 q 200 612 198 625 l 201 612 q 207 617 203 617 q 216 602 212 617 q 227 610 222 610 q 235 598 235 609 l 235 595 q 225 563 235 583 q 216 554 218 555 q 223 477 223 508 l 223 454 q 222 436 223 448 l 222 436 q 254 435 239 435 q 293 435 264 435 q 290 446 290 441 q 279 469 285 446 l 279 471 q 283 489 279 477 q 278 506 278 500 l 278 509 q 282 521 278 515 q 289 545 286 542 l 289 551 l 289 551 q 295 566 289 563 q 300 569 300 567 q 289 624 289 590 l 289 645 q 300 692 289 663 q 303 762 302 703 q 311 810 307 793 q 334 862 326 846 q 351 883 348 882 q 363 899 353 885 q 387 918 385 918 q 384 928 385 921 q 395 947 384 939 q 414 961 401 957 q 462 976 448 972 q 511 980 505 980 m 582 935 l 582 935 l 597 926 l 608 920 q 587 935 599 935 l 582 935 m 419 907 q 391 913 402 907 q 364 890 387 913 q 351 874 362 886 q 337 855 342 862 q 326 829 331 842 q 309 734 309 794 l 309 726 l 309 726 q 327 766 310 734 q 346 774 334 774 q 373 766 363 774 q 377 766 375 766 q 387 766 381 766 q 404 760 404 763 q 408 752 407 760 l 408 749 q 391 735 408 735 q 359 741 361 736 q 345 743 351 743 q 330 734 334 743 q 313 718 315 720 q 305 686 311 701 q 296 651 299 674 q 295 645 296 651 q 305 574 295 586 q 315 547 313 553 q 319 546 316 546 l 320 544 l 320 543 q 319 539 319 539 q 333 523 333 530 q 349 500 338 515 l 359 488 l 376 477 q 382 473 377 477 l 382 473 q 392 496 386 490 q 395 505 394 496 q 404 515 398 512 q 412 527 407 515 q 419 538 412 530 q 422 555 422 544 l 422 560 q 422 581 422 568 q 425 587 422 587 q 429 584 427 587 q 429 581 429 584 q 429 559 429 576 q 425 538 429 545 q 444 553 435 549 q 450 555 446 555 l 450 557 q 449 556 450 556 q 433 565 444 560 q 429 572 429 570 l 429 574 q 439 584 429 581 l 443 584 q 450 579 450 581 l 450 578 q 448 576 450 577 q 442 578 445 576 l 441 578 q 435 573 435 578 q 437 571 436 571 q 442 574 439 574 q 450 569 445 574 q 463 565 456 565 l 464 565 q 486 576 468 565 q 492 578 488 577 q 497 572 495 578 q 504 581 504 575 q 497 595 503 587 q 492 611 496 596 q 486 627 486 621 l 486 628 q 489 632 486 631 q 488 640 488 635 l 489 642 q 487 680 488 665 q 483 702 483 697 q 491 740 483 726 q 511 768 494 748 q 541 788 533 788 q 578 790 541 789 q 633 785 633 789 q 648 768 648 781 q 639 758 645 758 l 639 754 q 619 737 639 747 l 618 736 l 625 724 q 650 696 647 708 q 656 676 656 688 l 656 671 q 659 654 658 667 q 650 630 659 646 q 623 606 631 608 q 564 587 595 587 q 516 605 547 587 q 494 623 501 610 l 494 622 q 502 598 502 603 q 510 581 510 590 q 491 563 510 568 l 490 563 l 481 566 q 477 564 477 564 l 477 564 l 483 564 q 496 554 488 564 q 510 546 505 550 q 518 538 515 546 l 519 538 q 526 537 522 538 q 513 570 521 553 l 513 570 q 516 576 513 574 l 517 576 q 520 573 520 576 l 519 570 q 533 537 528 555 q 538 534 534 535 q 543 528 538 533 q 555 514 547 514 q 559 510 559 513 l 574 515 l 574 515 l 574 516 q 584 532 574 528 l 586 532 q 590 530 587 532 q 603 533 600 533 l 604 533 q 610 531 605 533 q 637 553 629 553 q 645 558 645 553 q 656 570 648 563 q 666 576 656 571 q 677 598 677 589 q 686 623 680 610 l 686 625 q 681 643 685 643 q 673 649 673 648 q 673 651 673 650 q 677 667 673 653 l 677 669 l 675 680 q 676 694 676 692 l 676 699 q 680 707 676 707 q 680 707 680 707 q 684 706 683 706 q 697 711 697 711 q 699 743 699 720 q 688 815 699 791 q 663 857 680 833 q 648 876 652 872 q 635 890 642 880 l 619 902 q 612 910 613 907 q 582 928 594 922 q 568 934 572 934 l 530 918 q 486 910 520 914 q 419 907 444 907 m 589 890 q 615 883 591 890 q 622 878 622 883 l 622 878 q 620 876 622 878 q 591 883 616 876 l 588 883 q 569 881 572 881 l 567 881 q 555 882 560 881 q 550 882 553 882 l 549 883 l 549 886 q 554 888 549 887 q 568 887 566 887 q 589 890 587 890 m 591 865 q 623 852 604 865 q 627 849 627 852 q 623 846 627 847 q 610 853 621 846 q 593 858 599 858 l 589 858 q 548 852 587 858 q 464 848 515 852 q 461 851 461 848 l 461 852 q 478 854 461 854 q 553 859 517 858 q 591 865 585 865 m 652 865 q 657 861 655 865 l 657 859 q 653 857 655 857 q 648 861 648 857 q 652 865 649 865 m 424 854 q 427 851 427 853 q 414 846 427 848 q 374 836 388 836 l 368 836 q 363 839 363 836 q 366 842 364 840 l 371 842 q 410 852 387 842 q 424 854 410 852 m 653 844 q 656 839 656 842 q 653 835 656 836 l 652 835 q 648 838 648 836 q 653 844 650 844 m 576 842 q 623 827 594 842 q 633 823 633 825 l 633 823 q 629 819 633 819 q 596 832 625 819 q 575 836 588 835 q 532 833 538 833 l 531 833 q 528 836 528 833 q 532 839 529 839 q 576 842 570 842 m 671 838 q 675 836 675 837 l 675 834 q 671 829 675 829 q 667 833 667 830 q 671 838 667 838 m 416 829 q 419 826 419 828 q 389 819 419 821 q 348 810 360 814 q 341 805 343 805 l 341 805 q 338 808 339 806 q 382 824 338 819 q 414 829 392 826 q 416 829 414 829 m 661 827 q 664 823 663 827 l 664 822 q 659 818 664 818 q 655 822 655 819 q 661 827 657 827 m 576 823 q 603 818 603 822 q 623 807 612 810 q 635 795 634 800 l 635 795 q 633 793 635 793 l 631 793 q 612 804 621 804 q 597 814 606 807 q 584 816 592 816 l 571 816 q 490 812 504 814 q 487 816 488 812 q 503 820 487 820 q 576 823 504 820 m 678 818 l 679 818 q 684 814 684 817 q 679 810 682 810 l 678 810 q 675 814 675 811 q 678 818 675 816 m 431 811 q 435 808 435 811 l 435 807 q 414 802 435 804 q 401 802 404 802 q 363 792 399 802 q 332 781 349 791 q 328 779 330 779 q 324 783 324 779 q 333 789 325 785 q 378 802 341 795 q 401 808 393 808 l 415 808 l 431 811 m 661 807 q 666 802 666 806 q 661 799 666 800 q 657 801 658 800 l 657 803 q 661 807 658 807 m 674 801 l 675 800 l 677 801 q 680 798 680 800 q 675 793 679 793 l 675 793 q 670 798 670 793 q 674 801 670 800 m 690 791 q 694 786 694 791 q 690 781 693 781 l 688 781 q 684 787 684 781 q 690 791 686 791 m 665 786 q 669 783 668 786 q 665 778 668 778 l 663 778 q 661 781 662 778 l 661 783 q 665 786 663 786 m 676 779 l 679 779 q 681 774 680 779 q 676 768 680 768 q 673 772 673 768 q 676 779 675 779 m 688 767 l 690 767 q 694 764 692 767 l 694 762 q 690 758 694 759 l 688 758 q 686 763 686 760 q 688 767 686 766 m 669 764 l 671 764 q 675 759 675 762 q 670 755 673 755 q 666 761 666 756 q 669 764 666 764 m 481 755 q 484 753 483 755 q 479 743 484 751 q 460 719 471 719 l 458 719 q 443 726 443 721 l 443 726 q 447 729 444 729 q 459 725 455 725 q 475 749 466 725 q 481 755 479 755 m 682 749 l 683 749 q 686 745 686 749 q 682 741 685 741 l 682 741 q 679 745 679 743 q 682 749 679 747 m 693 743 q 696 739 696 742 q 692 734 696 736 q 690 737 690 735 l 690 739 q 693 743 690 743 m 673 740 q 680 734 680 739 q 677 730 679 730 q 670 737 670 730 q 673 740 670 739 m 370 734 l 378 734 q 414 720 397 734 q 437 683 437 705 l 437 677 q 436 663 437 674 q 437 660 437 661 l 437 659 q 435 657 436 657 l 435 654 q 439 644 439 652 l 439 638 q 431 619 439 630 q 420 605 430 612 q 404 595 420 605 q 378 589 387 589 l 371 589 q 326 604 346 589 q 311 614 317 609 q 302 632 307 614 q 300 647 300 642 q 311 689 300 667 l 328 708 q 364 717 336 714 q 401 702 385 717 q 430 673 430 682 l 431 673 l 431 678 l 431 681 q 409 715 431 703 q 374 728 397 728 q 343 721 352 728 q 334 718 336 718 q 332 722 332 720 q 345 729 332 724 q 370 734 352 734 m 690 727 l 691 727 q 698 722 698 726 q 693 719 696 719 q 688 724 688 719 l 688 725 q 690 727 688 726 m 514 646 l 515 643 q 543 657 524 652 q 582 663 558 663 q 614 656 610 661 q 642 646 629 652 l 643 646 q 648 669 648 660 l 648 671 q 650 672 650 672 l 650 675 q 640 702 650 687 q 616 721 629 715 q 593 726 605 726 l 589 726 q 538 702 566 726 q 514 653 515 675 l 514 646 m 680 723 q 684 718 684 721 q 679 713 682 713 q 674 719 674 715 q 680 723 674 723 m 441 715 l 441 715 q 448 704 446 715 q 451 685 451 697 l 451 675 q 450 643 450 646 l 450 641 l 451 638 q 448 635 450 635 l 446 635 q 444 638 444 636 q 445 686 444 657 q 439 713 445 693 q 441 715 439 713 m 306 647 q 312 625 309 625 q 340 644 315 629 q 389 659 351 654 q 404 659 399 659 q 408 659 406 659 l 408 659 q 427 657 411 659 q 428 657 427 657 q 418 681 428 668 q 371 710 385 710 l 361 710 q 331 701 334 707 q 313 677 313 682 q 306 647 306 661 m 475 707 q 477 705 475 707 l 477 699 l 477 698 q 478 677 477 686 q 476 673 477 674 l 475 673 q 471 682 471 673 q 470 699 470 696 q 475 707 470 707 m 587 700 l 587 700 q 612 692 597 700 q 613 690 612 691 l 613 688 q 610 686 612 686 q 589 693 599 693 l 583 693 q 575 692 581 693 q 572 695 572 692 l 572 696 q 587 700 572 699 m 696 683 q 696 669 696 682 q 696 657 696 667 q 707 646 705 657 q 720 610 707 623 l 721 606 q 724 637 722 606 q 725 640 725 637 l 724 640 q 718 652 720 640 q 718 657 718 654 q 726 671 718 665 l 728 675 l 728 676 q 723 682 728 681 q 710 671 715 682 q 707 667 710 667 q 703 671 705 667 q 713 686 703 677 q 723 688 718 688 l 723 688 q 734 675 732 688 q 727 664 731 664 q 725 659 725 661 l 725 654 q 726 644 725 652 l 727 644 q 736 671 736 659 l 736 675 q 732 690 736 683 q 718 698 723 698 l 715 698 q 700 688 711 698 q 696 683 700 687 l 696 683 m 368 692 q 394 682 383 692 l 394 681 q 391 678 394 678 q 371 685 378 685 l 368 685 q 353 680 359 685 q 349 683 349 680 q 368 692 349 690 m 142 659 l 144 659 q 147 656 147 659 q 140 619 140 635 q 147 593 140 604 q 144 591 146 591 q 134 618 136 591 l 134 623 q 142 659 134 640 l 142 659 m 713 659 l 715 659 q 717 656 715 659 l 717 656 q 713 651 717 654 l 713 650 q 721 635 721 638 q 717 630 721 630 l 715 630 q 713 632 715 630 l 713 634 q 715 635 715 635 q 707 648 709 646 l 707 651 q 713 659 709 659 m 231 657 q 249 638 237 656 q 258 606 258 623 l 258 605 q 252 591 258 591 l 252 591 q 250 593 251 591 l 250 595 q 252 606 252 598 q 231 649 252 630 q 229 648 230 648 q 226 652 227 648 q 231 657 227 657 m 601 654 l 601 654 q 605 651 602 654 l 606 651 l 606 654 l 603 654 l 601 654 m 416 652 l 416 651 q 423 627 420 647 l 423 625 q 420 614 423 623 l 422 614 l 431 632 q 433 642 433 636 q 429 649 433 649 l 429 649 q 426 645 429 645 q 422 651 424 645 q 420 652 421 652 l 416 652 m 264 652 q 269 640 267 652 q 273 629 273 635 l 273 627 q 269 623 272 623 l 267 623 q 265 627 265 624 l 267 629 q 262 643 267 631 q 260 649 260 648 q 264 652 260 652 m 612 650 q 610 644 612 646 q 612 632 612 640 l 612 630 q 608 614 612 623 l 609 614 q 629 629 620 618 q 637 642 637 637 q 624 646 629 645 l 624 641 l 625 638 q 622 635 624 636 l 620 635 q 617 643 618 635 l 618 649 q 612 650 614 650 m 537 645 q 537 643 537 645 q 535 640 536 641 l 533 640 q 530 646 530 641 q 529 645 530 645 l 530 644 l 529 641 q 530 635 530 636 q 527 632 530 632 l 526 632 q 523 642 523 633 q 518 637 520 640 l 518 635 q 542 614 538 614 q 547 612 545 612 l 547 612 q 541 631 541 624 q 543 650 541 643 q 537 646 537 649 l 537 645 m 475 648 q 477 644 477 647 l 477 644 q 478 632 477 638 l 477 624 q 481 606 477 622 l 481 603 q 475 589 481 595 l 473 589 q 471 591 473 589 l 471 591 q 474 600 471 593 q 475 605 475 603 q 471 622 471 620 q 472 633 471 623 q 471 643 472 635 q 475 648 471 648 m 112 646 l 115 646 q 117 643 117 645 q 112 625 112 637 q 120 605 113 616 l 120 604 q 117 602 119 602 q 106 625 106 610 l 106 627 q 112 646 106 642 m 348 642 q 350 632 348 640 l 351 632 q 351 643 351 640 q 351 643 351 643 l 351 643 q 348 642 348 642 m 336 633 q 339 626 336 629 l 339 624 q 336 622 338 622 q 330 630 332 622 q 327 627 327 628 q 328 616 328 618 q 325 614 328 614 l 324 614 q 321 624 322 614 q 316 619 316 621 q 356 596 336 601 q 374 595 359 595 l 375 595 l 375 595 q 355 612 365 598 q 351 628 351 623 q 347 627 349 627 q 342 638 344 627 q 336 633 339 636 m 564 632 q 563 628 563 629 q 568 623 567 623 l 569 625 l 569 627 l 564 632 m 82 632 q 84 630 84 631 q 83 621 83 622 q 89 615 83 621 l 89 614 q 85 611 89 611 q 77 621 77 614 l 77 623 q 81 632 77 632 l 82 632 m 373 629 l 373 627 q 379 618 373 618 q 381 621 381 619 l 381 622 q 373 629 381 627 l 373 629 m 439 625 q 441 624 441 625 l 441 622 q 429 602 433 604 q 397 581 414 586 q 364 572 376 572 q 351 576 351 573 l 351 576 q 354 580 351 580 q 362 578 360 578 l 364 578 q 415 597 385 578 q 431 614 431 610 q 437 625 437 625 l 439 625 m 165 623 l 165 620 q 177 571 165 600 q 182 564 182 566 l 181 563 q 202 565 194 565 q 216 561 212 565 q 220 568 216 562 q 229 597 229 585 q 227 604 229 604 l 227 604 q 217 589 220 599 q 214 587 215 587 q 210 600 210 587 l 207 610 q 202 595 205 610 q 201 594 201 594 l 199 594 q 195 605 196 594 q 193 614 195 606 q 191 605 192 614 l 191 593 q 189 591 191 593 l 189 591 q 182 603 184 591 q 165 623 174 620 m 653 611 l 654 611 q 656 608 656 610 q 645 591 656 600 q 618 568 634 578 q 582 560 597 560 l 576 560 q 546 564 547 561 q 545 567 545 566 l 545 568 q 548 570 547 570 q 578 566 557 566 q 620 576 600 566 q 650 608 650 599 q 653 611 650 611 m 445 509 q 443 509 444 509 q 429 493 438 497 q 428 492 428 493 q 439 485 433 485 l 439 485 q 453 492 444 492 q 465 498 460 497 q 473 496 469 496 q 480 503 475 496 q 485 505 483 505 l 485 506 q 476 511 481 506 l 473 510 q 461 515 467 510 q 445 509 452 509 m 491 505 l 491 505 q 496 501 492 505 l 499 502 q 502 500 500 502 l 502 496 q 500 472 502 485 q 502 469 501 469 q 517 483 502 470 q 518 486 518 485 q 517 493 517 492 q 504 500 509 493 q 494 505 496 505 l 491 505 m 425 484 q 424 479 425 484 q 424 477 424 478 q 421 470 422 474 q 435 458 425 470 q 443 454 436 458 q 446 461 446 457 q 439 475 441 461 q 435 477 439 477 q 427 484 435 479 q 426 484 427 484 l 425 484 m 681 417 q 627 417 642 417 q 615 412 621 417 q 608 408 610 409 l 608 407 q 602 382 608 388 q 591 379 597 379 l 591 379 l 591 378 q 579 359 591 365 q 576 353 577 359 q 567 345 574 347 q 552 330 559 345 q 555 325 553 325 q 629 330 591 329 q 660 334 648 333 q 669 336 660 335 q 673 337 670 337 q 673 356 673 352 q 671 385 673 368 q 673 387 671 385 l 674 387 q 679 383 677 387 l 678 380 q 680 356 680 366 l 680 356 q 679 336 680 347 q 682 303 682 315 l 682 286 q 692 286 688 286 l 701 286 q 709 287 704 286 q 718 377 709 309 q 724 420 724 403 l 723 420 q 720 420 720 420 q 681 417 716 420 m 182 402 q 186 384 184 384 q 253 378 195 378 l 262 378 q 273 381 270 378 q 279 377 277 381 l 279 377 q 278 373 278 374 q 289 317 282 362 q 294 302 292 302 l 295 302 q 406 310 323 302 l 406 311 q 408 319 406 313 q 392 329 399 319 q 388 336 389 336 l 387 336 q 384 336 386 336 q 367 347 379 336 q 359 355 364 349 q 338 363 345 357 q 328 380 328 372 l 328 382 q 331 389 328 385 l 331 389 l 320 398 q 315 408 315 404 l 315 409 q 183 403 216 407 q 182 402 183 402 m 841 382 q 855 382 850 382 q 859 368 859 382 q 859 354 859 359 l 860 354 q 867 360 864 360 l 868 360 q 876 347 870 359 q 884 335 884 335 q 899 364 894 345 q 901 366 901 366 l 903 366 q 919 351 908 366 q 920 347 920 349 l 920 345 q 901 288 911 321 q 895 282 899 282 l 895 282 q 868 312 889 282 q 863 319 864 319 q 854 286 856 289 l 851 285 q 836 341 845 285 q 831 370 831 360 q 834 377 831 376 l 835 377 l 837 376 q 841 382 837 381 m 753 361 l 753 361 q 755 359 754 361 q 762 361 755 359 l 762 361 q 768 348 766 361 q 770 332 768 347 q 779 344 777 344 l 779 344 q 788 331 781 343 l 790 329 q 801 359 795 359 l 803 359 q 823 351 823 358 q 823 350 823 351 q 816 319 823 348 q 812 279 814 293 q 801 265 808 265 q 777 298 791 265 l 776 298 q 766 267 766 276 q 762 264 764 264 q 753 300 757 264 q 747 347 747 342 q 749 353 747 351 q 747 357 747 356 l 747 358 q 753 361 749 361 m 177 321 l 178 321 q 191 293 184 315 l 191 290 q 182 283 191 286 q 179 272 179 281 l 179 265 q 191 248 179 251 l 196 248 q 200 244 200 248 l 200 227 q 187 221 195 221 q 158 246 166 221 q 155 266 155 254 q 166 312 155 292 q 177 321 173 321 m 98 319 q 135 301 109 319 q 144 283 144 293 q 126 256 144 264 q 121 254 121 256 q 142 231 142 244 q 121 203 142 212 l 114 203 q 94 211 103 203 l 93 214 l 95 278 l 95 285 q 94 317 95 296 q 98 319 95 319 m 212 316 l 214 316 q 234 308 228 316 q 243 277 238 288 l 246 271 l 246 281 q 244 313 246 291 q 256 316 244 316 q 262 304 261 316 q 275 237 266 271 q 277 231 276 237 q 264 224 277 228 q 260 222 264 223 q 251 234 257 222 q 243 243 244 242 l 243 242 q 245 218 243 239 q 241 216 243 216 l 228 216 l 222 215 l 222 215 q 218 218 219 215 q 214 229 214 218 q 208 310 211 310 l 208 312 q 212 316 208 316 m 682 279 l 682 256 l 681 252 q 682 251 682 251 l 682 250 q 681 248 681 250 q 680 234 680 239 q 685 226 680 228 l 701 222 q 705 226 702 224 q 708 275 708 261 l 708 280 l 698 280 q 682 279 688 280 m 323 216 l 321 216 q 315 216 317 216 l 315 216 q 323 161 319 180 q 348 144 323 154 q 433 130 361 138 l 524 125 q 631 132 589 125 q 682 137 661 137 q 684 145 684 139 q 684 165 684 160 q 655 156 663 162 q 624 148 637 148 q 602 142 610 146 q 588 145 599 144 q 543 164 543 154 q 573 191 546 175 q 589 207 585 203 l 592 207 q 594 203 594 206 q 652 222 604 203 q 667 224 656 222 q 668 224 667 224 q 674 235 671 235 l 674 243 l 675 249 l 674 249 q 511 232 615 241 q 406 223 484 229 q 323 216 383 220 m 675 226 q 671 184 671 206 q 672 179 671 179 q 679 190 676 181 q 679 193 679 191 l 679 197 q 683 201 679 201 q 686 191 686 201 q 690 183 686 186 l 691 183 q 694 191 694 186 l 694 193 q 694 199 694 195 q 697 203 694 203 q 702 194 702 202 q 707 187 705 188 l 708 187 q 711 193 709 187 l 711 197 l 711 201 q 713 204 711 203 l 714 204 q 718 200 718 204 l 718 195 q 723 191 719 191 l 725 193 l 725 197 q 711 218 718 218 q 707 208 711 208 l 706 208 q 703 213 705 208 q 682 220 699 217 q 675 226 677 224 m 725 213 q 731 194 731 202 q 730 189 731 193 q 753 195 753 192 q 750 216 753 210 q 730 215 743 215 q 725 213 730 214 m 589 197 l 588 197 q 561 176 575 184 q 561 174 561 175 l 561 172 q 562 159 561 170 l 562 159 q 595 151 571 154 q 602 150 598 150 q 608 162 607 156 l 608 163 l 606 163 q 602 161 604 161 q 598 164 598 161 q 604 170 598 166 q 606 175 606 174 l 606 176 q 601 178 606 177 q 595 176 597 176 q 593 180 593 178 q 599 184 593 182 q 600 189 600 187 l 600 191 q 595 197 600 195 q 589 197 591 197 m 606 183 q 612 176 612 181 l 612 174 q 610 169 612 172 q 613 165 612 169 q 650 173 650 170 q 665 178 656 176 q 665 183 665 180 l 665 197 l 663 197 q 647 193 661 197 q 612 189 631 190 q 606 184 606 186 q 606 183 606 184 m 682 182 q 682 181 682 182 l 684 181 l 684 181 q 682 182 684 182 m 550 164 q 551 163 550 163 l 551 163 q 550 164 551 164 l 550 164 m 770 -20 l 770 -21 q 777 -35 773 -22 q 779 -43 777 -43 q 783 -48 782 -43 l 782 -50 q 803 -87 792 -87 l 804 -87 q 815 -73 815 -87 q 801 -25 815 -66 q 795 -19 797 -19 l 790 -19 q 770 -20 772 -20 m 901 -28 q 917 -30 911 -29 q 922 -29 920 -29 q 926 -33 926 -30 q 918 -53 926 -35 q 918 -56 918 -53 l 942 -64 q 947 -68 947 -66 l 947 -71 q 930 -132 940 -122 l 928 -132 q 914 -127 919 -127 q 913 -125 913 -126 q 919 -79 916 -94 l 919 -78 q 886 -73 919 -75 q 883 -68 883 -70 l 883 -68 q 899 -29 890 -44 q 901 -28 899 -29 m 860 -75 q 874 -82 874 -77 l 874 -84 q 862 -97 874 -89 q 867 -106 867 -104 q 876 -100 871 -106 q 878 -99 878 -99 q 888 -111 884 -99 l 888 -112 q 876 -125 888 -117 q 880 -136 876 -126 q 889 -127 882 -136 l 891 -127 q 908 -144 908 -143 l 908 -146 q 888 -163 897 -153 q 876 -172 880 -172 q 862 -151 871 -172 q 839 -98 850 -127 q 835 -95 835 -96 l 835 -94 q 852 -79 835 -91 q 860 -75 857 -75 m 176 -109 l 176 -111 q 223 -152 176 -132 q 239 -156 228 -154 q 254 -131 253 -136 q 222 -116 243 -124 q 220 -111 221 -114 l 220 -112 q 203 -105 218 -112 q 187 -103 195 -103 l 179 -103 q 176 -109 176 -104 m 755 -106 q 785 -119 772 -106 q 789 -134 789 -127 q 767 -161 789 -147 l 767 -162 q 802 -184 777 -170 l 803 -186 l 803 -189 q 791 -201 792 -201 l 789 -201 q 760 -191 776 -196 l 762 -216 q 757 -218 760 -218 l 745 -217 q 741 -218 745 -218 q 739 -215 739 -218 l 739 -214 q 741 -172 741 -178 l 741 -163 q 739 -125 741 -160 l 739 -114 q 755 -106 739 -108 m 54 -111 q 71 -118 58 -111 l 71 -119 q 66 -155 71 -125 q 96 -128 90 -129 l 96 -128 q 101 -146 100 -128 l 106 -172 q 127 -144 123 -144 q 138 -157 132 -147 l 138 -159 q 126 -176 138 -161 q 104 -221 114 -197 q 99 -227 103 -227 q 85 -182 93 -227 q 83 -174 83 -177 l 83 -174 q 55 -211 71 -186 l 53 -212 l 53 -212 q 50 -206 50 -212 q 48 -145 50 -201 q 48 -140 48 -144 q 48 -139 48 -139 q 48 -136 48 -136 q 47 -113 48 -130 l 54 -111 m 656 -134 l 658 -134 l 660 -137 l 666 -137 q 680 -136 677 -136 l 682 -136 q 695 -148 690 -136 l 695 -149 q 688 -155 695 -155 q 671 -158 672 -156 q 672 -167 672 -163 l 672 -172 q 673 -172 673 -172 q 691 -170 687 -170 l 695 -170 q 704 -185 704 -170 l 704 -186 q 686 -191 704 -191 l 680 -191 l 681 -196 l 681 -210 q 709 -205 694 -210 l 711 -205 q 720 -224 718 -205 q 720 -227 720 -224 q 713 -231 720 -231 q 692 -231 711 -231 q 665 -234 680 -231 l 661 -234 q 655 -180 657 -234 q 650 -144 650 -149 l 650 -140 q 655 -136 650 -136 q 656 -134 655 -134 m 574 -156 q 576 -159 576 -156 l 582 -159 q 607 -161 585 -159 l 629 -159 q 634 -170 634 -159 q 635 -188 635 -185 q 633 -191 635 -190 l 619 -191 l 616 -191 l 616 -212 l 616 -214 q 616 -215 616 -215 q 616 -224 616 -221 l 616 -236 q 607 -241 616 -241 q 597 -243 600 -243 l 597 -243 q 594 -239 594 -242 l 594 -216 l 594 -214 q 594 -212 594 -212 q 594 -208 594 -210 q 594 -194 594 -199 l 594 -188 q 587 -186 591 -186 l 570 -186 q 567 -183 568 -186 q 570 -160 568 -160 q 572 -157 572 -160 l 574 -156 m 378 -157 q 380 -159 380 -158 l 380 -162 l 385 -185 l 385 -189 q 381 -193 385 -193 l 378 -193 q 360 -202 363 -193 l 359 -206 q 370 -218 359 -214 q 376 -219 373 -219 q 392 -215 386 -219 l 393 -215 q 395 -216 395 -216 l 395 -218 q 394 -224 395 -222 q 395 -230 395 -227 l 395 -240 q 382 -247 395 -245 q 376 -247 380 -247 q 339 -229 354 -247 q 334 -214 334 -221 l 334 -209 q 351 -170 334 -193 q 376 -158 365 -158 q 378 -157 376 -157 m 164 -159 l 165 -159 q 168 -165 167 -159 q 177 -182 177 -171 l 177 -189 q 161 -233 177 -212 q 157 -235 159 -235 l 155 -235 q 142 -207 144 -235 l 142 -205 q 158 -163 142 -178 q 164 -159 158 -160 m 507 -161 l 509 -161 q 511 -161 509 -161 q 513 -161 513 -161 q 519 -161 517 -161 q 545 -161 521 -161 q 552 -176 548 -161 l 552 -178 q 540 -183 552 -183 q 528 -188 529 -187 q 530 -241 528 -198 q 512 -247 530 -247 q 509 -236 509 -247 q 509 -212 509 -226 q 511 -191 509 -203 q 496 -195 499 -195 q 491 -186 491 -195 q 488 -170 491 -181 l 488 -169 q 504 -164 488 -166 l 507 -161 m 408 -162 q 435 -165 435 -164 l 435 -168 q 433 -191 433 -186 l 433 -196 q 441 -211 433 -207 l 441 -211 q 448 -172 447 -208 q 451 -169 450 -169 q 468 -176 468 -173 l 468 -177 q 458 -229 468 -202 q 437 -245 451 -245 q 410 -188 410 -245 q 406 -165 410 -185 l 406 -164 q 408 -162 408 -162 m 268 -163 q 304 -186 281 -164 q 312 -204 312 -197 l 312 -209 q 300 -241 312 -228 q 275 -248 288 -248 q 269 -250 275 -248 l 269 -250 q 264 -234 264 -246 l 264 -233 q 267 -169 264 -203 q 268 -169 268 -169 q 265 -167 265 -168 l 265 -165 q 268 -163 267 -163 m 825 -164 l 825 -164 q 841 -180 841 -168 l 841 -182 q 829 -194 841 -192 q 821 -185 821 -192 l 821 -182 q 823 -166 821 -176 q 825 -164 824 -164 m 214 -177 q 227 -185 218 -177 q 237 -207 237 -199 l 237 -210 q 222 -245 237 -226 q 213 -251 217 -251 l 211 -251 q 201 -237 203 -251 l 201 -232 q 209 -185 201 -205 q 207 -182 207 -185 q 214 -177 210 -177 z "},"+":{"ha":688,"x_min":0,"x_max":0,"o":""},",":{"ha":378,"x_min":0,"x_max":0,"o":""},"-":{"ha":454,"x_min":0,"x_max":0,"o":""},".":{"ha":378,"x_min":0,"x_max":0,"o":""},"/":{"ha":386,"x_min":0,"x_max":0,"o":""},":":{"ha":378,"x_min":0,"x_max":0,"o":""},";":{"ha":378,"x_min":0,"x_max":0,"o":""},"<":{"ha":688,"x_min":0,"x_max":0,"o":""},"=":{"ha":688,"x_min":0,"x_max":0,"o":""},">":{"ha":688,"x_min":0,"x_max":0,"o":""},"?":{"ha":507,"x_min":0,"x_max":0,"o":""},"@":{"ha":977,"x_min":47,"x_max":947,"o":"m 604 1148 q 609 1132 609 1148 q 610 1088 610 1113 l 610 1029 q 601 1017 610 1017 q 586 1015 593 1015 l 580 1015 q 545 1019 549 1015 q 523 1061 536 1027 l 518 1071 q 513 1020 513 1044 l 513 1009 q 509 1005 512 1005 l 508 1005 q 481 1014 499 1005 q 472 1023 472 1020 q 475 1031 474 1031 q 475 1050 475 1043 l 475 1081 q 473 1133 475 1096 q 503 1142 477 1138 l 511 1143 q 519 1128 516 1143 q 549 1081 529 1102 q 559 1069 555 1073 l 559 1069 q 562 1139 561 1095 q 577 1146 562 1146 q 604 1148 580 1146 m 365 1118 q 401 1103 389 1118 q 420 1076 414 1096 q 423 1062 423 1069 l 423 1053 q 420 1018 421 1029 q 400 968 418 1008 q 382 949 397 962 q 358 939 377 943 q 349 937 352 937 l 347 937 q 319 945 333 937 q 302 960 309 949 l 294 981 q 289 1010 289 991 l 289 1028 q 313 1093 289 1076 q 348 1118 336 1118 l 365 1118 m 671 1116 q 696 1112 690 1114 q 753 1093 710 1105 q 769 1081 769 1086 l 769 1080 q 758 1028 760 1031 q 754 1025 758 1025 q 708 1029 750 1025 q 694 917 699 965 q 691 884 693 884 q 689 883 690 884 q 672 894 672 887 l 672 895 q 680 1029 675 983 q 675 1033 680 1033 q 646 1029 667 1033 q 642 1034 642 1031 q 646 1093 642 1058 q 645 1095 645 1095 q 658 1114 645 1112 q 671 1116 659 1114 m 224 1058 q 235 1038 229 1058 q 244 1018 239 1027 l 244 1015 q 208 992 244 1010 l 178 976 l 178 963 q 182 928 178 945 q 231 945 188 928 l 235 945 q 241 926 241 945 q 243 909 243 916 q 220 891 243 906 q 193 881 203 881 q 189 861 189 878 l 189 795 q 193 766 189 788 l 193 755 q 160 734 190 749 q 157 739 157 735 l 157 740 q 161 749 160 743 q 155 770 156 749 q 138 928 148 846 q 130 994 130 972 l 126 1003 q 140 1013 127 1006 q 204 1047 170 1038 q 222 1057 220 1053 q 224 1058 222 1058 m 838 1009 q 847 1005 841 1006 l 848 1003 l 848 1000 q 864 981 864 985 l 864 979 q 850 960 864 977 q 823 932 850 957 q 840 913 823 928 q 860 893 849 903 q 862 888 862 890 l 862 886 q 831 844 862 879 q 774 768 789 789 q 768 766 771 766 q 746 781 753 771 q 745 785 745 781 q 758 804 758 804 q 776 840 763 812 q 798 872 785 854 q 798 873 798 873 q 772 892 796 878 q 751 913 751 909 q 804 974 751 919 q 834 1008 819 990 q 838 1009 836 1009 m 511 980 l 516 980 q 577 966 552 980 q 606 947 593 960 q 623 918 621 929 q 623 916 623 918 l 623 911 l 623 908 q 640 895 627 904 q 660 873 645 886 q 685 836 667 861 q 703 786 703 801 q 706 738 706 773 l 704 706 q 700 701 700 703 l 701 697 l 701 697 q 717 705 709 705 q 739 690 729 705 q 743 675 743 682 q 732 640 743 654 q 728 606 730 634 q 720 592 724 596 l 718 592 q 715 594 715 592 q 711 590 715 594 q 712 584 711 584 l 712 581 l 712 566 l 714 551 q 712 536 714 544 q 731 462 731 477 l 731 458 q 723 363 731 404 q 713 254 713 299 q 712 239 713 254 l 713 239 q 738 241 715 240 q 747 242 738 241 q 754 226 751 242 q 760 200 760 212 l 760 194 q 755 181 759 181 l 736 177 q 690 167 716 172 l 690 166 q 690 144 690 151 l 685 102 q 672 46 672 48 q 665 -26 669 27 q 695 -29 682 -28 q 741 -22 705 -29 q 763 -21 747 -22 q 779 -14 763 -14 q 790 -12 779 -14 l 791 -12 q 803 -18 803 -13 q 817 -56 808 -21 q 821 -73 821 -66 q 811 -92 821 -88 q 805 -94 808 -94 l 802 -94 q 777 -56 788 -94 l 777 -56 q 745 -67 772 -61 q 671 -86 690 -79 q 635 -102 652 -93 q 608 -117 613 -117 q 586 -94 599 -117 q 541 -32 572 -73 q 483 43 494 31 q 475 50 476 50 q 398 -12 442 24 q 351 -43 375 -29 l 298 -87 q 267 -125 273 -111 q 256 -142 262 -130 l 243 -163 q 241 -163 241 -163 q 205 -151 220 -159 q 170 -111 170 -132 q 182 -96 170 -96 q 218 -105 203 -96 l 220 -105 q 229 -96 224 -105 q 248 -56 239 -87 q 265 -5 260 -21 q 296 73 273 15 q 317 140 306 92 q 320 153 318 149 q 316 166 317 153 q 306 229 313 178 q 288 296 301 255 q 284 300 284 296 l 284 302 q 286 302 285 302 q 274 366 281 321 q 271 372 274 366 l 241 372 q 180 380 189 372 q 172 429 178 385 q 166 474 166 462 l 166 481 q 175 560 166 505 q 176 561 176 560 q 163 597 165 578 q 159 621 159 610 q 164 629 159 629 l 166 629 q 177 623 170 629 q 186 611 180 620 q 193 625 188 625 l 195 625 q 200 612 198 625 l 201 612 q 207 617 203 617 q 216 602 212 617 q 227 610 222 610 q 235 598 235 609 l 235 595 q 225 563 235 583 q 216 554 218 555 q 223 477 223 508 l 223 454 q 222 436 223 448 l 222 436 q 254 435 239 435 q 293 435 264 435 q 290 446 290 441 q 279 469 285 446 l 279 471 q 283 489 279 477 q 278 506 278 500 l 278 509 q 282 521 278 515 q 289 545 286 542 l 289 551 l 289 551 q 295 566 289 563 q 300 569 300 567 q 289 624 289 590 l 289 645 q 300 692 289 663 q 303 762 302 703 q 311 810 307 793 q 334 862 326 846 q 351 883 348 882 q 363 899 353 885 q 387 918 385 918 q 384 928 385 921 q 395 947 384 939 q 414 961 401 957 q 462 976 448 972 q 511 980 505 980 m 582 935 l 582 935 l 597 926 l 608 920 q 587 935 599 935 l 582 935 m 419 907 q 391 913 402 907 q 364 890 387 913 q 351 874 362 886 q 337 855 342 862 q 326 829 331 842 q 309 734 309 794 l 309 726 l 309 726 q 327 766 310 734 q 346 774 334 774 q 373 766 363 774 q 377 766 375 766 q 387 766 381 766 q 404 760 404 763 q 408 752 407 760 l 408 749 q 391 735 408 735 q 359 741 361 736 q 345 743 351 743 q 330 734 334 743 q 313 718 315 720 q 305 686 311 701 q 296 651 299 674 q 295 645 296 651 q 305 574 295 586 q 315 547 313 553 q 319 546 316 546 l 320 544 l 320 543 q 319 539 319 539 q 333 523 333 530 q 349 500 338 515 l 359 488 l 376 477 q 382 473 377 477 l 382 473 q 392 496 386 490 q 395 505 394 496 q 404 515 398 512 q 412 527 407 515 q 419 538 412 530 q 422 555 422 544 l 422 560 q 422 581 422 568 q 425 587 422 587 q 429 584 427 587 q 429 581 429 584 q 429 559 429 576 q 425 538 429 545 q 444 553 435 549 q 450 555 446 555 l 450 557 q 449 556 450 556 q 433 565 444 560 q 429 572 429 570 l 429 574 q 439 584 429 581 l 443 584 q 450 579 450 581 l 450 578 q 448 576 450 577 q 442 578 445 576 l 441 578 q 435 573 435 578 q 437 571 436 571 q 442 574 439 574 q 450 569 445 574 q 463 565 456 565 l 464 565 q 486 576 468 565 q 492 578 488 577 q 497 572 495 578 q 504 581 504 575 q 497 595 503 587 q 492 611 496 596 q 486 627 486 621 l 486 628 q 489 632 486 631 q 488 640 488 635 l 489 642 q 487 680 488 665 q 483 702 483 697 q 491 740 483 726 q 511 768 494 748 q 541 788 533 788 q 578 790 541 789 q 633 785 633 789 q 648 768 648 781 q 639 758 645 758 l 639 754 q 619 737 639 747 l 618 736 l 625 724 q 650 696 647 708 q 656 676 656 688 l 656 671 q 659 654 658 667 q 650 630 659 646 q 623 606 631 608 q 564 587 595 587 q 516 605 547 587 q 494 623 501 610 l 494 622 q 502 598 502 603 q 510 581 510 590 q 491 563 510 568 l 490 563 l 481 566 q 477 564 477 564 l 477 564 l 483 564 q 496 554 488 564 q 510 546 505 550 q 518 538 515 546 l 519 538 q 526 537 522 538 q 513 570 521 553 l 513 570 q 516 576 513 574 l 517 576 q 520 573 520 576 l 519 570 q 533 537 528 555 q 538 534 534 535 q 543 528 538 533 q 555 514 547 514 q 559 510 559 513 l 574 515 l 574 515 l 574 516 q 584 532 574 528 l 586 532 q 590 530 587 532 q 603 533 600 533 l 604 533 q 610 531 605 533 q 637 553 629 553 q 645 558 645 553 q 656 570 648 563 q 666 576 656 571 q 677 598 677 589 q 686 623 680 610 l 686 625 q 681 643 685 643 q 673 649 673 648 q 673 651 673 650 q 677 667 673 653 l 677 669 l 675 680 q 676 694 676 692 l 676 699 q 680 707 676 707 q 680 707 680 707 q 684 706 683 706 q 697 711 697 711 q 699 743 699 720 q 688 815 699 791 q 663 857 680 833 q 648 876 652 872 q 635 890 642 880 l 619 902 q 612 910 613 907 q 582 928 594 922 q 568 934 572 934 l 530 918 q 486 910 520 914 q 419 907 444 907 m 589 890 q 615 883 591 890 q 622 878 622 883 l 622 878 q 620 876 622 878 q 591 883 616 876 l 588 883 q 569 881 572 881 l 567 881 q 555 882 560 881 q 550 882 553 882 l 549 883 l 549 886 q 554 888 549 887 q 568 887 566 887 q 589 890 587 890 m 591 865 q 623 852 604 865 q 627 849 627 852 q 623 846 627 847 q 610 853 621 846 q 593 858 599 858 l 589 858 q 548 852 587 858 q 464 848 515 852 q 461 851 461 848 l 461 852 q 478 854 461 854 q 553 859 517 858 q 591 865 585 865 m 652 865 q 657 861 655 865 l 657 859 q 653 857 655 857 q 648 861 648 857 q 652 865 649 865 m 424 854 q 427 851 427 853 q 414 846 427 848 q 374 836 388 836 l 368 836 q 363 839 363 836 q 366 842 364 840 l 371 842 q 410 852 387 842 q 424 854 410 852 m 653 844 q 656 839 656 842 q 653 835 656 836 l 652 835 q 648 838 648 836 q 653 844 650 844 m 576 842 q 623 827 594 842 q 633 823 633 825 l 633 823 q 629 819 633 819 q 596 832 625 819 q 575 836 588 835 q 532 833 538 833 l 531 833 q 528 836 528 833 q 532 839 529 839 q 576 842 570 842 m 671 838 q 675 836 675 837 l 675 834 q 671 829 675 829 q 667 833 667 830 q 671 838 667 838 m 416 829 q 419 826 419 828 q 389 819 419 821 q 348 810 360 814 q 341 805 343 805 l 341 805 q 338 808 339 806 q 382 824 338 819 q 414 829 392 826 q 416 829 414 829 m 661 827 q 664 823 663 827 l 664 822 q 659 818 664 818 q 655 822 655 819 q 661 827 657 827 m 576 823 q 603 818 603 822 q 623 807 612 810 q 635 795 634 800 l 635 795 q 633 793 635 793 l 631 793 q 612 804 621 804 q 597 814 606 807 q 584 816 592 816 l 571 816 q 490 812 504 814 q 487 816 488 812 q 503 820 487 820 q 576 823 504 820 m 678 818 l 679 818 q 684 814 684 817 q 679 810 682 810 l 678 810 q 675 814 675 811 q 678 818 675 816 m 431 811 q 435 808 435 811 l 435 807 q 414 802 435 804 q 401 802 404 802 q 363 792 399 802 q 332 781 349 791 q 328 779 330 779 q 324 783 324 779 q 333 789 325 785 q 378 802 341 795 q 401 808 393 808 l 415 808 l 431 811 m 661 807 q 666 802 666 806 q 661 799 666 800 q 657 801 658 800 l 657 803 q 661 807 658 807 m 674 801 l 675 800 l 677 801 q 680 798 680 800 q 675 793 679 793 l 675 793 q 670 798 670 793 q 674 801 670 800 m 690 791 q 694 786 694 791 q 690 781 693 781 l 688 781 q 684 787 684 781 q 690 791 686 791 m 665 786 q 669 783 668 786 q 665 778 668 778 l 663 778 q 661 781 662 778 l 661 783 q 665 786 663 786 m 676 779 l 679 779 q 681 774 680 779 q 676 768 680 768 q 673 772 673 768 q 676 779 675 779 m 688 767 l 690 767 q 694 764 692 767 l 694 762 q 690 758 694 759 l 688 758 q 686 763 686 760 q 688 767 686 766 m 669 764 l 671 764 q 675 759 675 762 q 670 755 673 755 q 666 761 666 756 q 669 764 666 764 m 481 755 q 484 753 483 755 q 479 743 484 751 q 460 719 471 719 l 458 719 q 443 726 443 721 l 443 726 q 447 729 444 729 q 459 725 455 725 q 475 749 466 725 q 481 755 479 755 m 682 749 l 683 749 q 686 745 686 749 q 682 741 685 741 l 682 741 q 679 745 679 743 q 682 749 679 747 m 693 743 q 696 739 696 742 q 692 734 696 736 q 690 737 690 735 l 690 739 q 693 743 690 743 m 673 740 q 680 734 680 739 q 677 730 679 730 q 670 737 670 730 q 673 740 670 739 m 370 734 l 378 734 q 414 720 397 734 q 437 683 437 705 l 437 677 q 436 663 437 674 q 437 660 437 661 l 437 659 q 435 657 436 657 l 435 654 q 439 644 439 652 l 439 638 q 431 619 439 630 q 420 605 430 612 q 404 595 420 605 q 378 589 387 589 l 371 589 q 326 604 346 589 q 311 614 317 609 q 302 632 307 614 q 300 647 300 642 q 311 689 300 667 l 328 708 q 364 717 336 714 q 401 702 385 717 q 430 673 430 682 l 431 673 l 431 678 l 431 681 q 409 715 431 703 q 374 728 397 728 q 343 721 352 728 q 334 718 336 718 q 332 722 332 720 q 345 729 332 724 q 370 734 352 734 m 690 727 l 691 727 q 698 722 698 726 q 693 719 696 719 q 688 724 688 719 l 688 725 q 690 727 688 726 m 514 646 l 515 643 q 543 657 524 652 q 582 663 558 663 q 614 656 610 661 q 642 646 629 652 l 643 646 q 648 669 648 660 l 648 671 q 650 672 650 672 l 650 675 q 640 702 650 687 q 616 721 629 715 q 593 726 605 726 l 589 726 q 538 702 566 726 q 514 653 515 675 l 514 646 m 680 723 q 684 718 684 721 q 679 713 682 713 q 674 719 674 715 q 680 723 674 723 m 441 715 l 441 715 q 448 704 446 715 q 451 685 451 697 l 451 675 q 450 643 450 646 l 450 641 l 451 638 q 448 635 450 635 l 446 635 q 444 638 444 636 q 445 686 444 657 q 439 713 445 693 q 441 715 439 713 m 306 647 q 312 625 309 625 q 340 644 315 629 q 389 659 351 654 q 404 659 399 659 q 408 659 406 659 l 408 659 q 427 657 411 659 q 428 657 427 657 q 418 681 428 668 q 371 710 385 710 l 361 710 q 331 701 334 707 q 313 677 313 682 q 306 647 306 661 m 475 707 q 477 705 475 707 l 477 699 l 477 698 q 478 677 477 686 q 476 673 477 674 l 475 673 q 471 682 471 673 q 470 699 470 696 q 475 707 470 707 m 587 700 l 587 700 q 612 692 597 700 q 613 690 612 691 l 613 688 q 610 686 612 686 q 589 693 599 693 l 583 693 q 575 692 581 693 q 572 695 572 692 l 572 696 q 587 700 572 699 m 696 683 q 696 669 696 682 q 696 657 696 667 q 707 646 705 657 q 720 610 707 623 l 721 606 q 724 637 722 606 q 725 640 725 637 l 724 640 q 718 652 720 640 q 718 657 718 654 q 726 671 718 665 l 728 675 l 728 676 q 723 682 728 681 q 710 671 715 682 q 707 667 710 667 q 703 671 705 667 q 713 686 703 677 q 723 688 718 688 l 723 688 q 734 675 732 688 q 727 664 731 664 q 725 659 725 661 l 725 654 q 726 644 725 652 l 727 644 q 736 671 736 659 l 736 675 q 732 690 736 683 q 718 698 723 698 l 715 698 q 700 688 711 698 q 696 683 700 687 l 696 683 m 368 692 q 394 682 383 692 l 394 681 q 391 678 394 678 q 371 685 378 685 l 368 685 q 353 680 359 685 q 349 683 349 680 q 368 692 349 690 m 142 659 l 144 659 q 147 656 147 659 q 140 619 140 635 q 147 593 140 604 q 144 591 146 591 q 134 618 136 591 l 134 623 q 142 659 134 640 l 142 659 m 713 659 l 715 659 q 717 656 715 659 l 717 656 q 713 651 717 654 l 713 650 q 721 635 721 638 q 717 630 721 630 l 715 630 q 713 632 715 630 l 713 634 q 715 635 715 635 q 707 648 709 646 l 707 651 q 713 659 709 659 m 231 657 q 249 638 237 656 q 258 606 258 623 l 258 605 q 252 591 258 591 l 252 591 q 250 593 251 591 l 250 595 q 252 606 252 598 q 231 649 252 630 q 229 648 230 648 q 226 652 227 648 q 231 657 227 657 m 601 654 l 601 654 q 605 651 602 654 l 606 651 l 606 654 l 603 654 l 601 654 m 416 652 l 416 651 q 423 627 420 647 l 423 625 q 420 614 423 623 l 422 614 l 431 632 q 433 642 433 636 q 429 649 433 649 l 429 649 q 426 645 429 645 q 422 651 424 645 q 420 652 421 652 l 416 652 m 264 652 q 269 640 267 652 q 273 629 273 635 l 273 627 q 269 623 272 623 l 267 623 q 265 627 265 624 l 267 629 q 262 643 267 631 q 260 649 260 648 q 264 652 260 652 m 612 650 q 610 644 612 646 q 612 632 612 640 l 612 630 q 608 614 612 623 l 609 614 q 629 629 620 618 q 637 642 637 637 q 624 646 629 645 l 624 641 l 625 638 q 622 635 624 636 l 620 635 q 617 643 618 635 l 618 649 q 612 650 614 650 m 537 645 q 537 643 537 645 q 535 640 536 641 l 533 640 q 530 646 530 641 q 529 645 530 645 l 530 644 l 529 641 q 530 635 530 636 q 527 632 530 632 l 526 632 q 523 642 523 633 q 518 637 520 640 l 518 635 q 542 614 538 614 q 547 612 545 612 l 547 612 q 541 631 541 624 q 543 650 541 643 q 537 646 537 649 l 537 645 m 475 648 q 477 644 477 647 l 477 644 q 478 632 477 638 l 477 624 q 481 606 477 622 l 481 603 q 475 589 481 595 l 473 589 q 471 591 473 589 l 471 591 q 474 600 471 593 q 475 605 475 603 q 471 622 471 620 q 472 633 471 623 q 471 643 472 635 q 475 648 471 648 m 112 646 l 115 646 q 117 643 117 645 q 112 625 112 637 q 120 605 113 616 l 120 604 q 117 602 119 602 q 106 625 106 610 l 106 627 q 112 646 106 642 m 348 642 q 350 632 348 640 l 351 632 q 351 643 351 640 q 351 643 351 643 l 351 643 q 348 642 348 642 m 336 633 q 339 626 336 629 l 339 624 q 336 622 338 622 q 330 630 332 622 q 327 627 327 628 q 328 616 328 618 q 325 614 328 614 l 324 614 q 321 624 322 614 q 316 619 316 621 q 356 596 336 601 q 374 595 359 595 l 375 595 l 375 595 q 355 612 365 598 q 351 628 351 623 q 347 627 349 627 q 342 638 344 627 q 336 633 339 636 m 564 632 q 563 628 563 629 q 568 623 567 623 l 569 625 l 569 627 l 564 632 m 82 632 q 84 630 84 631 q 83 621 83 622 q 89 615 83 621 l 89 614 q 85 611 89 611 q 77 621 77 614 l 77 623 q 81 632 77 632 l 82 632 m 373 629 l 373 627 q 379 618 373 618 q 381 621 381 619 l 381 622 q 373 629 381 627 l 373 629 m 439 625 q 441 624 441 625 l 441 622 q 429 602 433 604 q 397 581 414 586 q 364 572 376 572 q 351 576 351 573 l 351 576 q 354 580 351 580 q 362 578 360 578 l 364 578 q 415 597 385 578 q 431 614 431 610 q 437 625 437 625 l 439 625 m 165 623 l 165 620 q 177 571 165 600 q 182 564 182 566 l 181 563 q 202 565 194 565 q 216 561 212 565 q 220 568 216 562 q 229 597 229 585 q 227 604 229 604 l 227 604 q 217 589 220 599 q 214 587 215 587 q 210 600 210 587 l 207 610 q 202 595 205 610 q 201 594 201 594 l 199 594 q 195 605 196 594 q 193 614 195 606 q 191 605 192 614 l 191 593 q 189 591 191 593 l 189 591 q 182 603 184 591 q 165 623 174 620 m 653 611 l 654 611 q 656 608 656 610 q 645 591 656 600 q 618 568 634 578 q 582 560 597 560 l 576 560 q 546 564 547 561 q 545 567 545 566 l 545 568 q 548 570 547 570 q 578 566 557 566 q 620 576 600 566 q 650 608 650 599 q 653 611 650 611 m 445 509 q 443 509 444 509 q 429 493 438 497 q 428 492 428 493 q 439 485 433 485 l 439 485 q 453 492 444 492 q 465 498 460 497 q 473 496 469 496 q 480 503 475 496 q 485 505 483 505 l 485 506 q 476 511 481 506 l 473 510 q 461 515 467 510 q 445 509 452 509 m 491 505 l 491 505 q 496 501 492 505 l 499 502 q 502 500 500 502 l 502 496 q 500 472 502 485 q 502 469 501 469 q 517 483 502 470 q 518 486 518 485 q 517 493 517 492 q 504 500 509 493 q 494 505 496 505 l 491 505 m 425 484 q 424 479 425 484 q 424 477 424 478 q 421 470 422 474 q 435 458 425 470 q 443 454 436 458 q 446 461 446 457 q 439 475 441 461 q 435 477 439 477 q 427 484 435 479 q 426 484 427 484 l 425 484 m 681 417 q 627 417 642 417 q 615 412 621 417 q 608 408 610 409 l 608 407 q 602 382 608 388 q 591 379 597 379 l 591 379 l 591 378 q 579 359 591 365 q 576 353 577 359 q 567 345 574 347 q 552 330 559 345 q 555 325 553 325 q 629 330 591 329 q 660 334 648 333 q 669 336 660 335 q 673 337 670 337 q 673 356 673 352 q 671 385 673 368 q 673 387 671 385 l 674 387 q 679 383 677 387 l 678 380 q 680 356 680 366 l 680 356 q 679 336 680 347 q 682 303 682 315 l 682 286 q 692 286 688 286 l 701 286 q 709 287 704 286 q 718 377 709 309 q 724 420 724 403 l 723 420 q 720 420 720 420 q 681 417 716 420 m 182 402 q 186 384 184 384 q 253 378 195 378 l 262 378 q 273 381 270 378 q 279 377 277 381 l 279 377 q 278 373 278 374 q 289 317 282 362 q 294 302 292 302 l 295 302 q 406 310 323 302 l 406 311 q 408 319 406 313 q 392 329 399 319 q 388 336 389 336 l 387 336 q 384 336 386 336 q 367 347 379 336 q 359 355 364 349 q 338 363 345 357 q 328 380 328 372 l 328 382 q 331 389 328 385 l 331 389 l 320 398 q 315 408 315 404 l 315 409 q 183 403 216 407 q 182 402 183 402 m 841 382 q 855 382 850 382 q 859 368 859 382 q 859 354 859 359 l 860 354 q 867 360 864 360 l 868 360 q 876 347 870 359 q 884 335 884 335 q 899 364 894 345 q 901 366 901 366 l 903 366 q 919 351 908 366 q 920 347 920 349 l 920 345 q 901 288 911 321 q 895 282 899 282 l 895 282 q 868 312 889 282 q 863 319 864 319 q 854 286 856 289 l 851 285 q 836 341 845 285 q 831 370 831 360 q 834 377 831 376 l 835 377 l 837 376 q 841 382 837 381 m 753 361 l 753 361 q 755 359 754 361 q 762 361 755 359 l 762 361 q 768 348 766 361 q 770 332 768 347 q 779 344 777 344 l 779 344 q 788 331 781 343 l 790 329 q 801 359 795 359 l 803 359 q 823 351 823 358 q 823 350 823 351 q 816 319 823 348 q 812 279 814 293 q 801 265 808 265 q 777 298 791 265 l 776 298 q 766 267 766 276 q 762 264 764 264 q 753 300 757 264 q 747 347 747 342 q 749 353 747 351 q 747 357 747 356 l 747 358 q 753 361 749 361 m 177 321 l 178 321 q 191 293 184 315 l 191 290 q 182 283 191 286 q 179 272 179 281 l 179 265 q 191 248 179 251 l 196 248 q 200 244 200 248 l 200 227 q 187 221 195 221 q 158 246 166 221 q 155 266 155 254 q 166 312 155 292 q 177 321 173 321 m 98 319 q 135 301 109 319 q 144 283 144 293 q 126 256 144 264 q 121 254 121 256 q 142 231 142 244 q 121 203 142 212 l 114 203 q 94 211 103 203 l 93 214 l 95 278 l 95 285 q 94 317 95 296 q 98 319 95 319 m 212 316 l 214 316 q 234 308 228 316 q 243 277 238 288 l 246 271 l 246 281 q 244 313 246 291 q 256 316 244 316 q 262 304 261 316 q 275 237 266 271 q 277 231 276 237 q 264 224 277 228 q 260 222 264 223 q 251 234 257 222 q 243 243 244 242 l 243 242 q 245 218 243 239 q 241 216 243 216 l 228 216 l 222 215 l 222 215 q 218 218 219 215 q 214 229 214 218 q 208 310 211 310 l 208 312 q 212 316 208 316 m 682 279 l 682 256 l 681 252 q 682 251 682 251 l 682 250 q 681 248 681 250 q 680 234 680 239 q 685 226 680 228 l 701 222 q 705 226 702 224 q 708 275 708 261 l 708 280 l 698 280 q 682 279 688 280 m 323 216 l 321 216 q 315 216 317 216 l 315 216 q 323 161 319 180 q 348 144 323 154 q 433 130 361 138 l 524 125 q 631 132 589 125 q 682 137 661 137 q 684 145 684 139 q 684 165 684 160 q 655 156 663 162 q 624 148 637 148 q 602 142 610 146 q 588 145 599 144 q 543 164 543 154 q 573 191 546 175 q 589 207 585 203 l 592 207 q 594 203 594 206 q 652 222 604 203 q 667 224 656 222 q 668 224 667 224 q 674 235 671 235 l 674 243 l 675 249 l 674 249 q 511 232 615 241 q 406 223 484 229 q 323 216 383 220 m 675 226 q 671 184 671 206 q 672 179 671 179 q 679 190 676 181 q 679 193 679 191 l 679 197 q 683 201 679 201 q 686 191 686 201 q 690 183 686 186 l 691 183 q 694 191 694 186 l 694 193 q 694 199 694 195 q 697 203 694 203 q 702 194 702 202 q 707 187 705 188 l 708 187 q 711 193 709 187 l 711 197 l 711 201 q 713 204 711 203 l 714 204 q 718 200 718 204 l 718 195 q 723 191 719 191 l 725 193 l 725 197 q 711 218 718 218 q 707 208 711 208 l 706 208 q 703 213 705 208 q 682 220 699 217 q 675 226 677 224 m 725 213 q 731 194 731 202 q 730 189 731 193 q 753 195 753 192 q 750 216 753 210 q 730 215 743 215 q 725 213 730 214 m 589 197 l 588 197 q 561 176 575 184 q 561 174 561 175 l 561 172 q 562 159 561 170 l 562 159 q 595 151 571 154 q 602 150 598 150 q 608 162 607 156 l 608 163 l 606 163 q 602 161 604 161 q 598 164 598 161 q 604 170 598 166 q 606 175 606 174 l 606 176 q 601 178 606 177 q 595 176 597 176 q 593 180 593 178 q 599 184 593 182 q 600 189 600 187 l 600 191 q 595 197 600 195 q 589 197 591 197 m 606 183 q 612 176 612 181 l 612 174 q 610 169 612 172 q 613 165 612 169 q 650 173 650 170 q 665 178 656 176 q 665 183 665 180 l 665 197 l 663 197 q 647 193 661 197 q 612 189 631 190 q 606 184 606 186 q 606 183 606 184 m 682 182 q 682 181 682 182 l 684 181 l 684 181 q 682 182 684 182 m 550 164 q 551 163 550 163 l 551 163 q 550 164 551 164 l 550 164 m 770 -20 l 770 -21 q 777 -35 773 -22 q 779 -43 777 -43 q 783 -48 782 -43 l 782 -50 q 803 -87 792 -87 l 804 -87 q 815 -73 815 -87 q 801 -25 815 -66 q 795 -19 797 -19 l 790 -19 q 770 -20 772 -20 m 901 -28 q 917 -30 911 -29 q 922 -29 920 -29 q 926 -33 926 -30 q 918 -53 926 -35 q 918 -56 918 -53 l 942 -64 q 947 -68 947 -66 l 947 -71 q 930 -132 940 -122 l 928 -132 q 914 -127 919 -127 q 913 -125 913 -126 q 919 -79 916 -94 l 919 -78 q 886 -73 919 -75 q 883 -68 883 -70 l 883 -68 q 899 -29 890 -44 q 901 -28 899 -29 m 860 -75 q 874 -82 874 -77 l 874 -84 q 862 -97 874 -89 q 867 -106 867 -104 q 876 -100 871 -106 q 878 -99 878 -99 q 888 -111 884 -99 l 888 -112 q 876 -125 888 -117 q 880 -136 876 -126 q 889 -127 882 -136 l 891 -127 q 908 -144 908 -143 l 908 -146 q 888 -163 897 -153 q 876 -172 880 -172 q 862 -151 871 -172 q 839 -98 850 -127 q 835 -95 835 -96 l 835 -94 q 852 -79 835 -91 q 860 -75 857 -75 m 176 -109 l 176 -111 q 223 -152 176 -132 q 239 -156 228 -154 q 254 -131 253 -136 q 222 -116 243 -124 q 220 -111 221 -114 l 220 -112 q 203 -105 218 -112 q 187 -103 195 -103 l 179 -103 q 176 -109 176 -104 m 755 -106 q 785 -119 772 -106 q 789 -134 789 -127 q 767 -161 789 -147 l 767 -162 q 802 -184 777 -170 l 803 -186 l 803 -189 q 791 -201 792 -201 l 789 -201 q 760 -191 776 -196 l 762 -216 q 757 -218 760 -218 l 745 -217 q 741 -218 745 -218 q 739 -215 739 -218 l 739 -214 q 741 -172 741 -178 l 741 -163 q 739 -125 741 -160 l 739 -114 q 755 -106 739 -108 m 54 -111 q 71 -118 58 -111 l 71 -119 q 66 -155 71 -125 q 96 -128 90 -129 l 96 -128 q 101 -146 100 -128 l 106 -172 q 127 -144 123 -144 q 138 -157 132 -147 l 138 -159 q 126 -176 138 -161 q 104 -221 114 -197 q 99 -227 103 -227 q 85 -182 93 -227 q 83 -174 83 -177 l 83 -174 q 55 -211 71 -186 l 53 -212 l 53 -212 q 50 -206 50 -212 q 48 -145 50 -201 q 48 -140 48 -144 q 48 -139 48 -139 q 48 -136 48 -136 q 47 -113 48 -130 l 54 -111 m 656 -134 l 658 -134 l 660 -137 l 666 -137 q 680 -136 677 -136 l 682 -136 q 695 -148 690 -136 l 695 -149 q 688 -155 695 -155 q 671 -158 672 -156 q 672 -167 672 -163 l 672 -172 q 673 -172 673 -172 q 691 -170 687 -170 l 695 -170 q 704 -185 704 -170 l 704 -186 q 686 -191 704 -191 l 680 -191 l 681 -196 l 681 -210 q 709 -205 694 -210 l 711 -205 q 720 -224 718 -205 q 720 -227 720 -224 q 713 -231 720 -231 q 692 -231 711 -231 q 665 -234 680 -231 l 661 -234 q 655 -180 657 -234 q 650 -144 650 -149 l 650 -140 q 655 -136 650 -136 q 656 -134 655 -134 m 574 -156 q 576 -159 576 -156 l 582 -159 q 607 -161 585 -159 l 629 -159 q 634 -170 634 -159 q 635 -188 635 -185 q 633 -191 635 -190 l 619 -191 l 616 -191 l 616 -212 l 616 -214 q 616 -215 616 -215 q 616 -224 616 -221 l 616 -236 q 607 -241 616 -241 q 597 -243 600 -243 l 597 -243 q 594 -239 594 -242 l 594 -216 l 594 -214 q 594 -212 594 -212 q 594 -208 594 -210 q 594 -194 594 -199 l 594 -188 q 587 -186 591 -186 l 570 -186 q 567 -183 568 -186 q 570 -160 568 -160 q 572 -157 572 -160 l 574 -156 m 378 -157 q 380 -159 380 -158 l 380 -162 l 385 -185 l 385 -189 q 381 -193 385 -193 l 378 -193 q 360 -202 363 -193 l 359 -206 q 370 -218 359 -214 q 376 -219 373 -219 q 392 -215 386 -219 l 393 -215 q 395 -216 395 -216 l 395 -218 q 394 -224 395 -222 q 395 -230 395 -227 l 395 -240 q 382 -247 395 -245 q 376 -247 380 -247 q 339 -229 354 -247 q 334 -214 334 -221 l 334 -209 q 351 -170 334 -193 q 376 -158 365 -158 q 378 -157 376 -157 m 164 -159 l 165 -159 q 168 -165 167 -159 q 177 -182 177 -171 l 177 -189 q 161 -233 177 -212 q 157 -235 159 -235 l 155 -235 q 142 -207 144 -235 l 142 -205 q 158 -163 142 -178 q 164 -159 158 -160 m 507 -161 l 509 -161 q 511 -161 509 -161 q 513 -161 513 -161 q 519 -161 517 -161 q 545 -161 521 -161 q 552 -176 548 -161 l 552 -178 q 540 -183 552 -183 q 528 -188 529 -187 q 530 -241 528 -198 q 512 -247 530 -247 q 509 -236 509 -247 q 509 -212 509 -226 q 511 -191 509 -203 q 496 -195 499 -195 q 491 -186 491 -195 q 488 -170 491 -181 l 488 -169 q 504 -164 488 -166 l 507 -161 m 408 -162 q 435 -165 435 -164 l 435 -168 q 433 -191 433 -186 l 433 -196 q 441 -211 433 -207 l 441 -211 q 448 -172 447 -208 q 451 -169 450 -169 q 468 -176 468 -173 l 468 -177 q 458 -229 468 -202 q 437 -245 451 -245 q 410 -188 410 -245 q 406 -165 410 -185 l 406 -164 q 408 -162 408 -162 m 268 -163 q 304 -186 281 -164 q 312 -204 312 -197 l 312 -209 q 300 -241 312 -228 q 275 -248 288 -248 q 269 -250 275 -248 l 269 -250 q 264 -234 264 -246 l 264 -233 q 267 -169 264 -203 q 268 -169 268 -169 q 265 -167 265 -168 l 265 -165 q 268 -163 267 -163 m 825 -164 l 825 -164 q 841 -180 841 -168 l 841 -182 q 829 -194 841 -192 q 821 -185 821 -192 l 821 -182 q 823 -166 821 -176 q 825 -164 824 -164 m 214 -177 q 227 -185 218 -177 q 237 -207 237 -199 l 237 -210 q 222 -245 237 -226 q 213 -251 217 -251 l 211 -251 q 201 -237 203 -251 l 201 -232 q 209 -185 201 -205 q 207 -182 207 -185 q 214 -177 210 -177 z "},"A":{"ha":1476,"x_min":47,"x_max":1440,"o":"m 684 1146 l 684 1142 l 692 1146 l 746 1146 q 1345 803 1113 1146 q 1440 452 1440 627 q 1159 -110 1440 112 q 746 -250 964 -250 l 741 -250 q 176 43 406 -250 q 47 374 74 186 l 47 502 q 159 832 47 636 q 547 1117 293 1036 q 684 1146 605 1134 m 448 538 l 448 514 q 543 366 448 393 l 551 366 q 564 394 564 380 l 564 407 q 523 526 523 492 q 601 688 523 598 q 758 749 687 749 q 948 601 903 749 q 956 538 956 562 l 956 530 q 865 332 956 404 q 812 311 854 324 q 729 390 729 311 q 766 589 766 572 q 729 634 766 618 l 688 634 q 626 530 626 595 l 626 506 q 642 435 626 498 q 581 117 593 212 l 581 76 l 581 22 l 589 22 q 680 204 658 94 q 705 295 695 295 q 804 250 773 250 l 841 250 q 1047 473 994 250 l 1051 530 q 890 779 1051 709 q 754 807 852 795 q 576 758 669 807 q 448 538 448 669 z "},"B":{"ha":1474,"x_min":33,"x_max":1434,"o":"m 734 1146 q 1322 827 1096 1146 q 1434 471 1434 640 l 1434 425 q 1231 -47 1434 180 q 949 -217 1084 -180 q 804 -250 891 -238 l 667 -250 q 439 -189 559 -238 q 83 193 185 -60 q 33 450 33 332 q 298 997 33 759 q 734 1146 503 1146 m 783 562 q 833 574 821 574 q 883 533 883 570 l 883 512 q 775 338 849 389 l 763 338 q 680 653 727 338 q 626 711 650 701 l 576 711 q 390 562 535 699 q 419 524 415 524 l 423 524 l 469 553 l 481 553 q 597 235 521 553 q 688 127 642 127 l 705 127 q 1053 483 843 127 q 1078 591 1078 551 l 1078 608 q 1028 711 1078 687 l 987 724 l 958 724 q 850 677 887 711 q 783 562 796 616 z "},"C":{"ha":1463,"x_min":34,"x_max":1423,"o":"m 714 1146 l 747 1146 q 1184 977 966 1146 q 1382 684 1346 814 q 1415 561 1407 630 q 1423 470 1423 491 l 1423 433 l 1423 404 q 1357 153 1407 254 q 1023 -181 1248 -68 q 734 -248 863 -248 l 726 -248 q 252 -58 467 -248 q 83 190 117 83 q 34 400 46 273 l 34 487 q 211 920 34 700 q 714 1146 443 1146 m 450 701 l 450 676 q 528 614 462 614 q 603 676 583 614 l 603 680 q 524 755 603 744 q 450 701 476 755 m 805 519 l 796 519 l 796 561 l 665 561 l 665 169 q 673 161 666 161 l 788 161 q 796 169 796 161 l 796 379 q 867 466 806 466 q 937 379 937 466 l 937 169 q 945 161 938 161 l 1069 161 l 1069 420 q 1002 549 1069 490 q 941 569 952 569 l 899 569 q 805 519 851 567 m 458 553 l 458 169 q 467 161 460 161 l 582 161 q 590 169 590 161 l 590 545 l 582 561 l 467 561 q 458 553 458 559 z "},"D":{"ha":1458,"x_min":26,"x_max":1421,"o":"m 712 1146 l 741 1146 q 1191 968 974 1146 q 1421 477 1421 734 l 1421 411 q 1306 60 1421 262 q 918 -220 1164 -143 q 728 -249 804 -249 l 724 -249 q 216 -26 440 -249 q 26 448 26 191 q 241 952 26 724 q 712 1146 465 1146 m 753 568 l 753 535 q 745 527 753 527 q 522 618 615 545 l 465 671 l 460 671 q 444 638 460 665 l 444 589 q 501 494 449 547 l 501 490 q 444 506 473 490 l 444 502 q 547 366 444 422 l 538 361 l 518 361 l 497 366 l 497 357 q 617 271 545 271 l 617 258 q 456 209 536 209 l 431 209 l 431 201 q 633 147 548 147 q 939 292 812 147 q 1029 531 1029 418 l 1029 559 q 1096 630 1095 623 l 1096 634 q 1029 613 1072 622 l 1025 622 q 1083 684 1064 644 l 1083 688 l 1079 688 q 1005 659 1018 659 l 993 659 q 910 700 947 696 l 877 700 q 766 622 808 700 q 753 568 753 602 z "},"E":{"ha":1454,"x_min":20,"x_max":1420,"o":"m 699 1145 l 741 1145 q 1230 926 999 1145 q 1408 570 1392 730 q 1420 475 1420 495 l 1420 417 q 1325 94 1420 277 q 931 -221 1187 -133 q 728 -254 802 -254 l 712 -254 q 215 -39 444 -254 q 20 463 20 177 l 20 471 q 24 487 20 480 q 20 492 24 492 q 128 819 47 694 q 526 1117 257 1028 q 699 1145 626 1145 m 604 699 l 608 570 q 596 557 608 564 l 526 557 l 526 413 l 596 413 q 608 400 602 413 l 608 44 l 610 19 l 758 19 l 758 404 q 766 413 759 413 l 886 413 q 907 549 894 413 l 907 557 l 766 557 q 758 566 758 557 l 758 665 q 832 736 758 729 l 915 736 l 915 860 q 828 872 915 872 l 807 872 q 621 765 664 872 q 604 699 612 743 z "},"F":{"ha":1472,"x_min":34,"x_max":1429,"o":"m 711 1145 l 752 1145 q 1243 923 1011 1145 q 1429 460 1429 701 l 1429 440 q 1211 -56 1429 166 q 740 -250 995 -250 l 724 -250 q 228 -35 457 -250 q 47 328 71 146 q 34 419 34 397 l 34 460 q 253 956 34 730 q 711 1145 475 1145 m 459 609 l 459 543 q 740 387 473 541 q 913 481 751 387 l 918 473 l 918 353 q 736 250 791 269 q 566 345 629 321 q 459 288 464 288 l 459 283 l 744 122 l 1029 283 l 1029 609 q 748 774 989 637 l 740 774 q 459 609 459 614 m 748 646 q 855 581 848 590 l 855 572 q 740 514 748 514 q 633 572 665 559 l 633 581 q 744 646 637 591 l 748 646 z "},"G":{"ha":1456,"x_min":27,"x_max":1421,"o":"m 690 1143 l 736 1143 q 1276 870 1038 1143 q 1421 441 1421 665 q 1243 -16 1421 199 q 724 -251 1017 -251 l 720 -251 q 208 -20 429 -251 q 27 429 27 189 l 27 491 q 93 747 30 585 q 258 965 142 849 q 587 1130 404 1089 l 690 1143 m 724 669 l 724 640 l 736 640 q 856 780 856 675 l 856 792 l 847 792 q 736 709 791 792 l 724 669 m 724 598 q 616 627 650 627 q 460 495 501 627 q 452 437 452 464 l 452 421 q 579 140 452 273 q 625 124 602 124 q 728 153 724 153 l 732 153 q 831 128 751 153 l 856 128 q 987 285 920 128 q 991 301 991 292 q 905 441 905 349 q 975 566 905 512 q 856 631 928 631 l 839 631 q 724 598 827 631 z "},"H":{"ha":1456,"x_min":27,"x_max":1419,"o":"m 721 1146 q 1241 915 1010 1146 q 1419 440 1419 707 q 1076 -155 1419 73 q 754 -250 897 -250 l 692 -250 q 370 -155 549 -250 q 27 444 27 71 l 27 448 q 308 1006 27 785 q 721 1146 507 1146 m 465 618 l 465 593 q 585 456 465 497 l 642 456 l 650 452 q 642 419 642 437 q 667 357 642 391 l 523 328 q 415 192 415 279 l 415 176 q 523 68 415 114 q 622 56 587 56 q 857 180 793 56 q 869 221 869 212 l 869 246 q 741 407 869 320 q 729 440 729 428 q 812 539 729 465 q 836 609 836 578 l 836 642 q 774 749 832 692 l 783 754 l 820 754 q 882 783 828 754 l 882 791 q 800 787 826 787 l 721 787 l 696 791 q 465 618 465 763 m 638 758 q 746 646 700 758 q 758 581 750 606 q 680 481 740 481 l 650 481 q 560 572 600 481 q 543 659 543 610 q 638 758 555 758 m 985 576 l 985 490 q 977 481 985 481 l 890 481 l 890 444 q 899 436 892 436 l 977 436 q 985 428 985 435 l 985 341 l 1031 341 l 1031 428 q 1039 436 1032 436 l 1126 436 l 1126 481 l 1039 481 q 1031 490 1031 481 l 1031 568 q 1022 576 1031 576 l 985 576 m 696 328 q 808 201 808 264 q 680 93 808 109 l 663 93 q 494 217 494 109 q 560 304 494 269 q 696 328 602 328 z "},"I":{"ha":1467,"x_min":41,"x_max":1436,"o":"m 707 1144 l 769 1144 q 1287 883 1050 1144 q 1436 444 1436 680 q 1101 -153 1436 81 q 790 -248 920 -248 q 786 -252 790 -252 q 782 -248 782 -252 l 761 -252 q 98 162 311 -252 q 41 427 41 300 l 41 456 q 326 1011 41 786 q 707 1144 516 1144 m 359 602 q 393 498 359 571 q 388 448 388 455 q 587 134 388 237 q 728 100 644 100 l 786 100 q 877 71 865 71 l 922 71 q 1093 183 1015 71 q 1113 254 1113 247 l 1113 303 q 1084 390 1113 336 l 1084 465 q 910 755 1084 636 q 736 796 825 796 q 686 792 730 796 q 566 825 628 825 q 372 684 441 825 q 359 602 359 635 m 732 676 l 745 676 q 906 560 906 659 q 873 523 897 534 l 861 523 q 794 589 833 523 q 732 610 777 606 q 649 560 649 598 q 810 486 649 513 q 926 366 926 450 l 926 357 q 757 220 926 242 l 745 220 q 558 311 602 220 q 550 345 550 327 l 550 361 q 591 394 556 380 q 649 336 619 394 q 724 287 649 304 l 732 291 l 741 287 q 831 345 802 287 q 686 427 831 408 q 558 551 558 459 q 694 672 558 648 q 732 676 710 676 z "},"J":{"ha":1445,"x_min":27,"x_max":1419,"o":"m 709 1144 l 754 1144 q 1204 954 991 1144 q 1390 656 1351 800 q 1419 500 1419 543 l 1419 413 q 1275 20 1419 227 q 721 -248 1046 -248 q 155 45 383 -248 q 27 450 27 231 q 374 1053 27 827 q 709 1144 537 1144 m 535 801 l 535 698 q 511 665 535 675 l 416 665 q 357 603 357 665 q 457 297 382 297 q 659 260 590 260 q 701 347 683 269 l 701 372 l 709 372 l 709 359 q 866 281 709 292 q 911 182 911 262 l 911 161 q 878 111 911 129 l 800 111 q 766 144 766 111 l 766 157 q 829 182 766 174 l 829 235 l 800 235 q 701 169 701 235 q 696 136 696 153 l 696 123 q 804 28 696 28 l 890 28 q 994 107 964 28 q 1044 400 1044 262 q 989 760 1044 760 q 766 785 885 785 q 675 846 741 846 l 606 846 q 535 801 559 846 m 374 682 l 378 682 q 416 690 405 690 l 503 690 q 511 698 511 690 q 507 777 511 711 q 515 818 515 814 l 511 818 q 374 682 504 817 m 882 508 q 924 463 916 508 l 924 458 l 920 450 q 870 458 891 458 l 849 458 q 841 467 841 458 l 841 471 q 882 508 841 504 z "},"K":{"ha":1467,"x_min":27,"x_max":1428,"o":"m 722 1146 l 751 1146 q 1164 994 957 1146 q 1428 448 1428 766 q 1152 -111 1428 117 q 783 -251 946 -251 l 672 -251 q 308 -115 515 -251 q 118 104 149 24 q 27 431 27 275 l 27 473 q 106 770 27 595 q 511 1113 243 1015 q 722 1146 630 1146 m 378 448 q 593 125 378 236 q 692 100 625 112 l 755 100 q 1002 233 882 100 q 1077 427 1077 345 l 1073 435 l 1077 444 l 1073 452 q 1077 456 1073 456 q 932 728 1077 608 q 746 795 828 795 l 709 795 q 436 637 559 795 q 378 448 378 537 m 672 762 l 676 753 q 572 629 653 745 l 568 629 q 498 663 506 647 l 498 671 q 672 762 603 762 m 783 762 q 941 688 851 758 l 961 663 q 878 629 911 629 q 779 758 846 691 q 783 762 783 758 m 709 749 l 713 741 l 713 617 q 701 605 713 611 l 688 605 q 610 621 610 612 q 709 749 610 658 m 746 749 q 850 625 823 680 q 767 605 850 611 l 746 605 q 738 613 738 605 l 738 741 q 746 749 739 749 m 473 637 l 481 637 q 560 601 508 621 l 560 580 q 532 456 541 536 l 523 452 l 420 452 q 408 469 410 452 q 473 637 408 553 m 974 637 l 982 637 q 1048 469 1048 557 l 1048 464 q 1036 452 1048 458 l 932 452 q 911 543 918 452 q 895 601 895 574 q 974 637 954 625 m 597 592 q 713 572 706 578 l 713 464 q 701 452 713 458 l 572 452 q 560 464 570 452 q 597 592 578 592 m 862 592 q 895 464 895 523 q 883 452 895 458 l 751 452 q 738 464 745 452 l 738 568 q 862 592 738 581 m 420 427 l 527 427 q 556 315 533 427 q 564 286 564 315 q 481 250 509 266 q 416 377 454 250 q 408 418 412 385 l 420 427 m 572 427 l 705 427 q 713 418 713 426 l 713 319 q 593 295 713 306 q 564 418 564 358 q 572 427 566 427 m 746 427 l 887 427 q 895 418 895 426 q 854 295 880 310 q 738 315 747 308 l 738 418 q 746 427 739 427 m 1040 427 q 1048 418 1048 426 q 974 250 1048 328 q 891 295 891 286 l 891 299 q 924 427 910 339 l 1040 427 m 692 282 l 701 282 q 713 270 707 282 l 713 154 l 709 146 q 610 266 621 221 q 692 282 615 274 m 746 282 l 759 282 q 846 262 846 277 q 746 142 818 204 q 738 150 738 142 l 738 274 q 746 282 739 282 m 883 262 q 953 224 953 235 l 953 220 q 783 130 900 157 l 783 138 q 883 262 821 173 m 577 258 q 672 138 616 197 l 672 130 q 498 224 555 157 q 577 258 543 258 z "},"L":{"ha":1458,"x_min":34,"x_max":1430,"o":"m 734 1146 l 739 1146 q 1232 936 1003 1146 q 1430 446 1430 718 q 1084 -155 1430 71 q 734 -250 917 -250 q 133 87 366 -250 q 34 446 34 274 q 351 1031 34 799 q 734 1146 538 1146 m 409 487 l 409 433 q 454 281 409 372 q 405 104 425 166 q 409 100 409 104 l 582 145 l 590 145 q 751 104 692 104 l 767 104 q 1035 232 917 104 q 1117 463 1117 338 q 903 788 1117 674 q 783 812 835 812 l 747 812 q 421 566 527 812 q 409 487 409 501 m 767 755 q 1043 557 954 755 q 1059 454 1059 507 q 1055 450 1059 450 q 1059 446 1055 446 q 907 199 1059 311 q 763 161 823 161 q 598 207 694 161 l 586 207 l 507 186 l 499 186 l 491 191 q 516 294 516 283 q 467 429 467 382 l 467 479 q 635 730 467 624 q 767 755 703 755 m 582 541 q 751 322 582 438 q 841 290 823 290 l 866 290 q 940 351 940 307 l 940 372 q 858 413 938 385 l 850 413 l 804 368 q 672 483 720 401 l 672 487 q 701 536 701 522 q 652 623 673 623 l 640 623 q 582 541 582 608 z "},"M":{"ha":1465,"x_min":34,"x_max":1428,"o":"m 731 1145 q 1300 848 1072 1145 q 1428 444 1428 654 q 1251 -14 1428 200 q 731 -250 1026 -250 q 166 39 395 -250 q 50 291 94 136 l 34 406 l 34 481 q 125 794 41 637 q 731 1145 355 1145 m 702 715 q 529 715 702 715 q 355 662 355 715 q 323 439 329 646 l 323 435 q 380 171 323 202 q 587 151 425 151 l 958 151 q 1111 208 1088 151 q 1135 406 1135 270 l 1135 464 q 1086 691 1135 657 q 702 715 1048 715 m 648 547 l 652 547 q 854 435 847 446 l 661 328 l 648 328 l 648 547 z "},"N":{"ha":1467,"x_min":41,"x_max":1440,"o":"m 715 1144 l 765 1144 q 1253 920 1031 1144 q 1428 573 1396 754 q 1440 449 1440 467 q 1349 105 1440 283 q 1162 -110 1312 24 q 736 -251 962 -251 q 157 64 384 -251 q 41 424 41 249 l 41 486 q 169 854 41 649 q 715 1144 404 1144 m 422 288 q 509 134 422 185 q 595 105 562 105 l 918 105 q 1050 176 982 111 q 1101 329 1101 254 q 964 528 1123 524 l 972 577 q 852 780 972 734 q 782 792 813 792 l 728 792 q 513 768 564 792 q 422 540 422 718 l 422 288 m 633 648 l 773 648 q 831 606 814 648 l 831 581 q 790 532 831 556 l 637 532 q 578 581 578 544 l 578 593 q 633 648 583 648 m 629 382 l 893 382 q 956 320 956 369 q 910 262 956 286 l 616 262 q 562 316 562 276 l 562 329 q 629 382 562 374 z "},"O":{"ha":1480,"x_min":41,"x_max":1442,"o":"m 741 1146 q 1314 848 1082 1146 q 1442 450 1442 649 q 1210 -73 1442 151 q 770 -251 1001 -251 l 712 -251 q 202 -2 429 -251 q 49 342 60 191 q 41 408 41 389 l 41 471 q 215 910 41 690 q 741 1146 443 1146 m 637 789 q 663 740 637 774 l 663 732 q 567 578 567 662 l 949 578 l 949 595 q 853 732 949 666 q 882 789 882 781 l 878 789 q 837 736 844 736 q 774 752 824 744 q 675 736 717 748 q 646 789 646 784 l 637 789 m 667 677 l 675 677 q 688 665 681 677 l 688 657 q 671 644 688 644 q 654 657 654 651 l 654 665 q 667 677 654 671 m 841 677 l 853 677 q 865 665 859 677 l 865 657 q 841 644 861 644 l 832 657 l 832 669 q 841 677 833 677 m 468 528 l 468 342 q 505 304 473 304 q 551 363 551 304 l 551 516 q 509 566 547 566 q 468 528 468 562 m 969 536 l 969 346 q 1010 300 969 314 q 1052 342 1052 314 l 1052 508 q 1006 566 1052 566 q 969 536 983 566 m 567 557 l 567 292 q 629 238 567 238 q 646 230 646 238 l 646 147 q 671 102 646 115 l 704 102 q 729 139 729 116 l 729 226 q 741 238 729 232 l 779 238 q 791 226 785 238 l 791 135 q 824 102 791 102 l 837 102 q 874 143 868 102 l 874 230 q 932 242 874 239 l 949 267 l 949 557 l 567 557 z "},"P":{"ha":1474,"x_min":34,"x_max":1433,"o":"m 734 1146 q 1346 786 1118 1146 q 1433 463 1433 608 l 1433 418 q 1338 95 1433 278 q 953 -216 1200 -132 q 734 -253 831 -253 q 166 37 401 -253 q 38 397 38 239 q 34 405 34 397 l 38 405 l 34 414 l 34 438 q 373 1047 34 819 q 734 1146 548 1146 m 530 836 q 581 645 581 662 l 581 546 l 626 546 l 626 658 l 675 836 l 634 836 q 609 728 609 746 l 597 728 q 572 836 597 745 l 530 836 m 675 720 q 680 715 675 715 l 675 695 l 675 612 q 734 538 675 538 q 791 595 791 545 l 791 707 q 750 765 791 749 l 717 765 q 675 720 675 745 m 829 757 l 829 558 q 841 546 829 553 l 874 546 q 895 562 876 546 q 903 546 903 562 l 932 546 q 941 554 941 546 l 941 757 l 903 757 q 899 749 903 749 l 903 728 l 903 621 q 899 616 903 616 l 903 608 l 903 604 q 886 583 892 583 l 874 583 q 866 591 866 583 l 866 757 l 829 757 m 729 728 l 738 728 q 754 691 754 722 l 754 604 q 729 575 754 575 l 717 591 l 717 715 q 729 728 717 722 m 390 326 l 390 227 q 551 58 390 58 l 907 58 q 1077 206 1077 58 l 1077 335 q 924 492 1077 492 l 543 492 q 390 326 390 492 m 477 426 l 597 426 q 609 414 603 426 l 609 405 q 597 380 609 384 l 559 380 l 559 140 q 551 132 559 132 l 526 132 q 514 157 514 136 l 514 380 l 481 380 q 469 393 475 380 l 469 418 q 477 426 470 426 m 766 426 l 787 426 q 800 414 793 426 l 800 335 l 804 335 l 825 351 l 837 351 q 874 294 874 351 l 874 174 q 841 128 870 128 q 804 144 827 128 l 787 132 l 770 132 q 758 144 765 132 l 758 418 q 766 426 760 426 m 969 355 q 1023 294 1015 355 l 1023 248 q 1010 235 1023 242 l 949 235 q 945 223 949 231 q 949 178 949 195 l 949 170 l 969 165 q 986 211 980 165 l 1010 211 q 1023 198 1017 211 l 1023 190 q 974 128 1014 128 l 953 128 q 903 219 903 128 l 907 248 l 903 273 q 969 355 903 355 m 618 351 l 622 351 q 646 339 646 349 l 646 178 q 659 170 646 170 q 680 186 677 177 l 680 339 q 692 351 680 345 l 709 351 q 721 339 715 351 l 721 140 q 713 132 721 132 l 692 132 q 680 153 681 132 q 638 128 642 128 q 605 153 616 128 l 605 339 q 618 351 605 345 m 800 306 l 800 178 q 812 165 800 172 l 825 165 q 833 174 833 165 l 833 294 l 829 314 l 808 314 q 800 306 800 313 m 949 273 q 953 269 953 273 q 965 273 961 273 q 978 269 973 269 l 982 277 l 982 290 q 969 314 982 311 l 957 314 q 949 273 949 314 z "},"Q":{"ha":1454,"x_min":20,"x_max":1419,"o":"m 670 1144 l 770 1144 q 1134 1012 930 1144 q 1357 734 1288 892 q 1419 481 1419 585 l 1419 424 q 1229 -36 1419 192 q 715 -251 1008 -251 q 119 89 351 -251 q 20 449 20 272 q 260 975 20 741 q 670 1144 484 1144 m 347 540 l 347 324 q 459 89 347 148 q 782 68 509 60 q 1022 113 991 68 q 1093 300 1093 170 l 1093 577 q 977 792 1093 741 l 925 809 l 873 813 l 571 813 q 355 656 410 813 q 347 540 347 608 m 583 747 l 873 747 q 1030 581 1030 747 l 1030 288 q 902 134 1009 134 l 782 134 q 604 130 698 134 q 422 229 448 130 q 414 395 414 284 l 414 486 q 447 693 414 693 q 583 747 480 747 m 877 635 q 923 593 895 593 q 968 635 951 593 q 918 685 959 685 q 877 635 877 672 m 530 436 q 683 250 530 302 l 766 250 q 914 440 914 304 l 914 449 q 836 593 914 526 q 724 631 782 631 l 720 631 q 542 498 592 631 q 530 436 535 490 m 720 565 l 724 565 q 844 469 814 565 q 848 440 848 464 q 724 312 829 312 q 604 395 642 312 q 595 436 599 401 q 720 565 610 565 z "},"R":{"ha":1461,"x_min":27,"x_max":1423,"o":"m 726 1144 q 1283 863 1057 1144 q 1423 450 1423 666 l 1423 433 q 1221 -45 1423 181 q 754 -248 1000 -248 l 688 -248 q 189 0 419 -248 q 27 437 27 208 l 27 475 q 110 777 27 600 q 292 991 154 871 q 726 1144 490 1144 m 932 747 l 783 785 q 709 595 721 610 q 469 528 588 595 q 420 549 434 549 l 395 549 q 312 467 312 527 l 312 450 q 353 372 312 415 l 353 359 q 663 103 353 152 q 721 99 675 99 q 1084 285 989 99 q 1101 380 1096 366 q 1139 458 1139 414 q 1064 549 1139 519 l 1031 549 q 977 528 1020 549 q 746 599 915 574 l 746 603 q 804 751 795 749 l 808 751 q 936 714 920 723 q 998 644 951 644 l 1027 644 q 1089 723 1089 654 q 1019 793 1076 793 l 1006 793 q 936 747 970 793 l 932 747 m 1019 768 q 1060 719 1055 768 l 1060 710 q 1010 669 1060 673 q 965 702 984 669 l 965 723 q 1019 768 965 761 m 407 524 q 440 508 438 519 q 361 409 391 467 l 357 409 l 341 433 l 341 475 q 407 524 366 524 m 1044 524 q 1109 463 1109 509 l 1109 437 q 1089 409 1094 409 q 1010 508 1057 461 q 1044 524 1010 519 m 589 450 l 614 450 q 667 392 653 450 l 667 388 q 618 334 653 334 l 593 334 q 548 384 559 334 l 548 396 q 589 450 548 427 m 845 450 l 866 450 q 911 388 911 430 q 862 334 911 348 l 841 334 q 791 384 791 346 l 791 396 q 845 450 805 450 m 597 260 l 602 260 q 688 223 644 227 l 762 223 q 853 260 787 223 l 857 260 q 866 248 857 258 l 866 235 q 758 186 839 203 l 696 186 q 585 235 640 186 l 585 248 q 597 260 585 254 z "},"S":{"ha":1452,"x_min":27,"x_max":1419,"o":"m 721 1145 l 726 1145 q 1291 851 1071 1145 q 1419 484 1419 662 l 1419 414 q 1213 -50 1419 178 q 754 -248 987 -248 l 692 -248 q 267 -78 482 -248 q 27 455 27 140 q 366 1050 27 818 q 721 1145 536 1145 m 762 446 q 886 269 762 334 l 957 256 q 1076 302 1009 256 q 1143 430 1143 371 l 1143 467 q 1019 629 1143 564 q 953 641 962 641 q 791 550 859 641 q 762 446 762 492 m 304 446 q 448 264 304 313 q 490 260 475 264 q 671 389 619 260 q 680 426 680 416 l 680 471 q 581 616 680 549 q 511 637 529 637 l 465 637 q 366 591 421 631 q 304 446 304 532 z "},"T":{"ha":1458,"x_min":27,"x_max":1423,"o":"m 663 1144 l 791 1144 q 1093 1045 930 1135 q 1312 830 1218 963 q 1423 516 1392 714 l 1423 405 q 1295 45 1423 247 q 726 -248 1066 -248 q 254 -62 467 -248 q 39 330 98 72 l 27 458 q 93 743 46 650 q 275 983 141 850 q 610 1136 453 1116 q 663 1144 647 1144 m 535 607 q 651 591 556 591 q 721 661 671 661 l 738 661 q 795 607 795 661 l 795 566 q 630 532 795 559 q 519 384 519 474 l 519 359 q 639 227 542 227 l 701 227 q 812 289 743 227 q 886 227 865 227 q 969 309 969 296 q 928 421 928 364 l 928 578 q 849 739 928 718 q 742 764 798 764 q 548 656 600 764 q 535 607 535 627 m 787 483 q 795 475 795 481 l 795 409 q 713 318 768 318 q 655 388 665 318 q 775 483 655 472 l 787 483 m 948 202 l 953 194 q 1010 202 983 202 q 1039 186 1039 197 q 1019 107 1035 157 l 1027 107 q 1072 214 1072 147 q 1035 227 1063 221 l 1027 223 l 1023 223 q 1019 227 1019 223 q 948 202 948 217 m 407 218 l 407 210 q 734 50 547 50 q 1010 157 898 50 l 1010 169 q 1002 178 1010 178 q 758 111 884 111 l 730 111 q 412 218 578 111 l 407 218 z "},"U":{"ha":1467,"x_min":34,"x_max":1439,"o":"m 736 1148 q 1314 844 1083 1148 q 1439 462 1439 649 l 1439 416 q 1360 121 1439 296 q 949 -224 1219 -134 q 774 -253 852 -253 l 707 -253 q 180 18 412 -253 q 34 458 34 217 l 34 483 q 38 487 34 487 q 34 491 38 491 q 104 753 55 646 q 537 1119 249 1027 q 736 1148 650 1148 m 869 566 q 990 437 888 437 q 1123 574 1110 437 q 1002 695 1103 695 q 998 699 1002 699 l 990 695 q 986 699 986 695 q 869 566 888 699 m 595 537 l 595 524 q 678 416 595 444 l 711 416 q 715 412 715 416 q 824 541 824 435 q 753 637 824 595 q 703 649 718 649 q 595 537 613 649 m 350 500 l 350 491 q 450 391 350 391 q 549 500 538 391 q 441 604 549 587 q 350 500 360 604 m 861 246 l 861 200 q 869 192 863 192 l 1131 192 l 1135 213 l 1135 242 q 1031 400 1135 363 q 990 404 1010 404 q 865 296 897 404 q 861 246 861 274 m 583 250 l 583 225 q 604 192 583 203 l 824 192 q 832 200 832 192 l 832 254 q 703 383 814 383 q 583 250 608 383 m 338 233 l 342 225 l 338 200 l 350 192 l 549 192 q 562 204 555 192 l 562 233 q 467 362 562 334 q 441 366 444 366 q 342 275 374 366 q 338 233 342 235 z "},"V":{"ha":1452,"x_min":27,"x_max":1426,"o":"m 735 1146 q 1343 782 1116 1146 q 1426 467 1426 612 l 1426 426 q 1215 -54 1426 178 q 718 -249 1002 -249 q 139 70 372 -249 q 27 451 27 263 q 214 922 27 703 q 735 1146 430 1146 m 751 645 q 755 393 755 477 l 755 302 q 751 256 755 284 q 764 235 757 235 l 1120 235 q 1240 368 1240 255 q 1124 484 1214 484 l 1112 484 q 1066 475 1101 484 q 987 629 1061 547 q 847 678 913 678 q 755 654 755 670 l 751 645 m 714 641 q 710 393 710 475 l 710 343 q 722 235 710 235 l 727 235 q 739 243 729 235 q 743 355 739 279 q 739 637 739 547 l 727 645 q 714 641 719 641 m 673 621 l 669 600 l 669 260 q 681 235 671 235 l 685 235 l 694 239 q 698 363 698 322 l 698 422 q 694 554 698 465 l 698 554 l 694 562 l 694 621 l 673 621 m 545 587 q 541 359 541 437 l 541 298 l 545 269 l 541 269 q 553 235 545 235 l 557 235 q 565 252 557 242 q 570 351 565 300 q 565 575 565 451 q 553 591 559 591 l 545 587 m 586 587 l 582 343 q 586 239 582 328 l 594 235 l 602 235 q 611 281 606 281 q 607 285 611 285 l 611 306 l 611 314 q 602 587 611 492 l 586 587 m 503 579 q 499 455 499 496 l 499 393 q 495 359 499 376 q 511 235 500 235 l 519 239 q 524 351 524 316 l 524 372 q 519 579 524 435 l 511 583 l 503 579 m 627 571 l 627 525 q 623 359 627 437 q 627 243 627 316 q 640 235 629 243 l 644 235 q 652 256 652 253 q 656 351 652 315 q 652 513 652 425 l 652 538 q 640 583 652 583 q 627 571 634 583 m 462 562 l 462 546 q 458 488 462 523 q 462 484 458 484 l 458 463 l 458 372 q 454 368 458 368 l 458 359 l 458 347 q 454 343 458 343 l 458 335 l 458 331 q 454 318 458 318 q 470 235 460 235 q 478 243 471 243 q 482 351 478 273 q 478 558 478 500 l 470 562 l 462 562 m 420 513 q 412 351 420 466 q 429 239 419 239 l 433 239 l 441 359 q 433 525 437 475 l 429 525 q 420 513 420 525 m 338 455 q 334 343 338 444 q 338 248 338 267 l 346 243 l 350 243 q 358 355 358 345 q 350 463 350 455 l 346 463 q 338 455 338 462 m 300 459 l 300 455 q 292 347 292 359 q 300 248 300 275 l 309 248 l 309 252 q 317 339 317 317 l 317 363 q 309 459 309 455 l 300 459 m 379 451 q 375 335 375 350 q 379 243 379 262 l 387 239 l 391 239 l 399 351 l 391 459 l 387 459 q 379 451 379 458 m 259 434 l 259 422 l 251 347 q 259 290 259 303 l 259 264 l 267 264 l 267 269 q 275 351 275 328 l 275 355 q 267 442 275 377 q 259 434 259 441 m 222 405 q 218 351 218 370 q 222 298 222 300 l 230 298 q 234 359 234 339 q 230 405 234 368 l 222 405 z "},"W":{"ha":1454,"x_min":34,"x_max":1419,"o":"m 663 1142 l 790 1142 q 1090 1044 928 1133 q 1419 452 1419 815 q 1103 -132 1419 94 q 724 -243 922 -243 q 256 -58 467 -243 q 75 213 104 100 q 34 398 42 302 l 34 505 q 116 785 34 605 q 285 986 177 891 q 606 1134 414 1097 q 663 1142 649 1142 m 576 751 l 556 751 q 273 673 273 735 q 269 653 269 667 q 321 600 274 600 l 321 595 q 614 636 477 636 l 622 636 q 1107 522 886 636 q 1136 517 1123 517 q 1185 583 1177 517 q 823 739 1185 662 q 610 755 716 751 l 602 751 q 597 755 597 751 l 576 751 m 309 452 q 351 402 317 402 l 375 402 q 614 435 532 435 q 1025 324 813 435 q 1053 320 1041 320 q 1095 365 1086 320 q 790 513 1086 446 q 593 534 746 526 q 313 464 313 513 q 309 452 313 459 m 338 267 l 338 254 q 359 217 347 217 l 367 217 q 597 241 536 241 l 610 241 q 963 147 816 241 l 975 147 q 1013 184 1013 153 l 1013 189 q 774 307 1013 241 q 646 320 675 320 l 568 320 q 338 267 338 302 z "},"X":{"ha":1463,"x_min":27,"x_max":1426,"o":"m 677 1146 l 777 1146 q 1037 1076 873 1146 q 1285 865 1162 1018 q 1426 442 1426 676 q 1194 -71 1426 161 q 727 -249 983 -249 q 110 119 334 -249 q 27 434 27 286 l 27 463 q 271 981 27 750 q 445 1088 370 1059 q 677 1146 574 1141 m 325 558 l 325 505 q 491 66 325 268 q 627 12 557 12 l 665 12 q 979 95 793 12 q 1124 227 1113 174 q 1149 298 1135 233 l 1149 393 q 1008 786 1149 560 q 855 861 930 854 l 818 861 q 425 736 637 861 q 325 558 325 654 m 772 707 q 826 625 806 707 q 830 621 830 625 q 901 641 875 637 q 938 595 938 629 q 855 538 938 560 l 855 530 q 888 430 863 521 q 962 451 900 430 q 1000 397 1000 439 q 917 343 1000 372 q 938 277 930 318 l 938 273 q 888 231 938 235 q 838 318 863 231 l 830 318 q 727 281 815 310 l 743 223 l 743 190 q 702 165 729 165 q 648 252 669 165 l 635 252 q 574 231 623 241 q 536 277 536 244 q 619 335 536 311 l 619 343 q 578 446 588 437 q 515 426 578 437 l 503 426 q 474 475 474 443 q 557 525 474 503 l 536 595 l 536 600 q 582 641 536 634 q 631 566 614 641 q 640 554 637 554 l 747 591 q 731 650 731 646 l 731 682 q 772 707 746 707 m 768 513 q 661 471 768 507 q 698 363 669 463 l 702 363 q 814 401 710 363 l 814 405 q 777 509 805 416 l 768 513 z "},"Y":{"ha":1465,"x_min":34,"x_max":1430,"o":"m 718 1146 l 747 1146 q 1318 831 1084 1146 q 1430 479 1430 638 l 1430 408 q 1302 40 1430 248 q 722 -250 1075 -250 q 158 48 387 -250 q 34 446 34 230 l 34 450 q 357 1038 34 813 q 718 1146 533 1146 m 328 264 q 502 135 328 181 q 539 131 517 135 q 585 189 585 159 q 490 251 520 218 l 490 255 l 502 255 q 701 193 570 214 l 813 193 q 1012 255 920 213 l 1012 251 q 904 189 961 201 l 904 185 q 962 131 943 131 q 1157 218 1059 131 q 1165 235 1157 224 l 1165 305 q 1074 636 1165 413 q 863 724 984 724 l 859 715 q 1000 645 980 669 l 1000 641 q 792 694 863 694 l 705 694 q 481 641 618 691 q 610 707 492 664 q 635 715 610 712 l 635 728 q 436 653 549 728 q 328 264 340 468 m 610 463 l 618 463 q 688 384 674 463 q 618 305 678 305 l 606 305 q 539 392 550 305 q 610 463 564 463 m 875 463 l 879 463 q 949 384 935 463 l 949 380 q 879 305 938 305 l 875 305 q 804 388 804 305 q 875 463 817 463 z "},"Z":{"ha":1470,"x_min":34,"x_max":1433,"o":"m 721 1148 l 758 1148 q 1246 929 1019 1148 q 1408 635 1373 783 q 1433 503 1419 613 l 1433 403 q 1362 142 1433 302 q 953 -214 1231 -115 q 742 -247 848 -247 q 109 142 326 -247 q 38 436 38 293 q 34 453 34 436 l 38 453 q 34 457 38 457 q 100 743 53 653 q 270 975 145 846 q 721 1148 486 1148 m 448 163 l 460 155 l 605 155 l 614 151 q 609 76 609 144 q 626 72 616 72 l 738 72 q 783 279 765 279 q 800 283 790 283 l 870 283 q 1069 412 1014 283 q 1085 494 1085 459 l 1085 523 q 1019 618 1085 570 q 1027 676 1027 650 q 920 809 1027 767 q 688 825 872 825 q 547 804 547 825 q 448 163 460 269 z "},"[":{"ha":514,"x_min":0,"x_max":0,"o":""},"\\":{"ha":386,"x_min":0,"x_max":0,"o":""},"]":{"ha":514,"x_min":0,"x_max":0,"o":""},"^":{"ha":688,"x_min":0,"x_max":0,"o":""},"_":{"ha":694,"x_min":0,"x_max":0,"o":""},"`":{"ha":694,"x_min":0,"x_max":0,"o":""},"a":{"ha":1467,"x_min":34,"x_max":1428,"o":"m 731 1144 q 1280 876 1044 1144 q 1428 451 1428 667 l 1428 447 q 1111 -139 1428 94 q 727 -250 928 -250 q 170 35 395 -250 q 34 427 34 229 l 34 467 q 224 926 34 700 q 731 1144 450 1144 m 459 748 q 414 616 414 632 l 414 150 l 570 150 q 578 142 578 149 l 578 63 l 665 63 l 755 150 l 876 150 q 995 257 899 150 q 1069 332 1000 257 l 1069 748 l 459 748 m 525 686 l 1003 686 q 1012 678 1012 685 l 1012 364 q 900 253 907 253 l 743 253 l 657 170 l 652 170 l 652 253 l 529 253 q 517 265 523 253 l 517 678 q 525 686 518 686 m 682 566 l 682 393 l 743 393 l 739 414 l 739 546 l 743 566 l 682 566 m 846 566 l 846 393 l 904 393 l 904 566 l 846 566 z "},"b":{"ha":1463,"x_min":34,"x_max":1424,"o":"m 694 1144 l 768 1144 q 1173 987 962 1144 q 1367 724 1320 852 q 1424 517 1400 666 l 1424 418 q 1251 -11 1424 205 q 954 -209 1100 -167 q 772 -246 833 -246 l 772 -242 q 760 -246 764 -246 q 58 253 244 -246 q 34 451 34 359 q 327 1016 34 797 q 694 1144 514 1144 m 517 748 l 517 736 q 686 463 529 694 l 698 455 l 719 455 q 739 500 733 455 l 735 530 l 739 530 l 715 798 q 686 806 698 806 q 517 748 517 776 m 789 435 l 789 414 q 814 389 789 408 l 818 389 q 1008 447 1008 431 l 1012 455 q 921 587 985 549 l 905 587 q 789 435 867 546 m 454 385 l 454 328 q 488 286 454 292 q 673 356 673 338 l 673 381 q 488 463 652 410 q 454 385 458 463 m 797 294 q 892 134 797 277 l 909 121 l 913 121 q 1016 249 983 159 q 909 302 1016 276 q 830 328 909 307 l 818 328 q 797 294 797 317 m 566 138 l 566 130 q 682 71 587 96 l 711 67 q 735 104 735 73 l 735 174 q 739 191 735 184 q 735 208 735 198 l 735 216 l 739 241 q 735 253 735 249 l 739 261 q 715 294 728 289 l 694 294 q 566 138 566 163 z "},"c":{"ha":1463,"x_min":27,"x_max":1421,"o":"m 691 1144 l 766 1144 q 1190 971 970 1144 q 1380 686 1351 806 q 1421 500 1409 617 l 1421 406 q 1281 26 1421 237 q 732 -246 1050 -246 q 101 138 326 -246 q 31 435 31 299 q 27 451 27 435 q 73 694 27 536 q 271 979 116 820 q 691 1144 489 1144 m 621 649 l 592 653 l 564 653 q 403 583 495 653 q 324 418 324 490 l 324 381 q 497 150 324 233 q 617 138 555 138 l 798 138 q 1050 220 985 138 q 1145 385 1109 256 q 1149 439 1149 420 q 943 728 1149 642 l 897 740 l 798 740 q 621 649 728 740 m 844 690 q 1091 443 1091 648 q 926 208 1091 275 q 844 191 870 191 l 840 191 q 605 332 728 191 q 547 406 547 387 q 580 431 555 431 q 758 269 749 269 q 831 249 813 249 l 848 249 q 1034 401 983 249 l 1038 431 l 1038 451 q 935 612 1038 538 q 844 633 876 633 q 736 604 812 633 q 695 625 702 625 l 695 633 q 836 690 724 669 l 844 690 m 584 595 q 815 439 697 595 l 815 435 q 782 410 806 410 q 650 526 774 410 q 605 538 616 538 l 580 538 q 435 389 452 538 q 538 257 435 298 q 659 199 613 257 l 654 191 l 633 195 l 613 195 q 394 323 441 195 q 382 373 382 360 l 382 418 q 485 570 382 498 q 584 595 526 595 z "},"d":{"ha":1470,"x_min":27,"x_max":1426,"o":"m 727 1144 q 1202 958 990 1144 q 1393 656 1362 794 q 1426 490 1426 549 l 1426 395 q 1356 134 1426 303 q 954 -218 1221 -119 q 764 -251 847 -251 l 694 -251 q 189 1 418 -251 q 35 357 50 188 q 27 428 35 384 l 31 436 l 27 444 l 31 453 q 27 457 31 457 q 73 689 39 593 q 458 1090 185 966 q 727 1144 605 1144 m 429 747 l 429 552 q 574 387 429 529 l 640 308 l 631 304 l 627 304 q 611 308 618 304 q 594 304 604 304 q 590 308 590 304 l 582 304 l 545 304 q 541 308 541 304 l 532 304 l 445 304 l 437 308 l 433 300 l 433 93 l 635 93 q 644 101 644 93 l 644 292 q 652 300 645 300 q 880 93 812 149 l 1082 93 l 1082 308 l 669 308 q 661 316 661 308 q 1078 536 875 431 l 1087 552 l 1087 747 l 880 747 q 718 453 872 745 q 656 324 656 336 l 644 324 l 644 747 l 429 747 m 888 713 l 892 705 l 892 556 l 1041 556 q 1050 548 1050 555 q 710 374 717 374 l 710 382 q 888 713 884 713 m 454 556 l 611 556 q 619 548 619 555 l 619 378 l 615 378 l 454 548 l 454 556 m 722 283 l 884 283 q 892 275 892 282 l 892 126 q 884 117 892 117 q 714 279 714 275 l 722 283 z "},"e":{"ha":1456,"x_min":27,"x_max":1411,"o":"m 692 1144 l 758 1144 q 1115 1021 915 1144 q 1386 643 1313 878 q 1411 487 1411 540 l 1411 413 q 1238 -9 1411 209 q 717 -243 1009 -243 q 249 -59 468 -243 q 27 450 27 163 q 389 1062 27 836 q 692 1144 560 1144 m 281 442 l 281 426 q 495 60 281 208 q 717 -1 618 -1 q 1090 204 944 -1 q 1160 442 1160 323 q 951 816 1160 662 q 709 878 840 878 q 335 652 476 878 q 281 442 281 555 m 692 857 l 737 857 q 1078 656 943 857 q 1139 458 1135 560 l 1139 422 q 1041 167 1139 305 q 717 19 900 19 q 376 200 513 19 q 298 442 298 312 q 503 800 298 657 q 692 857 602 857 m 409 652 l 409 648 l 413 648 q 536 652 454 648 q 545 639 536 650 l 545 631 q 491 614 545 617 l 623 212 l 631 212 q 709 454 631 233 q 643 614 654 609 q 597 631 597 618 l 597 639 q 614 652 597 646 q 713 648 688 648 q 819 652 739 648 q 827 631 827 638 q 774 614 810 614 l 905 216 l 909 216 q 971 463 971 416 q 914 610 971 524 q 905 652 905 641 q 967 717 915 717 l 967 721 q 745 816 852 816 l 684 816 q 450 705 564 806 q 409 652 409 657 m 1049 614 l 1053 594 l 1053 574 q 955 249 1053 511 q 914 118 914 130 q 1082 340 1027 176 q 1095 413 1095 394 l 1095 479 q 1053 614 1090 530 l 1049 614 m 372 586 q 343 438 343 512 q 545 105 343 225 l 553 105 l 376 586 l 372 586 m 618 77 q 717 60 670 65 q 840 85 840 75 q 758 319 840 96 q 729 401 729 392 q 671 241 713 384 q 618 77 618 108 z "},"f":{"ha":1472,"x_min":34,"x_max":1433,"o":"m 729 1146 q 1342 790 1117 1146 q 1433 459 1433 615 l 1433 438 q 1181 -92 1433 144 q 746 -253 962 -253 q 729 -249 739 -249 q 725 -253 725 -249 q 220 -29 452 -253 q 34 451 34 186 l 34 467 q 216 918 34 699 q 729 1146 441 1146 m 394 587 q 555 95 514 213 q 618 58 581 58 q 932 157 644 58 l 937 186 q 911 281 937 210 l 911 310 q 1031 389 911 363 q 1073 438 1073 416 q 961 786 1069 477 q 916 811 934 811 l 886 811 q 419 654 437 670 q 394 587 394 631 m 899 790 q 945 728 929 790 l 945 711 q 911 678 945 678 l 899 678 q 858 757 858 709 q 899 790 869 790 m 878 757 q 903 695 878 717 l 916 695 q 928 707 922 695 l 928 715 q 895 774 917 774 q 878 757 882 770 m 804 757 q 841 674 833 683 l 862 674 l 862 666 q 808 645 833 645 l 804 654 l 821 670 q 783 732 803 732 q 770 741 770 732 q 804 757 770 751 m 705 728 l 713 728 q 750 645 726 718 q 775 637 775 645 q 734 616 775 632 l 721 616 q 713 625 713 616 q 729 633 713 633 q 713 703 713 695 l 684 699 l 680 707 q 705 728 680 713 m 618 699 l 642 699 q 680 633 680 673 l 680 625 q 638 587 680 591 q 597 650 614 587 l 597 678 q 618 699 597 684 m 618 682 l 613 662 l 613 658 q 646 604 626 604 q 663 625 655 604 q 638 682 663 656 l 618 682 m 539 670 q 572 583 555 642 l 576 583 q 593 587 583 587 l 597 579 q 543 554 595 569 l 539 562 l 551 579 l 551 583 q 526 645 538 645 q 510 641 519 641 l 506 650 q 539 670 506 660 m 941 650 q 974 562 949 635 l 982 567 l 990 567 q 998 558 998 566 q 941 538 980 538 l 937 546 q 953 554 946 554 l 953 558 l 932 625 l 924 625 l 911 616 l 903 629 q 941 650 921 650 m 452 641 l 465 641 q 502 583 502 612 l 502 550 q 469 530 491 530 l 456 530 q 419 608 419 553 q 452 641 419 641 m 435 604 q 465 546 449 546 l 473 546 q 485 558 479 546 l 485 583 q 460 625 473 616 l 448 625 q 435 604 441 625 m 845 621 l 849 621 q 882 534 860 621 l 903 538 l 907 530 l 907 521 q 849 505 860 505 l 845 513 q 866 525 845 522 q 837 595 848 595 q 821 591 829 591 l 817 600 l 817 608 q 845 621 827 608 m 766 591 q 817 525 801 591 l 817 517 q 783 475 817 492 q 729 550 743 475 q 766 591 734 591 m 750 571 l 750 558 q 775 496 750 510 l 783 496 q 795 513 795 496 q 770 575 795 555 l 750 571 m 680 562 q 729 484 714 562 q 692 451 719 451 l 680 451 q 638 525 638 486 q 680 562 651 562 m 663 542 l 663 525 q 696 467 663 467 l 705 467 q 709 479 705 472 q 675 546 703 546 q 663 542 667 542 m 585 530 q 618 447 600 507 l 642 447 l 642 438 q 585 418 619 418 l 581 426 q 601 442 601 437 l 576 509 q 555 500 563 500 l 551 509 q 585 530 562 530 m 978 513 l 998 513 q 1036 451 1036 486 l 1036 422 q 1015 401 1036 416 l 990 401 q 953 471 953 433 l 953 475 q 978 513 953 498 m 498 500 q 526 418 507 500 l 547 418 q 555 410 555 416 q 506 389 555 400 l 502 389 q 493 397 493 389 q 510 405 493 405 l 510 414 q 481 475 496 475 q 469 471 473 471 l 465 479 l 465 484 q 498 500 465 494 m 978 496 l 974 475 l 974 471 q 998 418 982 418 l 1010 418 q 1019 426 1019 418 l 1019 430 q 994 496 1019 479 l 978 496 m 903 484 q 949 418 935 484 l 949 393 q 907 368 935 368 q 866 434 866 396 l 866 459 q 903 484 880 484 m 882 442 q 907 389 896 390 l 920 389 q 932 401 926 389 q 899 467 932 450 q 882 442 882 463 m 812 455 q 862 372 862 437 q 841 343 862 355 l 812 343 q 775 422 775 370 q 812 455 775 444 m 795 426 l 795 414 q 821 359 795 378 l 833 359 q 845 376 837 359 q 825 434 841 397 l 804 434 q 795 426 795 433 m 721 422 q 750 339 750 362 l 770 339 q 779 331 779 338 q 721 306 779 319 l 717 314 l 717 318 q 734 326 717 326 l 734 331 q 709 397 717 397 l 688 393 l 688 401 q 721 422 688 412 m 924 302 l 924 298 q 953 178 953 201 l 957 178 q 1073 401 1055 292 q 957 351 1038 369 q 924 302 924 327 m 634 393 l 646 393 q 684 314 684 369 q 659 281 684 292 l 638 281 q 597 359 614 281 q 634 393 608 393 m 618 363 l 622 355 q 618 351 622 351 q 646 298 631 298 l 655 298 q 667 318 664 298 q 630 376 667 368 q 618 363 627 376 m 543 363 q 576 277 555 348 l 585 277 q 597 281 593 281 l 601 273 l 601 269 q 547 248 601 260 q 539 256 539 248 q 559 277 559 273 q 535 339 550 290 l 514 335 l 510 335 l 510 343 q 543 363 520 357 m 854 310 q 890 223 867 296 q 907 215 907 223 q 858 198 873 198 l 854 206 q 870 223 854 211 q 841 290 850 281 l 829 281 q 821 290 821 281 l 821 294 q 854 310 821 304 m 762 285 l 779 285 q 821 202 821 257 q 795 174 814 184 l 770 174 q 734 252 734 201 q 762 285 734 271 m 754 256 l 754 235 q 779 190 765 190 l 791 190 q 800 198 800 190 l 800 231 q 775 269 783 268 l 766 269 q 754 256 761 269 m 684 256 q 729 206 707 256 l 729 165 q 701 140 729 157 q 646 219 646 149 l 646 231 q 684 256 661 256 m 663 227 q 688 161 663 189 l 692 161 l 713 165 l 713 186 q 684 239 699 239 l 680 239 l 663 227 m 597 227 q 642 161 625 227 l 642 149 q 605 111 637 111 q 555 190 572 111 q 597 227 555 222 m 581 206 l 576 186 q 613 128 576 139 l 626 144 q 601 206 614 206 l 581 206 z "},"g":{"ha":1467,"x_min":34,"x_max":1428,"o":"m 735 1146 q 1280 878 1052 1146 q 1428 453 1428 671 q 1127 -125 1428 111 q 731 -248 930 -248 q 191 7 421 -248 q 34 425 34 220 l 34 486 q 145 829 34 636 q 735 1146 373 1146 m 707 709 l 707 465 l 1012 465 l 1032 469 q 1036 465 1032 465 l 1036 758 q 707 709 1013 750 m 434 671 l 426 671 l 426 461 l 661 465 q 665 461 661 461 l 669 469 l 669 701 l 434 671 m 426 437 l 426 227 l 669 193 q 673 197 669 197 l 669 205 l 669 420 l 673 429 l 665 433 l 426 437 m 707 433 l 707 189 l 1036 144 l 1036 433 l 707 433 z "},"h":{"ha":1482,"x_min":34,"x_max":1437,"o":"m 740 1146 q 1296 864 1068 1146 q 1437 449 1437 665 q 1155 -116 1437 118 q 756 -253 960 -253 l 723 -253 q 163 42 387 -253 q 34 428 34 235 l 34 465 q 262 964 34 736 q 740 1146 471 1146 m 490 698 l 490 677 q 561 623 490 637 q 619 681 619 644 l 619 702 q 574 756 619 734 l 545 756 q 490 698 500 756 m 806 486 l 802 486 l 819 561 l 810 565 l 652 565 q 631 477 631 496 l 698 477 q 707 469 707 477 q 619 233 653 233 q 549 195 612 212 q 519 216 523 204 l 519 237 q 599 561 519 266 l 590 565 l 429 565 q 399 519 404 565 l 387 477 l 453 477 q 461 465 461 477 q 408 216 408 241 q 449 142 424 142 q 494 125 449 134 l 519 125 q 627 191 570 125 l 627 195 l 636 195 q 623 142 636 188 l 623 133 l 727 133 q 764 270 734 133 q 864 477 806 477 q 877 482 864 482 l 897 482 q 947 428 937 482 l 947 412 q 901 216 901 252 q 977 125 901 150 l 1005 125 q 1130 258 1099 125 l 1126 258 q 1093 270 1110 258 l 1088 270 q 1030 199 1065 199 l 1026 199 q 1010 229 1010 206 q 1055 436 1055 395 l 1055 461 q 968 573 1055 541 l 935 573 q 806 486 880 568 z "},"i":{"ha":1465,"x_min":34,"x_max":1426,"o":"m 705 1144 l 755 1144 q 1192 971 972 1144 q 1426 448 1426 744 q 1101 -141 1426 91 q 722 -248 914 -248 q 454 -191 611 -248 q 108 135 233 -89 q 34 439 34 303 l 34 456 q 330 1021 34 783 q 705 1144 531 1144 m 726 584 q 850 345 726 438 l 850 341 q 726 184 811 256 q 566 456 612 275 q 541 625 551 517 l 475 625 q 471 629 471 625 q 454 625 463 625 q 713 81 454 262 l 743 81 q 936 308 866 163 l 994 308 q 1002 316 1002 308 l 1002 378 q 903 411 1002 384 q 817 584 817 475 q 866 629 817 623 q 911 584 911 623 q 899 473 907 511 l 899 456 l 981 456 q 1002 584 999 456 q 870 720 1002 699 l 858 720 q 730 612 763 720 l 726 584 z "},"j":{"ha":1463,"x_min":27,"x_max":1428,"o":"m 703 1148 l 761 1148 q 1076 1057 921 1139 q 1428 448 1428 827 l 1428 402 q 1424 398 1428 398 q 1428 394 1424 394 q 1354 137 1407 238 q 964 -212 1230 -107 q 720 -253 827 -253 q 669 -245 669 -251 q 665 -249 665 -245 q 342 -137 542 -249 q 27 448 27 100 l 27 456 q 205 912 27 699 q 471 1099 353 1063 q 703 1148 603 1148 m 305 613 l 305 538 l 326 538 q 334 530 334 538 l 334 328 q 326 319 334 319 l 305 319 l 305 249 l 479 249 l 479 319 q 463 328 463 319 l 463 389 q 496 431 469 431 l 508 414 l 508 328 q 496 319 508 319 l 496 282 l 492 253 q 504 244 494 253 l 665 244 l 665 319 l 641 319 q 632 328 632 319 l 632 439 q 549 510 632 510 q 471 469 509 510 q 463 477 463 469 l 463 613 l 305 613 m 889 431 q 977 414 889 420 l 1006 431 l 1026 431 q 1051 402 1034 431 l 1051 365 q 1001 311 1040 311 q 972 336 976 320 q 981 369 981 357 q 931 406 981 392 q 873 348 873 392 l 873 340 q 989 240 873 262 q 1038 236 1002 236 q 1196 361 1196 252 l 1200 381 q 1084 497 1200 497 q 1076 501 1084 501 q 1006 485 1070 501 l 997 497 l 997 501 q 1014 518 997 508 l 1167 518 l 1167 576 l 1171 605 l 1159 613 l 943 613 q 910 530 910 613 q 889 431 906 530 m 728 581 l 728 530 q 736 522 729 522 l 827 522 l 827 589 l 736 589 q 728 581 728 587 m 674 497 l 674 431 q 703 418 701 431 l 703 328 q 694 319 703 319 l 674 319 l 674 253 q 682 244 675 244 l 831 244 l 861 249 l 861 319 l 840 319 q 831 328 831 319 l 831 497 q 823 506 831 506 l 682 506 q 674 497 674 505 z "},"k":{"ha":1463,"x_min":27,"x_max":1426,"o":"m 777 1146 q 1182 981 962 1146 q 1426 451 1426 749 q 1120 -129 1426 104 q 727 -249 937 -249 q 122 99 347 -249 q 27 451 27 267 q 321 1018 27 789 q 661 1146 481 1128 l 777 1146 m 342 650 l 342 202 q 383 161 347 161 l 1070 161 q 1112 202 1112 167 l 1112 645 q 1087 687 1112 670 l 366 687 q 342 650 342 672 m 387 645 l 391 645 q 640 442 431 618 q 727 372 683 404 q 1045 637 903 515 l 1050 629 q 867 451 972 561 l 1070 211 l 1070 202 l 838 430 l 834 430 q 727 318 834 418 l 611 426 q 379 198 497 307 l 379 206 l 586 451 q 387 645 553 489 z "},"l":{"ha":1467,"x_min":34,"x_max":1428,"o":"m 688 1146 l 774 1146 q 1040 1076 877 1146 q 1428 443 1428 859 q 1068 -165 1428 64 q 729 -252 884 -252 q 361 -144 553 -252 q 34 447 34 84 l 34 451 q 270 972 34 754 q 617 1138 402 1095 q 688 1146 673 1146 m 924 827 q 973 530 928 775 l 977 530 q 1035 538 1004 530 q 981 836 998 779 l 977 836 l 924 827 m 783 774 q 737 736 783 770 q 907 488 888 507 l 911 488 q 956 526 956 513 q 783 774 798 764 m 630 625 q 601 575 601 587 q 865 422 848 422 l 890 467 l 890 480 q 630 625 648 621 m 568 480 q 547 414 547 459 l 837 339 l 857 393 q 721 435 848 406 l 568 480 m 427 376 l 427 62 q 435 58 435 62 l 444 62 l 907 62 l 928 58 l 932 66 l 932 368 q 924 376 932 376 l 890 376 q 882 368 882 375 l 882 120 q 873 112 882 112 l 489 112 l 477 120 q 481 244 481 203 l 481 323 q 469 376 481 376 l 427 376 m 526 286 l 526 277 q 824 248 715 260 q 832 311 832 251 q 551 339 795 319 l 538 339 q 526 286 526 339 m 530 232 l 522 219 q 526 215 522 215 l 522 195 l 522 174 q 538 161 522 161 q 675 165 614 161 q 812 161 737 161 l 828 165 l 828 228 q 820 232 820 228 l 800 228 l 559 228 l 530 232 z "},"m":{"ha":1465,"x_min":34,"x_max":1426,"o":"m 713 1144 l 759 1144 q 1047 1070 870 1144 q 1426 444 1426 842 q 1080 -153 1426 75 q 759 -248 896 -248 l 705 -248 q 425 -178 594 -248 q 211 -14 311 -121 q 63 258 94 127 q 38 386 38 354 l 38 431 q 34 448 38 441 q 38 465 38 455 l 38 510 q 133 806 38 616 q 520 1111 280 1033 q 713 1144 640 1144 m 450 600 l 454 592 q 450 580 450 584 q 570 316 465 460 q 874 115 750 115 l 899 115 q 1019 226 1002 186 q 928 304 1019 250 q 866 341 890 338 q 800 296 835 326 q 631 465 743 296 l 619 506 q 672 572 672 551 q 598 732 613 722 l 582 732 q 458 629 553 732 l 450 600 z "},"n":{"ha":1456,"x_min":27,"x_max":1423,"o":"m 688 1146 l 762 1146 q 1084 1047 899 1146 q 1271 882 1155 1011 q 1423 448 1423 682 q 1213 -52 1423 175 q 717 -250 989 -250 q 382 -159 562 -250 q 159 43 282 -110 q 27 431 27 237 l 27 469 q 134 820 27 635 q 523 1117 267 1030 q 688 1146 579 1135 m 440 646 l 440 555 q 428 543 440 549 l 300 543 l 300 266 l 515 266 q 523 268 518 266 l 527 642 l 519 646 l 440 646 m 552 638 l 551 578 l 642 576 l 643 642 l 634 646 l 560 646 q 552 638 552 645 m 556 543 q 552 534 556 534 l 552 275 q 560 266 553 266 l 639 266 l 639 543 l 556 543 m 667 543 l 667 295 q 675 287 669 287 l 800 287 q 808 279 808 286 l 808 254 q 800 245 808 245 l 667 245 l 667 184 l 895 184 l 895 543 l 667 543 m 924 543 l 924 295 q 932 287 925 287 l 1056 287 q 1064 279 1064 286 l 1064 254 q 1056 245 1064 245 l 932 245 q 924 237 924 244 l 924 184 l 1151 184 l 1151 543 l 924 543 m 395 481 l 432 481 q 440 473 440 479 l 440 340 q 428 328 440 334 l 399 328 q 382 345 393 328 l 382 469 q 395 481 382 475 m 762 481 l 800 481 q 808 473 808 479 l 808 361 q 800 353 808 353 l 762 353 q 754 361 754 353 l 754 473 q 762 481 755 481 m 1019 481 l 1056 481 q 1064 473 1064 479 l 1064 361 q 1056 353 1064 353 l 1019 353 q 1010 361 1010 353 l 1010 473 q 1019 481 1012 481 z "},"o":{"ha":1465,"x_min":27,"x_max":1421,"o":"m 677 1146 l 772 1146 q 1132 1018 928 1146 q 1314 827 1250 924 q 1421 500 1421 631 l 1421 393 q 1322 83 1414 256 q 917 -223 1190 -130 q 739 -252 853 -240 q 726 -248 731 -248 l 718 -252 q 437 -186 522 -235 q 85 174 189 -69 q 27 447 27 300 q 383 1059 27 831 q 677 1146 559 1146 m 462 534 l 462 500 q 669 132 462 361 q 751 83 728 85 q 996 352 853 110 q 1041 522 1041 456 q 921 758 1041 652 q 764 815 839 815 l 730 815 q 565 749 652 807 q 462 534 462 637 m 755 699 q 921 563 871 699 q 925 517 925 534 q 813 360 925 418 q 776 352 787 352 l 730 352 q 586 459 651 352 l 573 522 q 606 612 590 612 q 665 563 630 563 l 681 563 q 743 625 743 578 l 743 637 q 714 691 743 655 q 755 699 721 696 z "},"p":{"ha":1470,"x_min":34,"x_max":1428,"o":"m 729 1146 q 1239 924 1019 1146 q 1428 443 1428 718 q 1145 -113 1428 114 q 729 -248 958 -248 q 128 97 359 -248 q 34 447 34 279 q 367 1043 34 807 q 729 1146 557 1146 m 450 698 q 425 760 429 705 l 420 760 q 375 603 391 745 q 334 517 351 582 l 342 513 q 355 521 345 513 q 359 517 355 517 q 342 422 342 471 q 564 97 342 231 q 701 64 659 64 l 745 64 q 1095 336 970 64 q 1128 505 1128 444 q 1124 537 1124 527 l 1120 537 q 1112 517 1120 517 q 1078 656 1103 593 q 1054 694 1059 694 l 1054 690 l 1058 661 l 1050 661 q 861 801 1034 722 q 783 821 789 821 l 684 821 q 486 735 577 808 q 450 698 486 730 m 729 792 q 902 730 826 792 q 861 722 895 726 l 861 718 q 1013 591 1013 654 l 1013 583 q 1004 574 1013 574 q 992 587 1004 581 l 984 587 l 984 583 l 996 492 q 992 475 992 485 l 992 447 q 984 439 992 439 q 960 479 966 479 l 964 451 l 964 435 q 922 299 964 335 q 918 303 922 303 q 926 344 922 313 l 918 344 q 787 241 880 272 l 766 241 q 626 295 701 241 l 626 307 l 630 307 q 779 361 712 307 q 803 369 803 361 l 803 377 q 745 406 780 406 q 680 381 720 406 l 655 381 q 568 451 616 381 l 568 455 q 593 479 568 461 l 647 467 l 651 475 l 651 488 q 639 533 639 528 q 705 591 705 581 l 705 595 q 647 607 705 604 q 606 648 647 610 q 659 735 606 684 l 655 735 q 560 686 606 722 l 556 686 l 519 690 q 494 682 512 690 l 490 690 q 729 792 596 792 z "},"q":{"ha":1465,"x_min":34,"x_max":1428,"o":"m 727 1148 q 1230 934 1012 1148 q 1404 637 1368 781 q 1428 475 1428 530 l 1428 426 q 1267 1 1428 211 q 739 -250 1040 -250 l 735 -250 q 459 -197 592 -250 q 228 -36 324 -136 q 46 311 96 91 q 34 406 34 366 l 34 492 q 162 855 34 658 q 347 1033 247 966 q 727 1148 537 1148 m 372 459 l 372 439 q 583 121 372 231 q 731 88 658 88 q 1069 319 953 88 q 1090 431 1083 366 l 1090 463 q 1082 517 1090 480 l 731 517 l 731 385 q 739 377 732 377 l 925 377 q 933 368 933 376 q 739 233 863 233 l 719 233 q 517 406 573 233 q 513 455 513 435 q 652 653 513 579 q 735 665 707 665 q 871 612 807 665 q 970 711 882 612 q 727 810 873 810 q 410 612 529 810 q 372 459 372 540 z "},"r":{"ha":1465,"x_min":34,"x_max":1436,"o":"m 717 1144 l 750 1144 q 1244 922 1013 1144 q 1421 568 1390 747 q 1425 342 1436 437 q 1363 144 1414 247 q 1194 -78 1310 39 q 733 -251 979 -251 q 165 41 397 -251 q 38 404 38 240 l 34 404 l 38 424 l 38 457 l 34 481 q 104 749 54 647 q 277 975 146 844 q 717 1144 495 1144 m 363 436 l 372 432 l 618 432 q 627 440 627 432 l 627 502 q 643 519 627 509 l 824 519 q 836 507 830 519 l 836 317 q 828 309 836 309 l 639 309 q 627 321 633 309 l 627 374 q 610 391 625 383 l 376 391 l 367 395 l 363 387 q 450 169 363 291 q 742 41 571 41 q 1087 300 975 41 q 1104 420 1104 368 q 886 753 1104 626 q 762 782 798 782 l 692 782 q 511 712 606 773 q 363 436 363 578 z "},"s":{"ha":1465,"x_min":34,"x_max":1421,"o":"m 703 1144 l 711 1140 l 736 1144 q 1294 852 1059 1144 q 1421 434 1421 669 q 1155 -100 1421 128 q 826 -239 1029 -203 q 760 -248 766 -248 l 703 -248 q 440 -186 599 -248 q 104 138 222 -81 q 34 426 34 292 l 34 467 q 334 1021 34 791 q 703 1144 529 1144 m 395 253 l 395 220 q 514 89 395 130 l 543 85 q 728 184 629 85 q 908 85 824 85 q 1060 216 1025 85 l 1060 237 q 970 471 1060 296 q 789 787 821 787 q 744 804 768 804 l 715 804 q 547 590 629 804 q 395 253 399 309 m 732 762 q 859 594 795 762 q 1019 249 995 342 l 1019 224 q 916 126 1019 148 l 904 126 q 760 220 833 126 q 851 426 850 339 q 740 536 827 536 l 724 536 q 608 426 608 521 l 608 405 q 699 216 608 335 q 559 126 617 126 l 530 126 q 444 192 485 126 q 436 229 436 218 l 436 249 q 625 652 436 279 q 732 762 670 762 m 703 496 l 752 496 q 806 426 806 470 l 806 422 q 736 257 806 358 l 728 257 q 650 409 650 349 l 650 430 q 703 496 650 466 z "},"t":{"ha":1465,"x_min":34,"x_max":1428,"o":"m 705 1145 l 758 1145 q 1008 1087 859 1145 q 1293 861 1151 1034 q 1428 478 1428 665 l 1428 400 q 1358 141 1428 305 q 976 -204 1230 -107 q 733 -250 850 -250 q 137 83 371 -250 q 34 446 34 273 q 367 1042 34 806 q 515 1107 439 1083 q 705 1145 571 1133 m 388 153 l 832 67 q 1078 125 1054 113 l 988 701 q 873 754 914 701 q 823 774 823 754 q 745 828 799 828 q 721 848 745 834 l 688 848 q 544 663 603 848 l 450 627 l 388 153 m 705 824 l 709 816 q 639 696 659 784 q 581 672 621 677 q 577 684 577 680 q 705 824 630 824 m 774 800 q 807 746 807 765 q 783 734 803 734 l 779 734 q 766 795 769 734 l 774 800 m 729 791 q 749 738 739 791 q 675 701 749 716 l 667 705 q 725 791 677 749 l 729 791 m 692 585 q 749 573 701 585 l 749 553 l 721 483 l 675 495 l 663 495 q 614 454 614 495 q 701 376 614 445 q 721 318 721 338 l 721 290 q 626 182 721 216 l 606 182 q 494 236 534 182 q 515 298 494 256 q 589 264 569 264 q 618 298 618 273 q 552 376 618 319 q 532 429 532 404 l 532 458 q 606 565 532 510 q 692 585 631 577 z "},"u":{"ha":1461,"x_min":34,"x_max":1426,"o":"m 724 1144 l 728 1144 q 1163 992 957 1144 q 1385 684 1333 839 q 1426 467 1426 551 l 1426 429 q 1192 -76 1426 161 q 724 -248 981 -248 q 153 60 380 -248 q 34 450 34 240 q 326 1013 34 783 q 724 1144 522 1144 m 424 479 q 564 273 424 346 q 646 261 604 261 q 863 393 772 261 l 867 413 q 814 467 863 467 l 806 467 q 699 380 783 467 q 650 368 663 368 l 642 368 q 531 491 551 368 q 663 659 531 541 q 703 721 703 692 q 642 779 703 779 q 461 606 611 779 q 424 479 424 557 m 593 467 q 650 425 612 425 q 757 511 673 425 q 814 528 783 523 q 925 437 890 528 q 929 417 925 424 q 810 249 929 348 q 757 171 757 198 q 814 117 757 123 q 1007 298 855 119 q 1036 405 1036 357 l 1036 417 q 888 623 1036 557 q 835 635 848 635 l 810 635 q 593 495 686 635 l 593 467 z "},"v":{"ha":1480,"x_min":34,"x_max":1433,"o":"m 682 1146 q 686 1142 686 1146 l 707 1146 l 760 1146 q 777 1142 770 1146 q 781 1146 781 1142 q 1119 1031 1004 1113 q 1413 622 1324 893 q 1433 481 1425 562 l 1433 412 q 1318 61 1433 257 q 731 -253 1088 -253 q 166 40 394 -253 q 34 449 34 229 q 265 964 34 738 q 608 1134 401 1089 q 682 1146 657 1138 m 463 655 q 574 457 549 512 l 578 457 q 595 511 586 457 q 752 602 644 602 l 1004 602 q 1029 602 1013 602 q 1041 606 1036 606 l 1041 618 q 740 800 920 800 q 463 671 577 800 l 463 655 m 385 453 l 385 440 q 380 436 385 436 q 505 180 380 303 q 673 102 611 102 l 694 102 q 806 300 806 289 l 802 300 q 731 288 762 288 q 546 469 626 288 q 442 638 449 634 q 385 453 385 562 m 604 444 q 736 313 627 313 l 744 313 q 871 449 859 313 q 764 572 852 572 q 740 581 764 576 q 604 444 604 559 m 826 572 q 897 440 897 518 q 768 189 897 385 q 723 106 756 157 l 723 98 l 744 98 q 1037 271 929 98 q 1082 404 1082 358 l 1082 481 q 1037 581 1076 581 l 835 581 q 826 572 826 579 z "},"w":{"ha":1474,"x_min":34,"x_max":1430,"o":"m 739 1146 q 1322 823 1095 1146 q 1430 475 1430 647 l 1430 417 q 1186 -89 1430 146 q 850 -242 1021 -215 q 780 -250 795 -250 l 692 -250 q 278 -85 494 -250 q 34 446 34 142 q 378 1050 34 823 q 739 1146 544 1146 m 672 761 q 593 612 635 612 q 544 574 593 608 l 544 492 q 552 483 545 483 l 610 483 q 618 475 618 482 l 618 255 q 734 115 618 160 q 780 111 762 111 l 800 111 q 920 135 871 111 q 892 239 920 148 q 833 227 850 227 q 776 301 785 227 l 776 483 q 784 492 777 492 l 896 492 l 896 595 l 784 595 q 776 604 776 595 l 776 761 l 672 761 z "},"x":{"ha":1472,"x_min":34,"x_max":1428,"o":"m 733 1144 q 1221 941 1008 1144 q 1428 449 1428 722 q 1238 -31 1428 180 q 956 -213 1069 -189 q 762 -250 846 -250 l 696 -250 q 266 -77 480 -250 q 34 416 34 148 l 34 474 q 237 941 34 727 q 733 1144 448 1144 m 460 39 q 501 -2 460 6 q 601 89 530 -2 q 758 263 682 188 l 886 263 q 969 374 969 263 q 1048 755 977 378 q 989 821 1040 821 l 530 821 q 460 751 460 811 l 460 39 m 911 734 q 952 709 952 732 q 907 585 937 585 l 741 585 q 700 553 700 585 q 729 503 700 503 l 869 503 q 903 478 903 498 q 865 354 888 354 l 733 354 q 617 234 703 354 l 551 163 l 547 172 l 547 709 q 597 734 553 734 l 911 734 z "},"y":{"ha":1493,"x_min":34,"x_max":1439,"o":"m 741 1146 q 1343 797 1114 1146 q 1439 444 1439 616 q 1202 -80 1439 151 q 758 -255 991 -255 l 715 -255 q 175 24 406 -255 q 34 452 34 214 q 358 1038 34 802 q 741 1146 536 1146 m 366 693 l 366 198 l 616 198 q 778 331 757 198 l 778 340 q 699 469 778 427 q 753 547 753 511 l 753 597 q 666 685 753 654 q 608 693 621 693 l 366 693 m 878 668 l 878 610 l 1065 610 q 1074 618 1074 610 l 1074 668 l 878 668 m 483 610 l 566 610 q 649 560 649 610 l 649 539 q 595 494 649 500 l 483 494 q 475 502 475 494 l 475 602 q 483 610 476 610 m 791 385 q 899 211 791 266 q 965 198 943 198 l 994 198 q 1123 273 1072 198 l 1144 315 l 1053 315 q 994 269 1052 293 l 982 269 q 890 348 905 269 l 890 356 l 899 360 l 1144 360 l 1152 365 l 1148 373 l 1148 377 q 1036 564 1148 522 l 1006 572 l 945 572 q 840 518 905 572 q 791 385 791 450 m 965 502 l 973 502 q 1048 427 1048 490 l 1048 422 l 895 422 l 895 439 q 965 502 895 485 m 483 418 l 578 418 q 670 360 670 418 l 670 327 q 600 281 648 281 l 483 281 q 475 290 475 281 l 475 410 q 483 418 476 418 z "},"z":{"ha":1485,"x_min":41,"x_max":1442,"o":"m 741 1144 q 1346 800 1114 1144 q 1442 439 1442 627 q 1160 -116 1442 111 q 774 -253 968 -253 l 716 -253 q 194 8 425 -253 q 41 452 41 214 q 153 821 41 631 q 555 1119 273 1024 q 741 1144 659 1144 m 418 821 l 414 812 l 414 709 q 426 696 414 703 q 431 701 431 696 q 804 559 618 701 q 990 282 956 414 q 1019 124 1019 198 l 1019 100 q 1027 91 1020 91 l 1131 91 q 1143 104 1137 91 q 1069 414 1143 236 q 899 634 1027 509 q 418 821 686 821 m 418 581 l 414 572 l 414 465 q 422 456 415 456 l 451 456 q 700 323 572 456 q 779 120 779 211 l 779 104 q 791 91 779 98 l 890 91 l 903 100 q 837 340 899 206 q 538 564 734 505 q 455 581 455 578 l 447 576 l 418 581 m 414 208 l 414 186 q 492 100 440 100 q 513 91 492 91 l 530 91 q 629 191 629 117 l 629 203 q 547 307 629 278 q 522 311 525 311 q 414 208 414 290 z "},"{":{"ha":688,"x_min":0,"x_max":0,"o":""},"|":{"ha":688,"x_min":0,"x_max":0,"o":""},"}":{"ha":688,"x_min":0,"x_max":0,"o":""},"~":{"ha":688,"x_min":0,"x_max":0,"o":""},"":{"ha":456,"x_min":0,"x_max":0,"o":""},"":{"ha":772,"x_min":0,"x_max":0,"o":""},"":{"ha":688,"x_min":0,"x_max":0,"o":""},"":{"ha":688,"x_min":0,"x_max":0,"o":""},"":{"ha":856,"x_min":0,"x_max":0,"o":""},"":{"ha":688,"x_min":0,"x_max":0,"o":""},"":{"ha":688,"x_min":0,"x_max":0,"o":""},"":{"ha":694,"x_min":0,"x_max":0,"o":""},"":{"ha":977,"x_min":47,"x_max":947,"o":"m 604 1148 q 609 1132 609 1148 q 610 1088 610 1113 l 610 1029 q 601 1017 610 1017 q 586 1015 593 1015 l 580 1015 q 545 1019 549 1015 q 523 1061 536 1027 l 518 1071 q 513 1020 513 1044 l 513 1009 q 509 1005 512 1005 l 508 1005 q 481 1014 499 1005 q 472 1023 472 1020 q 475 1031 474 1031 q 475 1050 475 1043 l 475 1081 q 473 1133 475 1096 q 503 1142 477 1138 l 511 1143 q 519 1128 516 1143 q 549 1081 529 1102 q 559 1069 555 1073 l 559 1069 q 562 1139 561 1095 q 577 1146 562 1146 q 604 1148 580 1146 m 365 1118 q 401 1103 389 1118 q 420 1076 414 1096 q 423 1062 423 1069 l 423 1053 q 420 1018 421 1029 q 400 968 418 1008 q 382 949 397 962 q 358 939 377 943 q 349 937 352 937 l 347 937 q 319 945 333 937 q 302 960 309 949 l 294 981 q 289 1010 289 991 l 289 1028 q 313 1093 289 1076 q 348 1118 336 1118 l 365 1118 m 671 1116 q 696 1112 690 1114 q 753 1093 710 1105 q 769 1081 769 1086 l 769 1080 q 758 1028 760 1031 q 754 1025 758 1025 q 708 1029 750 1025 q 694 917 699 965 q 691 884 693 884 q 689 883 690 884 q 672 894 672 887 l 672 895 q 680 1029 675 983 q 675 1033 680 1033 q 646 1029 667 1033 q 642 1034 642 1031 q 646 1093 642 1058 q 645 1095 645 1095 q 658 1114 645 1112 q 671 1116 659 1114 m 224 1058 q 235 1038 229 1058 q 244 1018 239 1027 l 244 1015 q 208 992 244 1010 l 178 976 l 178 963 q 182 928 178 945 q 231 945 188 928 l 235 945 q 241 926 241 945 q 243 909 243 916 q 220 891 243 906 q 193 881 203 881 q 189 861 189 878 l 189 795 q 193 766 189 788 l 193 755 q 160 734 190 749 q 157 739 157 735 l 157 740 q 161 749 160 743 q 155 770 156 749 q 138 928 148 846 q 130 994 130 972 l 126 1003 q 140 1013 127 1006 q 204 1047 170 1038 q 222 1057 220 1053 q 224 1058 222 1058 m 838 1009 q 847 1005 841 1006 l 848 1003 l 848 1000 q 864 981 864 985 l 864 979 q 850 960 864 977 q 823 932 850 957 q 840 913 823 928 q 860 893 849 903 q 862 888 862 890 l 862 886 q 831 844 862 879 q 774 768 789 789 q 768 766 771 766 q 746 781 753 771 q 745 785 745 781 q 758 804 758 804 q 776 840 763 812 q 798 872 785 854 q 798 873 798 873 q 772 892 796 878 q 751 913 751 909 q 804 974 751 919 q 834 1008 819 990 q 838 1009 836 1009 m 511 980 l 516 980 q 577 966 552 980 q 606 947 593 960 q 623 918 621 929 q 623 916 623 918 l 623 911 l 623 908 q 640 895 627 904 q 660 873 645 886 q 685 836 667 861 q 703 786 703 801 q 706 738 706 773 l 704 706 q 700 701 700 703 l 701 697 l 701 697 q 717 705 709 705 q 739 690 729 705 q 743 675 743 682 q 732 640 743 654 q 728 606 730 634 q 720 592 724 596 l 718 592 q 715 594 715 592 q 711 590 715 594 q 712 584 711 584 l 712 581 l 712 566 l 714 551 q 712 536 714 544 q 731 462 731 477 l 731 458 q 723 363 731 404 q 713 254 713 299 q 712 239 713 254 l 713 239 q 738 241 715 240 q 747 242 738 241 q 754 226 751 242 q 760 200 760 212 l 760 194 q 755 181 759 181 l 736 177 q 690 167 716 172 l 690 166 q 690 144 690 151 l 685 102 q 672 46 672 48 q 665 -26 669 27 q 695 -29 682 -28 q 741 -22 705 -29 q 763 -21 747 -22 q 779 -14 763 -14 q 790 -12 779 -14 l 791 -12 q 803 -18 803 -13 q 817 -56 808 -21 q 821 -73 821 -66 q 811 -92 821 -88 q 805 -94 808 -94 l 802 -94 q 777 -56 788 -94 l 777 -56 q 745 -67 772 -61 q 671 -86 690 -79 q 635 -102 652 -93 q 608 -117 613 -117 q 586 -94 599 -117 q 541 -32 572 -73 q 483 43 494 31 q 475 50 476 50 q 398 -12 442 24 q 351 -43 375 -29 l 298 -87 q 267 -125 273 -111 q 256 -142 262 -130 l 243 -163 q 241 -163 241 -163 q 205 -151 220 -159 q 170 -111 170 -132 q 182 -96 170 -96 q 218 -105 203 -96 l 220 -105 q 229 -96 224 -105 q 248 -56 239 -87 q 265 -5 260 -21 q 296 73 273 15 q 317 140 306 92 q 320 153 318 149 q 316 166 317 153 q 306 229 313 178 q 288 296 301 255 q 284 300 284 296 l 284 302 q 286 302 285 302 q 274 366 281 321 q 271 372 274 366 l 241 372 q 180 380 189 372 q 172 429 178 385 q 166 474 166 462 l 166 481 q 175 560 166 505 q 176 561 176 560 q 163 597 165 578 q 159 621 159 610 q 164 629 159 629 l 166 629 q 177 623 170 629 q 186 611 180 620 q 193 625 188 625 l 195 625 q 200 612 198 625 l 201 612 q 207 617 203 617 q 216 602 212 617 q 227 610 222 610 q 235 598 235 609 l 235 595 q 225 563 235 583 q 216 554 218 555 q 223 477 223 508 l 223 454 q 222 436 223 448 l 222 436 q 254 435 239 435 q 293 435 264 435 q 290 446 290 441 q 279 469 285 446 l 279 471 q 283 489 279 477 q 278 506 278 500 l 278 509 q 282 521 278 515 q 289 545 286 542 l 289 551 l 289 551 q 295 566 289 563 q 300 569 300 567 q 289 624 289 590 l 289 645 q 300 692 289 663 q 303 762 302 703 q 311 810 307 793 q 334 862 326 846 q 351 883 348 882 q 363 899 353 885 q 387 918 385 918 q 384 928 385 921 q 395 947 384 939 q 414 961 401 957 q 462 976 448 972 q 511 980 505 980 m 582 935 l 582 935 l 597 926 l 608 920 q 587 935 599 935 l 582 935 m 419 907 q 391 913 402 907 q 364 890 387 913 q 351 874 362 886 q 337 855 342 862 q 326 829 331 842 q 309 734 309 794 l 309 726 l 309 726 q 327 766 310 734 q 346 774 334 774 q 373 766 363 774 q 377 766 375 766 q 387 766 381 766 q 404 760 404 763 q 408 752 407 760 l 408 749 q 391 735 408 735 q 359 741 361 736 q 345 743 351 743 q 330 734 334 743 q 313 718 315 720 q 305 686 311 701 q 296 651 299 674 q 295 645 296 651 q 305 574 295 586 q 315 547 313 553 q 319 546 316 546 l 320 544 l 320 543 q 319 539 319 539 q 333 523 333 530 q 349 500 338 515 l 359 488 l 376 477 q 382 473 377 477 l 382 473 q 392 496 386 490 q 395 505 394 496 q 404 515 398 512 q 412 527 407 515 q 419 538 412 530 q 422 555 422 544 l 422 560 q 422 581 422 568 q 425 587 422 587 q 429 584 427 587 q 429 581 429 584 q 429 559 429 576 q 425 538 429 545 q 444 553 435 549 q 450 555 446 555 l 450 557 q 449 556 450 556 q 433 565 444 560 q 429 572 429 570 l 429 574 q 439 584 429 581 l 443 584 q 450 579 450 581 l 450 578 q 448 576 450 577 q 442 578 445 576 l 441 578 q 435 573 435 578 q 437 571 436 571 q 442 574 439 574 q 450 569 445 574 q 463 565 456 565 l 464 565 q 486 576 468 565 q 492 578 488 577 q 497 572 495 578 q 504 581 504 575 q 497 595 503 587 q 492 611 496 596 q 486 627 486 621 l 486 628 q 489 632 486 631 q 488 640 488 635 l 489 642 q 487 680 488 665 q 483 702 483 697 q 491 740 483 726 q 511 768 494 748 q 541 788 533 788 q 578 790 541 789 q 633 785 633 789 q 648 768 648 781 q 639 758 645 758 l 639 754 q 619 737 639 747 l 618 736 l 625 724 q 650 696 647 708 q 656 676 656 688 l 656 671 q 659 654 658 667 q 650 630 659 646 q 623 606 631 608 q 564 587 595 587 q 516 605 547 587 q 494 623 501 610 l 494 622 q 502 598 502 603 q 510 581 510 590 q 491 563 510 568 l 490 563 l 481 566 q 477 564 477 564 l 477 564 l 483 564 q 496 554 488 564 q 510 546 505 550 q 518 538 515 546 l 519 538 q 526 537 522 538 q 513 570 521 553 l 513 570 q 516 576 513 574 l 517 576 q 520 573 520 576 l 519 570 q 533 537 528 555 q 538 534 534 535 q 543 528 538 533 q 555 514 547 514 q 559 510 559 513 l 574 515 l 574 515 l 574 516 q 584 532 574 528 l 586 532 q 590 530 587 532 q 603 533 600 533 l 604 533 q 610 531 605 533 q 637 553 629 553 q 645 558 645 553 q 656 570 648 563 q 666 576 656 571 q 677 598 677 589 q 686 623 680 610 l 686 625 q 681 643 685 643 q 673 649 673 648 q 673 651 673 650 q 677 667 673 653 l 677 669 l 675 680 q 676 694 676 692 l 676 699 q 680 707 676 707 q 680 707 680 707 q 684 706 683 706 q 697 711 697 711 q 699 743 699 720 q 688 815 699 791 q 663 857 680 833 q 648 876 652 872 q 635 890 642 880 l 619 902 q 612 910 613 907 q 582 928 594 922 q 568 934 572 934 l 530 918 q 486 910 520 914 q 419 907 444 907 m 589 890 q 615 883 591 890 q 622 878 622 883 l 622 878 q 620 876 622 878 q 591 883 616 876 l 588 883 q 569 881 572 881 l 567 881 q 555 882 560 881 q 550 882 553 882 l 549 883 l 549 886 q 554 888 549 887 q 568 887 566 887 q 589 890 587 890 m 591 865 q 623 852 604 865 q 627 849 627 852 q 623 846 627 847 q 610 853 621 846 q 593 858 599 858 l 589 858 q 548 852 587 858 q 464 848 515 852 q 461 851 461 848 l 461 852 q 478 854 461 854 q 553 859 517 858 q 591 865 585 865 m 652 865 q 657 861 655 865 l 657 859 q 653 857 655 857 q 648 861 648 857 q 652 865 649 865 m 424 854 q 427 851 427 853 q 414 846 427 848 q 374 836 388 836 l 368 836 q 363 839 363 836 q 366 842 364 840 l 371 842 q 410 852 387 842 q 424 854 410 852 m 653 844 q 656 839 656 842 q 653 835 656 836 l 652 835 q 648 838 648 836 q 653 844 650 844 m 576 842 q 623 827 594 842 q 633 823 633 825 l 633 823 q 629 819 633 819 q 596 832 625 819 q 575 836 588 835 q 532 833 538 833 l 531 833 q 528 836 528 833 q 532 839 529 839 q 576 842 570 842 m 671 838 q 675 836 675 837 l 675 834 q 671 829 675 829 q 667 833 667 830 q 671 838 667 838 m 416 829 q 419 826 419 828 q 389 819 419 821 q 348 810 360 814 q 341 805 343 805 l 341 805 q 338 808 339 806 q 382 824 338 819 q 414 829 392 826 q 416 829 414 829 m 661 827 q 664 823 663 827 l 664 822 q 659 818 664 818 q 655 822 655 819 q 661 827 657 827 m 576 823 q 603 818 603 822 q 623 807 612 810 q 635 795 634 800 l 635 795 q 633 793 635 793 l 631 793 q 612 804 621 804 q 597 814 606 807 q 584 816 592 816 l 571 816 q 490 812 504 814 q 487 816 488 812 q 503 820 487 820 q 576 823 504 820 m 678 818 l 679 818 q 684 814 684 817 q 679 810 682 810 l 678 810 q 675 814 675 811 q 678 818 675 816 m 431 811 q 435 808 435 811 l 435 807 q 414 802 435 804 q 401 802 404 802 q 363 792 399 802 q 332 781 349 791 q 328 779 330 779 q 324 783 324 779 q 333 789 325 785 q 378 802 341 795 q 401 808 393 808 l 415 808 l 431 811 m 661 807 q 666 802 666 806 q 661 799 666 800 q 657 801 658 800 l 657 803 q 661 807 658 807 m 674 801 l 675 800 l 677 801 q 680 798 680 800 q 675 793 679 793 l 675 793 q 670 798 670 793 q 674 801 670 800 m 690 791 q 694 786 694 791 q 690 781 693 781 l 688 781 q 684 787 684 781 q 690 791 686 791 m 665 786 q 669 783 668 786 q 665 778 668 778 l 663 778 q 661 781 662 778 l 661 783 q 665 786 663 786 m 676 779 l 679 779 q 681 774 680 779 q 676 768 680 768 q 673 772 673 768 q 676 779 675 779 m 688 767 l 690 767 q 694 764 692 767 l 694 762 q 690 758 694 759 l 688 758 q 686 763 686 760 q 688 767 686 766 m 669 764 l 671 764 q 675 759 675 762 q 670 755 673 755 q 666 761 666 756 q 669 764 666 764 m 481 755 q 484 753 483 755 q 479 743 484 751 q 460 719 471 719 l 458 719 q 443 726 443 721 l 443 726 q 447 729 444 729 q 459 725 455 725 q 475 749 466 725 q 481 755 479 755 m 682 749 l 683 749 q 686 745 686 749 q 682 741 685 741 l 682 741 q 679 745 679 743 q 682 749 679 747 m 693 743 q 696 739 696 742 q 692 734 696 736 q 690 737 690 735 l 690 739 q 693 743 690 743 m 673 740 q 680 734 680 739 q 677 730 679 730 q 670 737 670 730 q 673 740 670 739 m 370 734 l 378 734 q 414 720 397 734 q 437 683 437 705 l 437 677 q 436 663 437 674 q 437 660 437 661 l 437 659 q 435 657 436 657 l 435 654 q 439 644 439 652 l 439 638 q 431 619 439 630 q 420 605 430 612 q 404 595 420 605 q 378 589 387 589 l 371 589 q 326 604 346 589 q 311 614 317 609 q 302 632 307 614 q 300 647 300 642 q 311 689 300 667 l 328 708 q 364 717 336 714 q 401 702 385 717 q 430 673 430 682 l 431 673 l 431 678 l 431 681 q 409 715 431 703 q 374 728 397 728 q 343 721 352 728 q 334 718 336 718 q 332 722 332 720 q 345 729 332 724 q 370 734 352 734 m 690 727 l 691 727 q 698 722 698 726 q 693 719 696 719 q 688 724 688 719 l 688 725 q 690 727 688 726 m 514 646 l 515 643 q 543 657 524 652 q 582 663 558 663 q 614 656 610 661 q 642 646 629 652 l 643 646 q 648 669 648 660 l 648 671 q 650 672 650 672 l 650 675 q 640 702 650 687 q 616 721 629 715 q 593 726 605 726 l 589 726 q 538 702 566 726 q 514 653 515 675 l 514 646 m 680 723 q 684 718 684 721 q 679 713 682 713 q 674 719 674 715 q 680 723 674 723 m 441 715 l 441 715 q 448 704 446 715 q 451 685 451 697 l 451 675 q 450 643 450 646 l 450 641 l 451 638 q 448 635 450 635 l 446 635 q 444 638 444 636 q 445 686 444 657 q 439 713 445 693 q 441 715 439 713 m 306 647 q 312 625 309 625 q 340 644 315 629 q 389 659 351 654 q 404 659 399 659 q 408 659 406 659 l 408 659 q 427 657 411 659 q 428 657 427 657 q 418 681 428 668 q 371 710 385 710 l 361 710 q 331 701 334 707 q 313 677 313 682 q 306 647 306 661 m 475 707 q 477 705 475 707 l 477 699 l 477 698 q 478 677 477 686 q 476 673 477 674 l 475 673 q 471 682 471 673 q 470 699 470 696 q 475 707 470 707 m 587 700 l 587 700 q 612 692 597 700 q 613 690 612 691 l 613 688 q 610 686 612 686 q 589 693 599 693 l 583 693 q 575 692 581 693 q 572 695 572 692 l 572 696 q 587 700 572 699 m 696 683 q 696 669 696 682 q 696 657 696 667 q 707 646 705 657 q 720 610 707 623 l 721 606 q 724 637 722 606 q 725 640 725 637 l 724 640 q 718 652 720 640 q 718 657 718 654 q 726 671 718 665 l 728 675 l 728 676 q 723 682 728 681 q 710 671 715 682 q 707 667 710 667 q 703 671 705 667 q 713 686 703 677 q 723 688 718 688 l 723 688 q 734 675 732 688 q 727 664 731 664 q 725 659 725 661 l 725 654 q 726 644 725 652 l 727 644 q 736 671 736 659 l 736 675 q 732 690 736 683 q 718 698 723 698 l 715 698 q 700 688 711 698 q 696 683 700 687 l 696 683 m 368 692 q 394 682 383 692 l 394 681 q 391 678 394 678 q 371 685 378 685 l 368 685 q 353 680 359 685 q 349 683 349 680 q 368 692 349 690 m 142 659 l 144 659 q 147 656 147 659 q 140 619 140 635 q 147 593 140 604 q 144 591 146 591 q 134 618 136 591 l 134 623 q 142 659 134 640 l 142 659 m 713 659 l 715 659 q 717 656 715 659 l 717 656 q 713 651 717 654 l 713 650 q 721 635 721 638 q 717 630 721 630 l 715 630 q 713 632 715 630 l 713 634 q 715 635 715 635 q 707 648 709 646 l 707 651 q 713 659 709 659 m 231 657 q 249 638 237 656 q 258 606 258 623 l 258 605 q 252 591 258 591 l 252 591 q 250 593 251 591 l 250 595 q 252 606 252 598 q 231 649 252 630 q 229 648 230 648 q 226 652 227 648 q 231 657 227 657 m 601 654 l 601 654 q 605 651 602 654 l 606 651 l 606 654 l 603 654 l 601 654 m 416 652 l 416 651 q 423 627 420 647 l 423 625 q 420 614 423 623 l 422 614 l 431 632 q 433 642 433 636 q 429 649 433 649 l 429 649 q 426 645 429 645 q 422 651 424 645 q 420 652 421 652 l 416 652 m 264 652 q 269 640 267 652 q 273 629 273 635 l 273 627 q 269 623 272 623 l 267 623 q 265 627 265 624 l 267 629 q 262 643 267 631 q 260 649 260 648 q 264 652 260 652 m 612 650 q 610 644 612 646 q 612 632 612 640 l 612 630 q 608 614 612 623 l 609 614 q 629 629 620 618 q 637 642 637 637 q 624 646 629 645 l 624 641 l 625 638 q 622 635 624 636 l 620 635 q 617 643 618 635 l 618 649 q 612 650 614 650 m 537 645 q 537 643 537 645 q 535 640 536 641 l 533 640 q 530 646 530 641 q 529 645 530 645 l 530 644 l 529 641 q 530 635 530 636 q 527 632 530 632 l 526 632 q 523 642 523 633 q 518 637 520 640 l 518 635 q 542 614 538 614 q 547 612 545 612 l 547 612 q 541 631 541 624 q 543 650 541 643 q 537 646 537 649 l 537 645 m 475 648 q 477 644 477 647 l 477 644 q 478 632 477 638 l 477 624 q 481 606 477 622 l 481 603 q 475 589 481 595 l 473 589 q 471 591 473 589 l 471 591 q 474 600 471 593 q 475 605 475 603 q 471 622 471 620 q 472 633 471 623 q 471 643 472 635 q 475 648 471 648 m 112 646 l 115 646 q 117 643 117 645 q 112 625 112 637 q 120 605 113 616 l 120 604 q 117 602 119 602 q 106 625 106 610 l 106 627 q 112 646 106 642 m 348 642 q 350 632 348 640 l 351 632 q 351 643 351 640 q 351 643 351 643 l 351 643 q 348 642 348 642 m 336 633 q 339 626 336 629 l 339 624 q 336 622 338 622 q 330 630 332 622 q 327 627 327 628 q 328 616 328 618 q 325 614 328 614 l 324 614 q 321 624 322 614 q 316 619 316 621 q 356 596 336 601 q 374 595 359 595 l 375 595 l 375 595 q 355 612 365 598 q 351 628 351 623 q 347 627 349 627 q 342 638 344 627 q 336 633 339 636 m 564 632 q 563 628 563 629 q 568 623 567 623 l 569 625 l 569 627 l 564 632 m 82 632 q 84 630 84 631 q 83 621 83 622 q 89 615 83 621 l 89 614 q 85 611 89 611 q 77 621 77 614 l 77 623 q 81 632 77 632 l 82 632 m 373 629 l 373 627 q 379 618 373 618 q 381 621 381 619 l 381 622 q 373 629 381 627 l 373 629 m 439 625 q 441 624 441 625 l 441 622 q 429 602 433 604 q 397 581 414 586 q 364 572 376 572 q 351 576 351 573 l 351 576 q 354 580 351 580 q 362 578 360 578 l 364 578 q 415 597 385 578 q 431 614 431 610 q 437 625 437 625 l 439 625 m 165 623 l 165 620 q 177 571 165 600 q 182 564 182 566 l 181 563 q 202 565 194 565 q 216 561 212 565 q 220 568 216 562 q 229 597 229 585 q 227 604 229 604 l 227 604 q 217 589 220 599 q 214 587 215 587 q 210 600 210 587 l 207 610 q 202 595 205 610 q 201 594 201 594 l 199 594 q 195 605 196 594 q 193 614 195 606 q 191 605 192 614 l 191 593 q 189 591 191 593 l 189 591 q 182 603 184 591 q 165 623 174 620 m 653 611 l 654 611 q 656 608 656 610 q 645 591 656 600 q 618 568 634 578 q 582 560 597 560 l 576 560 q 546 564 547 561 q 545 567 545 566 l 545 568 q 548 570 547 570 q 578 566 557 566 q 620 576 600 566 q 650 608 650 599 q 653 611 650 611 m 445 509 q 443 509 444 509 q 429 493 438 497 q 428 492 428 493 q 439 485 433 485 l 439 485 q 453 492 444 492 q 465 498 460 497 q 473 496 469 496 q 480 503 475 496 q 485 505 483 505 l 485 506 q 476 511 481 506 l 473 510 q 461 515 467 510 q 445 509 452 509 m 491 505 l 491 505 q 496 501 492 505 l 499 502 q 502 500 500 502 l 502 496 q 500 472 502 485 q 502 469 501 469 q 517 483 502 470 q 518 486 518 485 q 517 493 517 492 q 504 500 509 493 q 494 505 496 505 l 491 505 m 425 484 q 424 479 425 484 q 424 477 424 478 q 421 470 422 474 q 435 458 425 470 q 443 454 436 458 q 446 461 446 457 q 439 475 441 461 q 435 477 439 477 q 427 484 435 479 q 426 484 427 484 l 425 484 m 681 417 q 627 417 642 417 q 615 412 621 417 q 608 408 610 409 l 608 407 q 602 382 608 388 q 591 379 597 379 l 591 379 l 591 378 q 579 359 591 365 q 576 353 577 359 q 567 345 574 347 q 552 330 559 345 q 555 325 553 325 q 629 330 591 329 q 660 334 648 333 q 669 336 660 335 q 673 337 670 337 q 673 356 673 352 q 671 385 673 368 q 673 387 671 385 l 674 387 q 679 383 677 387 l 678 380 q 680 356 680 366 l 680 356 q 679 336 680 347 q 682 303 682 315 l 682 286 q 692 286 688 286 l 701 286 q 709 287 704 286 q 718 377 709 309 q 724 420 724 403 l 723 420 q 720 420 720 420 q 681 417 716 420 m 182 402 q 186 384 184 384 q 253 378 195 378 l 262 378 q 273 381 270 378 q 279 377 277 381 l 279 377 q 278 373 278 374 q 289 317 282 362 q 294 302 292 302 l 295 302 q 406 310 323 302 l 406 311 q 408 319 406 313 q 392 329 399 319 q 388 336 389 336 l 387 336 q 384 336 386 336 q 367 347 379 336 q 359 355 364 349 q 338 363 345 357 q 328 380 328 372 l 328 382 q 331 389 328 385 l 331 389 l 320 398 q 315 408 315 404 l 315 409 q 183 403 216 407 q 182 402 183 402 m 841 382 q 855 382 850 382 q 859 368 859 382 q 859 354 859 359 l 860 354 q 867 360 864 360 l 868 360 q 876 347 870 359 q 884 335 884 335 q 899 364 894 345 q 901 366 901 366 l 903 366 q 919 351 908 366 q 920 347 920 349 l 920 345 q 901 288 911 321 q 895 282 899 282 l 895 282 q 868 312 889 282 q 863 319 864 319 q 854 286 856 289 l 851 285 q 836 341 845 285 q 831 370 831 360 q 834 377 831 376 l 835 377 l 837 376 q 841 382 837 381 m 753 361 l 753 361 q 755 359 754 361 q 762 361 755 359 l 762 361 q 768 348 766 361 q 770 332 768 347 q 779 344 777 344 l 779 344 q 788 331 781 343 l 790 329 q 801 359 795 359 l 803 359 q 823 351 823 358 q 823 350 823 351 q 816 319 823 348 q 812 279 814 293 q 801 265 808 265 q 777 298 791 265 l 776 298 q 766 267 766 276 q 762 264 764 264 q 753 300 757 264 q 747 347 747 342 q 749 353 747 351 q 747 357 747 356 l 747 358 q 753 361 749 361 m 177 321 l 178 321 q 191 293 184 315 l 191 290 q 182 283 191 286 q 179 272 179 281 l 179 265 q 191 248 179 251 l 196 248 q 200 244 200 248 l 200 227 q 187 221 195 221 q 158 246 166 221 q 155 266 155 254 q 166 312 155 292 q 177 321 173 321 m 98 319 q 135 301 109 319 q 144 283 144 293 q 126 256 144 264 q 121 254 121 256 q 142 231 142 244 q 121 203 142 212 l 114 203 q 94 211 103 203 l 93 214 l 95 278 l 95 285 q 94 317 95 296 q 98 319 95 319 m 212 316 l 214 316 q 234 308 228 316 q 243 277 238 288 l 246 271 l 246 281 q 244 313 246 291 q 256 316 244 316 q 262 304 261 316 q 275 237 266 271 q 277 231 276 237 q 264 224 277 228 q 260 222 264 223 q 251 234 257 222 q 243 243 244 242 l 243 242 q 245 218 243 239 q 241 216 243 216 l 228 216 l 222 215 l 222 215 q 218 218 219 215 q 214 229 214 218 q 208 310 211 310 l 208 312 q 212 316 208 316 m 682 279 l 682 256 l 681 252 q 682 251 682 251 l 682 250 q 681 248 681 250 q 680 234 680 239 q 685 226 680 228 l 701 222 q 705 226 702 224 q 708 275 708 261 l 708 280 l 698 280 q 682 279 688 280 m 323 216 l 321 216 q 315 216 317 216 l 315 216 q 323 161 319 180 q 348 144 323 154 q 433 130 361 138 l 524 125 q 631 132 589 125 q 682 137 661 137 q 684 145 684 139 q 684 165 684 160 q 655 156 663 162 q 624 148 637 148 q 602 142 610 146 q 588 145 599 144 q 543 164 543 154 q 573 191 546 175 q 589 207 585 203 l 592 207 q 594 203 594 206 q 652 222 604 203 q 667 224 656 222 q 668 224 667 224 q 674 235 671 235 l 674 243 l 675 249 l 674 249 q 511 232 615 241 q 406 223 484 229 q 323 216 383 220 m 675 226 q 671 184 671 206 q 672 179 671 179 q 679 190 676 181 q 679 193 679 191 l 679 197 q 683 201 679 201 q 686 191 686 201 q 690 183 686 186 l 691 183 q 694 191 694 186 l 694 193 q 694 199 694 195 q 697 203 694 203 q 702 194 702 202 q 707 187 705 188 l 708 187 q 711 193 709 187 l 711 197 l 711 201 q 713 204 711 203 l 714 204 q 718 200 718 204 l 718 195 q 723 191 719 191 l 725 193 l 725 197 q 711 218 718 218 q 707 208 711 208 l 706 208 q 703 213 705 208 q 682 220 699 217 q 675 226 677 224 m 725 213 q 731 194 731 202 q 730 189 731 193 q 753 195 753 192 q 750 216 753 210 q 730 215 743 215 q 725 213 730 214 m 589 197 l 588 197 q 561 176 575 184 q 561 174 561 175 l 561 172 q 562 159 561 170 l 562 159 q 595 151 571 154 q 602 150 598 150 q 608 162 607 156 l 608 163 l 606 163 q 602 161 604 161 q 598 164 598 161 q 604 170 598 166 q 606 175 606 174 l 606 176 q 601 178 606 177 q 595 176 597 176 q 593 180 593 178 q 599 184 593 182 q 600 189 600 187 l 600 191 q 595 197 600 195 q 589 197 591 197 m 606 183 q 612 176 612 181 l 612 174 q 610 169 612 172 q 613 165 612 169 q 650 173 650 170 q 665 178 656 176 q 665 183 665 180 l 665 197 l 663 197 q 647 193 661 197 q 612 189 631 190 q 606 184 606 186 q 606 183 606 184 m 682 182 q 682 181 682 182 l 684 181 l 684 181 q 682 182 684 182 m 550 164 q 551 163 550 163 l 551 163 q 550 164 551 164 l 550 164 m 770 -20 l 770 -21 q 777 -35 773 -22 q 779 -43 777 -43 q 783 -48 782 -43 l 782 -50 q 803 -87 792 -87 l 804 -87 q 815 -73 815 -87 q 801 -25 815 -66 q 795 -19 797 -19 l 790 -19 q 770 -20 772 -20 m 901 -28 q 917 -30 911 -29 q 922 -29 920 -29 q 926 -33 926 -30 q 918 -53 926 -35 q 918 -56 918 -53 l 942 -64 q 947 -68 947 -66 l 947 -71 q 930 -132 940 -122 l 928 -132 q 914 -127 919 -127 q 913 -125 913 -126 q 919 -79 916 -94 l 919 -78 q 886 -73 919 -75 q 883 -68 883 -70 l 883 -68 q 899 -29 890 -44 q 901 -28 899 -29 m 860 -75 q 874 -82 874 -77 l 874 -84 q 862 -97 874 -89 q 867 -106 867 -104 q 876 -100 871 -106 q 878 -99 878 -99 q 888 -111 884 -99 l 888 -112 q 876 -125 888 -117 q 880 -136 876 -126 q 889 -127 882 -136 l 891 -127 q 908 -144 908 -143 l 908 -146 q 888 -163 897 -153 q 876 -172 880 -172 q 862 -151 871 -172 q 839 -98 850 -127 q 835 -95 835 -96 l 835 -94 q 852 -79 835 -91 q 860 -75 857 -75 m 176 -109 l 176 -111 q 223 -152 176 -132 q 239 -156 228 -154 q 254 -131 253 -136 q 222 -116 243 -124 q 220 -111 221 -114 l 220 -112 q 203 -105 218 -112 q 187 -103 195 -103 l 179 -103 q 176 -109 176 -104 m 755 -106 q 785 -119 772 -106 q 789 -134 789 -127 q 767 -161 789 -147 l 767 -162 q 802 -184 777 -170 l 803 -186 l 803 -189 q 791 -201 792 -201 l 789 -201 q 760 -191 776 -196 l 762 -216 q 757 -218 760 -218 l 745 -217 q 741 -218 745 -218 q 739 -215 739 -218 l 739 -214 q 741 -172 741 -178 l 741 -163 q 739 -125 741 -160 l 739 -114 q 755 -106 739 -108 m 54 -111 q 71 -118 58 -111 l 71 -119 q 66 -155 71 -125 q 96 -128 90 -129 l 96 -128 q 101 -146 100 -128 l 106 -172 q 127 -144 123 -144 q 138 -157 132 -147 l 138 -159 q 126 -176 138 -161 q 104 -221 114 -197 q 99 -227 103 -227 q 85 -182 93 -227 q 83 -174 83 -177 l 83 -174 q 55 -211 71 -186 l 53 -212 l 53 -212 q 50 -206 50 -212 q 48 -145 50 -201 q 48 -140 48 -144 q 48 -139 48 -139 q 48 -136 48 -136 q 47 -113 48 -130 l 54 -111 m 656 -134 l 658 -134 l 660 -137 l 666 -137 q 680 -136 677 -136 l 682 -136 q 695 -148 690 -136 l 695 -149 q 688 -155 695 -155 q 671 -158 672 -156 q 672 -167 672 -163 l 672 -172 q 673 -172 673 -172 q 691 -170 687 -170 l 695 -170 q 704 -185 704 -170 l 704 -186 q 686 -191 704 -191 l 680 -191 l 681 -196 l 681 -210 q 709 -205 694 -210 l 711 -205 q 720 -224 718 -205 q 720 -227 720 -224 q 713 -231 720 -231 q 692 -231 711 -231 q 665 -234 680 -231 l 661 -234 q 655 -180 657 -234 q 650 -144 650 -149 l 650 -140 q 655 -136 650 -136 q 656 -134 655 -134 m 574 -156 q 576 -159 576 -156 l 582 -159 q 607 -161 585 -159 l 629 -159 q 634 -170 634 -159 q 635 -188 635 -185 q 633 -191 635 -190 l 619 -191 l 616 -191 l 616 -212 l 616 -214 q 616 -215 616 -215 q 616 -224 616 -221 l 616 -236 q 607 -241 616 -241 q 597 -243 600 -243 l 597 -243 q 594 -239 594 -242 l 594 -216 l 594 -214 q 594 -212 594 -212 q 594 -208 594 -210 q 594 -194 594 -199 l 594 -188 q 587 -186 591 -186 l 570 -186 q 567 -183 568 -186 q 570 -160 568 -160 q 572 -157 572 -160 l 574 -156 m 378 -157 q 380 -159 380 -158 l 380 -162 l 385 -185 l 385 -189 q 381 -193 385 -193 l 378 -193 q 360 -202 363 -193 l 359 -206 q 370 -218 359 -214 q 376 -219 373 -219 q 392 -215 386 -219 l 393 -215 q 395 -216 395 -216 l 395 -218 q 394 -224 395 -222 q 395 -230 395 -227 l 395 -240 q 382 -247 395 -245 q 376 -247 380 -247 q 339 -229 354 -247 q 334 -214 334 -221 l 334 -209 q 351 -170 334 -193 q 376 -158 365 -158 q 378 -157 376 -157 m 164 -159 l 165 -159 q 168 -165 167 -159 q 177 -182 177 -171 l 177 -189 q 161 -233 177 -212 q 157 -235 159 -235 l 155 -235 q 142 -207 144 -235 l 142 -205 q 158 -163 142 -178 q 164 -159 158 -160 m 507 -161 l 509 -161 q 511 -161 509 -161 q 513 -161 513 -161 q 519 -161 517 -161 q 545 -161 521 -161 q 552 -176 548 -161 l 552 -178 q 540 -183 552 -183 q 528 -188 529 -187 q 530 -241 528 -198 q 512 -247 530 -247 q 509 -236 509 -247 q 509 -212 509 -226 q 511 -191 509 -203 q 496 -195 499 -195 q 491 -186 491 -195 q 488 -170 491 -181 l 488 -169 q 504 -164 488 -166 l 507 -161 m 408 -162 q 435 -165 435 -164 l 435 -168 q 433 -191 433 -186 l 433 -196 q 441 -211 433 -207 l 441 -211 q 448 -172 447 -208 q 451 -169 450 -169 q 468 -176 468 -173 l 468 -177 q 458 -229 468 -202 q 437 -245 451 -245 q 410 -188 410 -245 q 406 -165 410 -185 l 406 -164 q 408 -162 408 -162 m 268 -163 q 304 -186 281 -164 q 312 -204 312 -197 l 312 -209 q 300 -241 312 -228 q 275 -248 288 -248 q 269 -250 275 -248 l 269 -250 q 264 -234 264 -246 l 264 -233 q 267 -169 264 -203 q 268 -169 268 -169 q 265 -167 265 -168 l 265 -165 q 268 -163 267 -163 m 825 -164 l 825 -164 q 841 -180 841 -168 l 841 -182 q 829 -194 841 -192 q 821 -185 821 -192 l 821 -182 q 823 -166 821 -176 q 825 -164 824 -164 m 214 -177 q 227 -185 218 -177 q 237 -207 237 -199 l 237 -210 q 222 -245 237 -226 q 213 -251 217 -251 l 211 -251 q 201 -237 203 -251 l 201 -232 q 209 -185 201 -205 q 207 -182 207 -185 q 214 -177 210 -177 z "},"":{"ha":439,"x_min":0,"x_max":0,"o":""},"":{"ha":640,"x_min":0,"x_max":0,"o":""},"":{"ha":688,"x_min":0,"x_max":0,"o":""}}}
